<svg width="241" height="63" viewBox="0 0 241 63" fill="none" xmlns="http://www.w3.org/2000/svg">
<path d="M77.4958 35.0247C75.3411 34.5075 74.7447 34.2393 74.7447 33.3773C74.7447 32.5153 75.2449 32.1513 76.6686 32.1513C77.2545 32.1549 77.8331 32.2813 78.3667 32.5222C78.9004 32.7631 79.3771 33.1132 79.7659 33.5497L81.6898 31.6341C81.0688 30.9555 80.3107 30.4152 79.4652 30.0487C78.6197 29.6823 77.706 29.498 76.784 29.5079C74.0906 29.5079 71.8975 31.0212 71.8975 33.4922C71.8975 35.9633 73.6481 36.9785 76.1684 37.5723C78.6886 38.1662 79.2273 38.5493 79.2273 39.4879C79.2273 40.4265 78.4577 40.9628 76.8417 40.9628C76.1775 40.977 75.5184 40.8434 74.9127 40.5716C74.3069 40.2999 73.7697 39.8969 73.3403 39.3921L71.4165 41.1544C72.051 41.956 72.87 42.5939 73.8042 43.0139C74.7384 43.434 75.7605 43.6241 76.784 43.568C80.5162 43.568 82.1515 41.8248 82.1515 39.2197C82.0745 36.2698 79.6697 35.5227 77.4958 35.0247V35.0247ZM90.0969 29.5079C86.3647 29.5079 84.1523 32.3812 84.1523 36.5379C84.1523 40.6947 86.3647 43.568 90.0969 43.568C93.8291 43.568 96.0223 40.6947 96.0223 36.5379C96.0223 32.3812 93.8484 29.5079 90.0969 29.5079ZM90.0969 40.8671C87.9037 40.8671 86.9803 38.9515 86.9803 36.5379C86.9803 34.1243 87.9037 32.2088 90.0969 32.2088C92.2901 32.2088 93.2327 34.1243 93.2327 36.5379C93.2327 38.9515 92.3093 40.8671 90.0969 40.8671ZM107.104 37.3808C107.104 39.5645 106.026 40.9054 104.295 40.9054C102.563 40.9054 101.486 39.5262 101.486 37.3425V29.6803H98.7541V37.3425C98.7541 41.3076 100.986 43.5297 104.295 43.5297C107.604 43.5297 109.835 41.2502 109.835 37.3042V29.642H107.104V37.3808ZM121.648 35.4844V38.4726C121.475 38.1087 121.032 37.4382 120.705 36.921L115.838 29.7186H113.337V43.3573H116.049V37.3616V34.3734C116.223 34.7182 116.665 35.4078 116.992 35.925L122.032 43.3573H124.476V29.7186H121.648V35.4844ZM132.152 29.7186H127.881V43.3573H131.959C132.884 43.4298 133.814 43.3044 134.687 42.9895C135.559 42.6746 136.353 42.1775 137.017 41.5315C137.68 40.8855 138.197 40.1057 138.532 39.2444C138.868 38.3831 139.014 37.4603 138.962 36.5379C138.962 31.5575 136.076 29.7186 132.152 29.7186V29.7186ZM131.959 40.7138H130.651V32.362H132.094C134.999 32.362 136.192 33.7604 136.192 36.5379C136.246 37.1031 136.174 37.6733 135.98 38.2072C135.786 38.7411 135.475 39.2254 135.07 39.6251C134.665 40.0247 134.176 40.3297 133.638 40.518C133.1 40.7063 132.527 40.7732 131.959 40.7138V40.7138ZM147.427 32.2088C147.949 32.1812 148.466 32.3085 148.915 32.5745C149.364 32.8406 149.723 33.2333 149.947 33.7029L152.487 32.5344C152.056 31.583 151.345 30.7842 150.449 30.2438C149.552 29.7034 148.512 29.4467 147.466 29.5079C143.906 29.5079 141.386 32.3812 141.386 36.5379C141.386 40.6947 143.791 43.568 147.369 43.568C148.43 43.6282 149.484 43.3654 150.392 42.8145C151.299 42.2636 152.016 41.4507 152.448 40.484L150.14 39.1239C149.913 39.646 149.536 40.0898 149.057 40.3999C148.578 40.71 148.018 40.8725 147.446 40.8671C145.407 40.8671 144.214 38.9515 144.214 36.5379C144.214 34.1243 145.388 32.2088 147.427 32.2088V32.2088ZM157.585 29.7186H154.853V43.3573H163.087V40.6755H157.585V29.7186V29.7186ZM170.301 29.5079C166.569 29.5079 164.357 32.3812 164.357 36.5379C164.357 40.6947 166.569 43.568 170.301 43.568C174.034 43.568 176.246 40.6947 176.246 36.5379C176.246 32.3812 174.034 29.5079 170.301 29.5079ZM170.301 40.8671C168.089 40.8671 167.166 38.9515 167.166 36.5379C167.166 34.1243 168.089 32.2088 170.301 32.2088C172.514 32.2088 173.418 34.1243 173.418 36.5379C173.418 38.9515 172.514 40.8671 170.301 40.8671ZM187.289 37.3808C187.289 39.5645 186.231 40.9054 184.48 40.9054C182.729 40.9054 181.69 39.5262 181.69 37.3425V29.6803H178.939V37.3425C178.939 41.3076 181.171 43.5297 184.48 43.5297C187.789 43.5297 190.04 41.2502 190.04 37.3042V29.642H187.289V37.3808ZM197.735 29.7186H193.464V43.3573H197.543C198.468 43.4298 199.398 43.3044 200.27 42.9895C201.142 42.6746 201.937 42.1775 202.6 41.5315C203.263 40.8855 203.78 40.1057 204.116 39.2444C204.451 38.3831 204.598 37.4603 204.546 36.5379C204.546 31.5575 201.66 29.7186 197.735 29.7186V29.7186ZM197.543 40.7138H196.196V32.362H197.639C200.544 32.362 201.737 33.7604 201.737 36.5379C201.79 37.0996 201.719 37.6661 201.527 38.1969C201.335 38.7278 201.028 39.2099 200.627 39.6089C200.226 40.0078 199.742 40.3137 199.209 40.5047C198.676 40.6957 198.107 40.7671 197.543 40.7138V40.7138Z" fill="white"/>
<path d="M72.54 23.5455V15.499H73.6294V22.5112H77.1124V23.4846L72.54 23.5455Z" fill="#E2E3E9"/>
<path d="M79.5524 16.6848C79.413 16.8202 79.2259 16.8966 79.0308 16.8977C78.934 16.898 78.8381 16.8793 78.7485 16.8427C78.659 16.8062 78.5777 16.7525 78.5091 16.6848C78.4404 16.6169 78.386 16.5363 78.3488 16.4476C78.3116 16.3589 78.2925 16.2637 78.2925 16.1676C78.2925 16.0715 78.3116 15.9764 78.3488 15.8876C78.386 15.7989 78.4404 15.7183 78.5091 15.6505C78.5777 15.5827 78.659 15.529 78.7485 15.4925C78.8381 15.456 78.934 15.4373 79.0308 15.4375C79.1767 15.4371 79.3194 15.4798 79.4409 15.56C79.5623 15.6402 79.657 15.7543 79.7129 15.888C79.7688 16.0216 79.7834 16.1687 79.7548 16.3105C79.7262 16.4524 79.6558 16.5827 79.5524 16.6848V16.6848ZM79.5524 23.5144H78.5091V18.0537H79.5524V23.5144Z" fill="#E2E3E9"/>
<path d="M83.4031 23.6963C82.857 23.7173 82.3187 23.5625 81.8687 23.2552C81.4824 22.9691 81.1804 22.5857 80.9941 22.1448L81.9148 21.7645C82.0242 22.0765 82.2331 22.3447 82.5099 22.5286C82.7868 22.7124 83.1164 22.802 83.4491 22.7836C83.7303 22.7913 84.0077 22.7173 84.247 22.5707C84.3425 22.5108 84.4208 22.4276 84.4746 22.329C84.5283 22.2305 84.5556 22.1199 84.5539 22.0079C84.5539 21.658 84.3084 21.4147 83.802 21.293L82.6819 21.0192C82.3187 20.9203 81.9795 20.7495 81.6846 20.5172C81.5323 20.3945 81.4102 20.2389 81.3278 20.0623C81.2454 19.8856 81.2047 19.6927 81.2089 19.4981C81.2081 19.2649 81.2668 19.0352 81.3794 18.8305C81.4921 18.6257 81.6551 18.4525 81.8534 18.3269C82.3048 18.0209 82.8409 17.8614 83.3877 17.8706C83.8452 17.8618 84.2963 17.9775 84.6919 18.2052C85.0658 18.4158 85.3535 18.7494 85.5052 19.1483L84.6152 19.5133C84.509 19.2731 84.3282 19.0727 84.0991 18.9414C83.8701 18.8101 83.6047 18.7547 83.3417 18.7832C83.0729 18.7814 82.8084 18.8496 82.5745 18.981C82.4765 19.0275 82.3941 19.101 82.3369 19.1927C82.2798 19.2844 82.2504 19.3904 82.2523 19.4981C82.2523 19.8023 82.4978 20.0153 82.9888 20.1218L84.0782 20.3803C84.5194 20.4602 84.923 20.6789 85.229 21.004C85.4633 21.2755 85.5936 21.6202 85.5972 21.9775C85.5996 22.2162 85.5453 22.4521 85.4387 22.6661C85.3321 22.8802 85.1761 23.0663 84.9835 23.2095C84.5312 23.5517 83.9713 23.7241 83.4031 23.6963V23.6963Z" fill="#E2E3E9"/>
<path d="M89.2499 23.6059C89.0058 23.6539 88.7536 23.6423 88.5151 23.5721C88.2766 23.502 88.0589 23.3753 87.8807 23.2032C87.7025 23.0311 87.5692 22.8185 87.4923 22.584C87.4154 22.3494 87.3972 22.0998 87.4393 21.8567V18.9971H86.4727V18.054H87.4393V16.3809H88.4673V18.054H89.8329V18.9971H88.4673V21.7807C88.4673 22.3739 88.7282 22.6781 89.2192 22.6781C89.3825 22.6815 89.5446 22.6504 89.6948 22.5868L90.0477 23.469C89.7927 23.5637 89.5221 23.6101 89.2499 23.6059V23.6059Z" fill="#E2E3E9"/>
<path d="M93.7439 23.6974C93.3644 23.7123 92.9861 23.6467 92.6341 23.5051C92.2822 23.3634 91.9648 23.149 91.7032 22.876C91.1754 22.3109 90.8941 21.5619 90.9207 20.7922C90.9104 20.037 91.1839 19.3051 91.6879 18.7387C91.9192 18.4661 92.2082 18.2471 92.5343 18.0973C92.8604 17.9475 93.2157 17.8705 93.5751 17.8717C93.9402 17.859 94.3039 17.9228 94.6424 18.0591C94.9809 18.1954 95.2865 18.4011 95.5392 18.6627C96.0503 19.253 96.3139 20.0151 96.2757 20.7922V20.9747H92.0408C92.0462 21.4654 92.2444 21.9346 92.5931 22.2828C92.7505 22.438 92.9373 22.5608 93.1426 22.6444C93.348 22.7279 93.568 22.7704 93.79 22.7696C94.1134 22.7933 94.4362 22.7148 94.7119 22.5454C94.9875 22.376 95.202 22.1243 95.3243 21.8265L96.2603 22.2068C96.0667 22.6352 95.759 23.0033 95.3704 23.2715C94.892 23.5909 94.319 23.7409 93.7439 23.6974V23.6974ZM95.2783 20.1229C95.2457 19.7875 95.0933 19.4746 94.8487 19.2407C94.5504 18.9801 94.1703 18.8302 93.773 18.8163C93.3757 18.8024 92.9859 18.9255 92.6699 19.1646C92.3767 19.3969 92.1582 19.7087 92.0408 20.0621L95.2783 20.1229Z" fill="#E2E3E9"/>
<path d="M98.7166 18.0551V18.8156C98.8836 18.5312 99.1283 18.2992 99.4224 18.1464C99.7343 17.9659 100.089 17.8713 100.45 17.8726C100.737 17.8583 101.023 17.9067 101.288 18.0145C101.553 18.1223 101.791 18.2868 101.985 18.4962C102.37 18.9675 102.567 19.5633 102.537 20.1694V23.5157H101.494V20.3367C101.494 19.3176 101.049 18.8156 100.128 18.8156C99.9266 18.8115 99.7269 18.8548 99.5455 18.942C99.3641 19.0293 99.2062 19.158 99.0848 19.3176C98.815 19.6542 98.6738 20.0743 98.6859 20.504V23.5462H97.7192V18.0551H98.7166Z" fill="#E2E3E9"/>
<path d="M107.677 18.7086C107.944 18.4428 108.263 18.2319 108.613 18.0881C108.963 17.9442 109.338 17.8701 109.717 17.8701C110.096 17.8701 110.472 17.9442 110.822 18.0881C111.172 18.2319 111.49 18.4428 111.758 18.7086C112.272 19.28 112.557 20.0191 112.557 20.7849C112.557 21.5507 112.272 22.2898 111.758 22.8612C111.49 23.127 111.172 23.3379 110.822 23.4818C110.472 23.6256 110.096 23.6997 109.717 23.6997C109.338 23.6997 108.963 23.6256 108.613 23.4818C108.263 23.3379 107.944 23.127 107.677 22.8612C107.162 22.2898 106.878 21.5507 106.878 20.7849C106.878 20.0191 107.162 19.28 107.677 18.7086V18.7086ZM108.459 22.2223C108.618 22.3967 108.812 22.5357 109.029 22.6301C109.246 22.7245 109.48 22.7722 109.717 22.7699C109.956 22.7705 110.193 22.7222 110.412 22.628C110.631 22.5337 110.828 22.3956 110.991 22.2223C111.171 22.0311 111.312 21.8063 111.404 21.5608C111.496 21.3154 111.538 21.0542 111.528 20.7925C111.549 20.516 111.512 20.238 111.42 19.9762C111.328 19.7144 111.181 19.4745 110.991 19.2714C110.825 19.103 110.627 18.9691 110.408 18.8777C110.19 18.7863 109.955 18.7391 109.717 18.7391C109.482 18.7377 109.249 18.7842 109.032 18.8758C108.816 18.9674 108.621 19.102 108.459 19.2714C108.265 19.4723 108.117 19.7119 108.024 19.9743C107.932 20.2367 107.897 20.5157 107.922 20.7925C107.908 21.0546 107.949 21.3167 108.041 21.5627C108.133 21.8086 108.276 22.0331 108.459 22.2223V22.2223Z" fill="#E2E3E9"/>
<path d="M114.827 18.0534V18.8139C114.998 18.5328 115.241 18.3019 115.532 18.1446C115.85 17.9642 116.21 17.8698 116.576 17.8708C116.868 17.8631 117.158 17.919 117.426 18.0347C117.693 18.1503 117.932 18.3229 118.125 18.5401C118.499 19.0168 118.69 19.61 118.662 20.2133V23.5596H117.634V20.335C117.634 19.3158 117.174 18.8139 116.269 18.8139C116.067 18.8084 115.867 18.8512 115.685 18.9386C115.504 19.0259 115.346 19.1553 115.225 19.3158C114.951 19.651 114.805 20.0709 114.811 20.5023V23.5444H113.783V18.0534H114.827Z" fill="#E2E3E9"/>
<path d="M66.8585 31.0202C66.8585 40.7255 58.8867 48.4897 49.2365 48.4897C39.5863 48.4897 31.4746 40.7255 31.4746 31.0202C31.4746 21.315 39.4465 13.5508 49.0966 13.5508C58.7468 13.5508 66.8585 21.315 66.8585 31.0202Z" fill="url(#paint0_linear)"/>
<path d="M36.6939 32.1881C36.7007 32.1303 36.7427 32.0898 36.7955 32.0898C36.8464 32.0898 36.8886 32.1303 36.8965 32.1878L37.1159 33.582L36.8965 34.9526C36.8883 35.0101 36.8467 35.05 36.7955 35.05C36.7426 35.05 36.7007 35.0098 36.6939 34.9521L36.5088 33.5821L36.6939 32.1881Z" fill="white"/>
<path d="M37.7312 31.227C37.7846 31.227 37.8279 31.2683 37.8366 31.3282L38.1194 33.5821L37.8363 35.7866C37.8276 35.8462 37.7843 35.8878 37.7312 35.8878C37.6773 35.8878 37.6329 35.8451 37.6258 35.786L37.377 33.5821L37.6258 31.3282C37.6332 31.2696 37.6776 31.227 37.7312 31.227Z" fill="white"/>
<path d="M41.5667 29.4373C41.5716 29.332 41.656 29.2492 41.7581 29.2492C41.8596 29.2492 41.9438 29.332 41.9498 29.4373L42.1738 33.5839L41.9498 36.264V36.2632C41.9438 36.3682 41.8597 36.451 41.7581 36.451C41.656 36.451 41.5719 36.3684 41.5667 36.2637L41.3685 33.5839L41.5667 29.4373Z" fill="white"/>
<path d="M39.5798 30.8353C39.5861 30.7525 39.65 30.6904 39.7284 30.6904C39.806 30.6904 39.87 30.7525 39.8768 30.8348L40.1306 33.5829L39.8768 36.241C39.87 36.3234 39.806 36.3854 39.7284 36.3854C39.65 36.3854 39.5858 36.3234 39.5798 36.241L39.3565 33.5829L39.5798 30.8353Z" fill="white"/>
<path d="M44.0554 36.22C44.0502 36.3495 43.9473 36.4508 43.8207 36.4508C43.6933 36.4508 43.5901 36.3493 43.586 36.2208L43.4137 33.585L43.586 28.0648C43.5901 27.9353 43.6933 27.8338 43.821 27.8338C43.9475 27.8338 44.0505 27.935 44.0556 28.0646L44.2498 33.5853L44.0554 36.22Z" fill="white"/>
<path d="M48.3646 36.1461C48.3613 36.321 48.2176 36.4632 48.0433 36.4632C47.8691 36.4632 47.7248 36.3209 47.722 36.1477C47.722 36.1477 47.6009 33.5888 47.6009 33.5848L47.722 27.2112C47.7248 27.036 47.8688 26.8938 48.0433 26.8938C48.2175 26.8938 48.3616 27.0363 48.3646 27.2109L48.5002 33.5869L48.3646 36.1461Z" fill="white"/>
<path d="M46.1939 36.1787C46.1898 36.3326 46.0676 36.4532 45.9159 36.4532C45.7632 36.4532 45.641 36.3326 45.6377 36.1804L45.4907 33.5861L45.6374 28.0252C45.6407 27.8714 45.7629 27.751 45.9156 27.751C46.0673 27.751 46.1895 27.8713 46.1936 28.0252L46.3589 33.5858L46.1939 36.1806V36.1787Z" fill="white"/>
<path d="M40.9092 36.2632C40.9024 36.3574 40.8294 36.4289 40.7393 36.4289C40.6478 36.4289 40.5752 36.3574 40.5692 36.2629L40.3587 33.5829L40.5692 31.0343C40.5749 30.9395 40.6479 30.868 40.7393 30.868C40.8297 30.868 40.9027 30.939 40.9092 31.0332L41.1483 33.5829L40.9092 36.2632Z" fill="white"/>
<path d="M38.8526 36.1593C38.845 36.2305 38.7916 36.2821 38.7258 36.2821C38.6588 36.2821 38.6054 36.2303 38.5989 36.1588L38.3626 33.5823L38.5989 30.9082C38.6057 30.8369 38.659 30.7851 38.7257 30.7851C38.7916 30.7851 38.845 30.8367 38.8529 30.9082L39.1211 33.5823L38.8526 36.1593Z" fill="white"/>
<path d="M46.6755 28.2287C46.6788 28.0624 46.8108 27.9326 46.9756 27.9326C47.14 27.9326 47.2712 28.0624 47.275 28.2281L47.4253 33.5867L47.275 36.1647V36.1625C47.2712 36.3288 47.14 36.4583 46.9756 36.4583C46.8106 36.4583 46.6788 36.3285 46.6755 36.1644L46.5416 33.5864L46.6755 28.2287Z" fill="white"/>
<path d="M42.9988 36.2467C42.9933 36.3641 42.8994 36.4562 42.7856 36.4562C42.6707 36.4562 42.577 36.3641 42.5724 36.2478L42.387 33.5847L42.5721 28.4897C42.577 28.3722 42.6707 28.2802 42.7856 28.2802C42.8994 28.2802 42.993 28.372 42.9988 28.4897L43.2078 33.5847L42.9988 36.2467Z" fill="white"/>
<path d="M45.1204 36.2049V36.2046C45.1154 36.3454 45.0034 36.4559 44.8642 36.4559C44.7246 36.4559 44.6118 36.345 44.608 36.2046L44.4482 33.5853L44.6078 27.8789C44.6116 27.7369 44.7243 27.626 44.8642 27.626C45.0033 27.626 45.116 27.7372 45.1204 27.8789L45.3001 33.5856L45.1204 36.2035V36.2046C45.1204 36.2043 45.1204 36.2041 45.1204 36.2038V36.2049H45.1204Z" fill="white"/>
<path d="M57.5063 30.5357C57.8771 30.3816 58.2841 30.2961 58.7107 30.2961C60.4303 30.2961 61.8242 31.6785 61.8242 33.3834C61.8242 35.0883 60.43 36.4705 58.7105 36.4705C58.6549 36.4705 50.0871 36.4661 50.0792 36.4653C49.8933 36.4467 49.7454 36.2893 49.743 36.1004V26.3032C49.7452 26.1232 49.8078 26.0304 50.0427 25.9402C50.6474 25.7084 51.3321 25.5713 52.0345 25.5713C54.9051 25.5713 57.2585 27.7537 57.5063 30.5357Z" fill="white"/>
<path d="M48.7631 26.6339C48.7659 26.4468 48.9194 26.2946 49.1065 26.2946C49.2929 26.2946 49.4465 26.4468 49.4492 26.6333L49.6019 33.5877L49.4492 36.1118V36.1088C49.4465 36.2959 49.2929 36.4478 49.1065 36.4478C48.9194 36.4478 48.7659 36.2959 48.7634 36.1115L48.6227 33.5877L48.7631 26.6339Z" fill="white"/>
<defs>
<linearGradient id="paint0_linear" x1="49.1666" y1="13.5508" x2="49.1666" y2="48.4897" gradientUnits="userSpaceOnUse">
<stop stop-color="#FF7602"/>
<stop offset="1" stop-color="#FF3502"/>
</linearGradient>
</defs>
</svg>
