<svg width="25" height="21" viewBox="0 0 25 21" fill="none" xmlns="http://www.w3.org/2000/svg">
<path fill-rule="evenodd" clip-rule="evenodd" d="M24.3342 2.61016C23.445 3.01143 22.4894 3.28167 21.4864 3.40348C22.5105 2.78009 23.297 1.79228 23.6666 0.615092C22.7089 1.19242 21.6475 1.61212 20.5177 1.83834C19.6144 0.858718 18.3244 0.246582 16.8985 0.246582C13.6972 0.246582 11.3448 3.28269 12.0679 6.43448C7.94818 6.22463 4.29475 4.2183 1.84873 1.16888C0.549686 3.43419 1.17504 6.39763 3.3824 7.89828C2.57075 7.87167 1.80543 7.64544 1.13778 7.26772C1.0834 9.60264 2.72986 11.7871 5.11446 12.2733C4.4166 12.4658 3.65228 12.5108 2.87487 12.3593C3.50526 14.3615 5.336 15.8182 7.50711 15.8591C5.4226 17.5205 2.79632 18.2626 0.166016 17.9473C2.36029 19.3774 4.96743 20.2116 7.76692 20.2116C16.973 20.2116 22.1742 12.3081 21.86 5.21942C22.8287 4.50799 23.6696 3.62049 24.3342 2.61016Z" fill="#1DA1F2"/>
</svg>
