<svg width="23" height="23" viewBox="0 0 23 23" fill="none" xmlns="http://www.w3.org/2000/svg">
<path d="M11.2559 0C6.56657 0 5.19511 0.00483759 4.92852 0.0269523C3.96619 0.106945 3.36736 0.258466 2.71498 0.583275C2.21222 0.83293 1.81571 1.12232 1.42438 1.52799C0.711699 2.26779 0.279771 3.17795 0.123413 4.25984C0.0473942 4.78507 0.0252795 4.89219 0.0207874 7.57498C0.0190597 8.46924 0.0207874 9.64616 0.0207874 11.2248C0.0207874 15.9103 0.0259705 17.2804 0.0484308 17.5465C0.126178 18.4829 0.273033 19.072 0.584021 19.7165C1.17835 20.9501 2.31346 21.8761 3.65071 22.2216C4.11374 22.3409 4.62514 22.4065 5.28167 22.4376C5.55983 22.4497 8.395 22.4583 11.2319 22.4583C14.0688 22.4583 16.9057 22.4549 17.177 22.4411C17.9372 22.4053 18.3786 22.346 18.8667 22.2199C20.2125 21.8726 21.3269 20.9604 21.9333 19.7096C22.2383 19.0807 22.3929 18.4691 22.4629 17.5815C22.4781 17.388 22.4845 14.3029 22.4845 11.2218C22.4845 8.14028 22.4776 5.06081 22.4624 4.86731C22.3915 3.96544 22.2369 3.35902 21.9221 2.71804C21.6638 2.19333 21.377 1.80148 20.9606 1.40083C20.2176 0.691084 19.3088 0.259157 18.2259 0.102972C17.7011 0.0271251 17.5966 0.00466482 14.9118 0H11.2559Z" fill="url(#paint0_radial)"/>
<path d="M11.2559 0C6.56657 0 5.19511 0.00483759 4.92852 0.0269523C3.96619 0.106945 3.36736 0.258466 2.71498 0.583275C2.21222 0.83293 1.81571 1.12232 1.42438 1.52799C0.711699 2.26779 0.279771 3.17795 0.123413 4.25984C0.0473942 4.78507 0.0252795 4.89219 0.0207874 7.57498C0.0190597 8.46924 0.0207874 9.64616 0.0207874 11.2248C0.0207874 15.9103 0.0259705 17.2804 0.0484308 17.5465C0.126178 18.4829 0.273033 19.072 0.584021 19.7165C1.17835 20.9501 2.31346 21.8761 3.65071 22.2216C4.11374 22.3409 4.62514 22.4065 5.28167 22.4376C5.55983 22.4497 8.395 22.4583 11.2319 22.4583C14.0688 22.4583 16.9057 22.4549 17.177 22.4411C17.9372 22.4053 18.3786 22.346 18.8667 22.2199C20.2125 21.8726 21.3269 20.9604 21.9333 19.7096C22.2383 19.0807 22.3929 18.4691 22.4629 17.5815C22.4781 17.388 22.4845 14.3029 22.4845 11.2218C22.4845 8.14028 22.4776 5.06081 22.4624 4.86731C22.3915 3.96544 22.2369 3.35902 21.9221 2.71804C21.6638 2.19333 21.377 1.80148 20.9606 1.40083C20.2176 0.691084 19.3088 0.259157 18.2259 0.102972C17.7011 0.0271251 17.5966 0.00466482 14.9118 0H11.2559Z" fill="url(#paint1_radial)"/>
<path d="M11.2507 2.93701C8.99849 2.93701 8.71584 2.94686 7.83125 2.98712C6.94839 3.02754 6.34576 3.16732 5.81847 3.37239C5.27303 3.58421 4.81035 3.86756 4.34939 4.32868C3.88809 4.78964 3.60475 5.25232 3.39224 5.79758C3.18664 6.32505 3.0467 6.92785 3.00696 7.81037C2.9674 8.69495 2.95703 8.97778 2.95703 11.23C2.95703 13.4823 2.96705 13.7641 3.00714 14.6486C3.04774 15.5315 3.18751 16.1341 3.39241 16.6614C3.6044 17.2069 3.88775 17.6696 4.34888 18.1305C4.80966 18.5918 5.27234 18.8758 5.81743 19.0877C6.34507 19.2927 6.94787 19.4325 7.83056 19.4729C8.71515 19.5132 8.99763 19.523 11.2497 19.523C13.5021 19.523 13.7839 19.5132 14.6685 19.4729C15.5514 19.4325 16.1547 19.2927 16.6823 19.0877C17.2276 18.8758 17.6896 18.5918 18.1504 18.1305C18.6116 17.6696 18.895 17.2069 19.1075 16.6616C19.3114 16.1341 19.4513 15.5313 19.4928 14.6488C19.5325 13.7642 19.5429 13.4823 19.5429 11.23C19.5429 8.97778 19.5325 8.69513 19.4928 7.81054C19.4513 6.92768 19.3114 6.32505 19.1075 5.79776C18.895 5.25232 18.6116 4.78964 18.1504 4.32868C17.6891 3.86738 17.2278 3.58404 16.6818 3.37239C16.1531 3.16732 15.5501 3.02754 14.6673 2.98712C13.7827 2.94686 13.5011 2.93701 11.2481 2.93701H11.2507ZM10.5068 4.43148C10.7276 4.43114 10.974 4.43148 11.2507 4.43148C13.465 4.43148 13.7274 4.43943 14.6018 4.47917C15.4104 4.51614 15.8492 4.65125 16.1415 4.76476C16.5285 4.91507 16.8045 5.09475 17.0945 5.38501C17.3848 5.67526 17.5645 5.95169 17.7151 6.3387C17.8286 6.63069 17.9639 7.06952 18.0007 7.87809C18.0405 8.75231 18.0491 9.01493 18.0491 11.2281C18.0491 13.4413 18.0405 13.7039 18.0007 14.5782C17.9638 15.3867 17.8286 15.8256 17.7151 16.1175C17.5648 16.5046 17.3848 16.7801 17.0945 17.0702C16.8043 17.3605 16.5287 17.5401 16.1415 17.6905C15.8496 17.8045 15.4104 17.9392 14.6018 17.9762C13.7276 18.016 13.465 18.0246 11.2507 18.0246C9.03633 18.0246 8.77389 18.016 7.89967 17.9762C7.0911 17.9389 6.65226 17.8038 6.35976 17.6903C5.97275 17.54 5.69632 17.3603 5.40606 17.07C5.11581 16.7798 4.93612 16.504 4.78547 16.1169C4.67196 15.8249 4.53668 15.386 4.49988 14.5775C4.46014 13.7032 4.45219 13.4406 4.45219 11.2261C4.45219 9.01147 4.46014 8.75024 4.49988 7.87602C4.53685 7.06745 4.67196 6.62861 4.78547 6.33628C4.93578 5.94928 5.11581 5.67284 5.40606 5.38259C5.69632 5.09233 5.97275 4.91265 6.35976 4.76199C6.65209 4.64796 7.0911 4.5132 7.89967 4.47606C8.6647 4.4415 8.96117 4.43114 10.5068 4.42941V4.43148ZM15.6775 5.80847C15.1281 5.80847 14.6823 6.2537 14.6823 6.80328C14.6823 7.3527 15.1281 7.79845 15.6775 7.79845C16.2269 7.79845 16.6726 7.3527 16.6726 6.80328C16.6726 6.25387 16.2269 5.80812 15.6775 5.80812V5.80847ZM11.2507 6.97122C8.8988 6.97122 6.99193 8.87809 6.99193 11.23C6.99193 13.582 8.8988 15.488 11.2507 15.488C13.6027 15.488 15.5089 13.582 15.5089 11.23C15.5089 8.87809 13.6025 6.97122 11.2506 6.97122H11.2507ZM11.2507 8.46569C12.7773 8.46569 14.0151 9.70325 14.0151 11.23C14.0151 12.7566 12.7773 13.9944 11.2507 13.9944C9.72396 13.9944 8.4864 12.7566 8.4864 11.23C8.4864 9.70325 9.72396 8.46569 11.2507 8.46569V8.46569Z" fill="white"/>
<defs>
<radialGradient id="paint0_radial" cx="0" cy="0" r="1" gradientUnits="userSpaceOnUse" gradientTransform="translate(5.98717 24.1881) rotate(-90) scale(22.2579 20.7072)">
<stop stop-color="#FFDD55"/>
<stop offset="0.1" stop-color="#FFDD55"/>
<stop offset="0.5" stop-color="#FF543E"/>
<stop offset="1" stop-color="#C837AB"/>
</radialGradient>
<radialGradient id="paint1_radial" cx="0" cy="0" r="1" gradientUnits="userSpaceOnUse" gradientTransform="translate(-3.7429 1.61786) rotate(78.6776) scale(9.94947 41.0225)">
<stop stop-color="#3771C8"/>
<stop offset="0.128" stop-color="#3771C8"/>
<stop offset="1" stop-color="#6600FF" stop-opacity="0"/>
</radialGradient>
</defs>
</svg>
