<svg width="241" height="63" viewBox="0 0 241 63" fill="none" xmlns="http://www.w3.org/2000/svg">
<path d="M64.7615 43.7554C64.2636 44.9298 63.4748 45.9607 62.4683 46.7527C61.7326 47.3259 60.8954 47.7581 59.9998 48.0269C58.6091 48.3599 57.1795 48.506 55.7494 48.4613H39.9893C38.564 48.507 37.1391 48.3608 35.7534 48.0269C34.847 47.7627 33.9995 47.3303 33.2558 46.7527C32.2787 45.9839 31.5064 44.9896 31.0064 43.8567C30.4673 42.2333 30.2394 40.5242 30.3345 38.8177V38.8177V23.1506C30.2568 21.477 30.4895 19.8034 31.021 18.213C31.5128 17.0711 32.2803 16.0667 33.2558 15.2881C33.9951 14.7121 34.8376 14.2797 35.7388 14.0138C37.1245 13.6799 38.5494 13.5338 39.9746 13.5794H55.7932C57.2233 13.5348 58.6529 13.6809 60.0437 14.0138C60.9238 14.2876 61.7457 14.7195 62.4683 15.2881C63.4453 16.0568 64.2176 17.0511 64.7177 18.184C65.2478 19.7845 65.4755 21.4682 65.3895 23.1506V38.8177C65.4861 40.4878 65.2732 42.1613 64.7615 43.7554V43.7554Z" fill="url(#paint0_linear)"/>
<path d="M50.4334 33.5896C50.0882 33.2748 49.6828 33.0319 49.2413 32.8752C48.7997 32.7185 48.3309 32.6512 47.8626 32.6774C47.3992 32.6552 46.9359 32.7243 46.4996 32.8809C46.0634 33.0375 45.6628 33.2784 45.3212 33.5896C45.0494 33.8562 44.8835 34.2109 44.8538 34.5887C44.7616 35.4648 44.7616 36.348 44.8538 37.2241C44.9414 38.2956 45.1167 39.7146 45.3504 41.1626C45.4421 41.8321 45.5787 42.4948 45.7593 43.1463C45.9215 43.5411 46.2085 43.8732 46.5772 44.0925C46.9459 44.3118 47.3765 44.4066 47.8042 44.3626C48.234 44.4075 48.6668 44.3133 49.038 44.094C49.4093 43.8748 49.6989 43.5423 49.8637 43.1463C50.0443 42.4948 50.181 41.8321 50.2727 41.1626C50.4918 39.7146 50.6671 38.2666 50.7547 37.2241C50.8469 36.348 50.8469 35.4648 50.7547 34.5887C50.7656 34.2291 50.6522 33.8766 50.4334 33.5896V33.5896ZM45.029 28.681C45.029 29.2537 45.2004 29.8136 45.5214 30.2899C45.8423 30.7661 46.2986 31.1373 46.8324 31.3565C47.3662 31.5757 47.9535 31.633 48.5202 31.5213C49.0869 31.4096 49.6074 31.1337 50.0159 30.7287C50.4245 30.3237 50.7027 29.8077 50.8154 29.246C50.9281 28.6842 50.8703 28.1019 50.6492 27.5727C50.4281 27.0436 50.0536 26.5913 49.5732 26.2731C49.0929 25.9549 48.5281 25.785 47.9503 25.785C47.1755 25.785 46.4325 26.0901 45.8846 26.6332C45.3368 27.1763 45.029 27.9129 45.029 28.681ZM47.8626 17.4302C44.9511 17.4434 42.1379 18.4754 39.919 20.3442C37.7 22.213 36.218 24.7984 35.7343 27.6446C35.2505 30.4909 35.7961 33.415 37.2748 35.9014C38.7535 38.3877 41.0703 40.2767 43.8167 41.235C43.8443 41.2423 43.8733 41.2427 43.9012 41.2363C43.9291 41.23 43.9549 41.2169 43.9765 41.1984C43.9981 41.1798 44.0148 41.1563 44.0252 41.1298C44.0355 41.1034 44.0391 41.0749 44.0358 41.0467C43.9628 40.6268 43.9043 40.2069 43.8459 39.8015C43.8401 39.7285 43.8138 39.6586 43.7699 39.5997C43.726 39.5408 43.6663 39.4953 43.5976 39.4684C41.3351 38.4728 39.4873 36.7356 38.3644 34.5486C37.2416 32.3617 36.9122 29.8582 37.4317 27.4589C37.9512 25.0596 39.2878 22.9107 41.217 21.3731C43.1462 19.8355 45.5504 19.003 48.0257 19.0154C50.5011 19.0279 52.8967 19.8845 54.8101 21.4414C56.7234 22.9983 58.038 25.1605 58.5329 27.5649C59.0278 29.9693 58.6729 32.4693 57.5277 34.6449C56.3826 36.8205 54.5171 38.539 52.2445 39.5119C52.1758 39.5388 52.1161 39.5842 52.0722 39.6431C52.0283 39.702 52.002 39.7719 51.9962 39.8449C51.9962 40.2503 51.8794 40.6703 51.8063 41.0902C51.803 41.1183 51.8067 41.1469 51.817 41.1733C51.8273 41.1997 51.844 41.2232 51.8656 41.2418C51.8872 41.2604 51.9131 41.2734 51.9409 41.2798C51.9688 41.2862 51.9978 41.2857 52.0254 41.2784C54.8139 40.34 57.1726 38.4454 58.6767 35.9357C60.1808 33.426 60.7314 30.4664 60.2293 27.5899C59.7272 24.7135 58.2054 22.1093 55.9381 20.2466C53.6708 18.3839 50.807 17.3851 47.8626 17.4302V17.4302ZM47.6436 23.0483C49.0068 22.9952 50.3538 23.3565 51.504 24.0839C52.6543 24.8112 53.5526 25.8698 54.0787 27.1177C54.6048 28.3656 54.7334 29.7431 54.4474 31.0655C54.1613 32.3879 53.4742 33.592 52.4782 34.5163C52.4257 34.57 52.3845 34.6335 52.3569 34.7031C52.3293 34.7727 52.3159 34.847 52.3176 34.9218C52.349 35.4039 52.349 35.8876 52.3176 36.3698C52.3185 36.3998 52.3274 36.429 52.3431 36.4547C52.3589 36.4803 52.3811 36.5014 52.4076 36.516C52.4341 36.5306 52.4639 36.5381 52.4942 36.5379C52.5245 36.5376 52.5542 36.5296 52.5805 36.5146C54.0444 35.527 55.1504 34.1002 55.7363 32.4437C56.3222 30.7872 56.3571 28.9882 55.8359 27.3105C55.3147 25.6329 54.2649 24.1651 52.8404 23.1224C51.4159 22.0797 49.6918 21.5171 47.9211 21.5171C46.1504 21.5171 44.4263 22.0797 43.0018 23.1224C41.5773 24.1651 40.5274 25.6329 40.0062 27.3105C39.485 28.9882 39.5199 30.7872 40.1058 32.4437C40.6917 34.1002 41.7978 35.527 43.2617 36.5146C43.2867 36.5308 43.3159 36.5398 43.3459 36.5406C43.3758 36.5413 43.4054 36.5337 43.4312 36.5186C43.457 36.5036 43.4781 36.4816 43.492 36.4553C43.5059 36.429 43.5122 36.3994 43.51 36.3698C43.51 35.8774 43.51 35.4286 43.51 34.9218C43.5175 34.8464 43.5069 34.7703 43.479 34.6999C43.451 34.6294 43.4066 34.5665 43.3493 34.5163C42.3894 33.6151 41.7197 32.4527 41.4244 31.1752C41.1291 29.8976 41.2214 28.5621 41.6897 27.3364C42.1581 26.1108 42.9815 25.0498 44.0564 24.2868C45.1314 23.5238 46.4099 23.0929 47.7312 23.0483H47.6436Z" fill="white"/>
<path d="M82.3909 41.2061H76.972L75.6136 45.0143H73.3643L78.5349 30.8965H80.9303L86.0717 45.0143H83.7347L82.3909 41.2061ZM77.527 39.512H81.8359L79.718 33.3146L77.527 39.512Z" fill="white"/>
<path d="M97.1442 39.8743C97.1442 43.0743 95.4206 45.1304 92.7623 45.1304C92.1003 45.1647 91.4421 45.013 90.8633 44.6928C90.2845 44.3726 89.8086 43.8969 89.4905 43.3205V43.3205V48.4318H87.3726V34.7194H89.432V36.4281C89.7699 35.8591 90.2561 35.3908 90.8395 35.0724C91.4229 34.7539 92.082 34.597 92.7477 34.6181C95.406 34.6181 97.1442 36.6163 97.1442 39.8743ZM94.9532 39.8743C94.9532 37.7892 93.8724 36.4136 92.2072 36.4136C90.5421 36.4136 89.4905 37.8616 89.4905 39.8743C89.4905 41.887 90.5859 43.3349 92.2072 43.3349C93.8285 43.3349 94.9532 41.9738 94.9532 39.8743Z" fill="white"/>
<path d="M108.581 39.8745C108.581 43.0746 106.857 45.1307 104.199 45.1307C103.539 45.1622 102.884 45.0092 102.308 44.6891C101.732 44.3691 101.259 43.8949 100.942 43.3207V43.3207V48.4321H98.7944V34.7197H100.869V36.4283C101.205 35.8583 101.691 35.3892 102.275 35.0706C102.859 34.752 103.518 34.5957 104.184 34.6184C106.842 34.6184 108.581 36.6166 108.581 39.8745ZM106.39 39.8745C106.39 37.7894 105.309 36.4139 103.644 36.4139C101.979 36.4139 100.927 37.8618 100.927 39.8745C100.927 41.8872 102.022 43.3352 103.644 43.3352C105.265 43.3352 106.39 41.9741 106.39 39.8745Z" fill="white"/>
<path d="M110.304 30.8965H112.436V45.0143H110.304V30.8965Z" fill="white"/>
<path d="M123.537 41.988C123.305 42.962 122.723 43.8191 121.901 44.3998C121.079 44.9805 120.072 45.2452 119.067 45.1446C116.044 45.1446 114.174 43.1319 114.174 39.9174C114.174 36.7029 116.059 34.5889 118.98 34.5889C121.901 34.5889 123.668 36.616 123.668 39.6713V40.3953H116.365V40.5256C116.334 40.9039 116.384 41.2845 116.512 41.6421C116.64 41.9998 116.844 42.3264 117.109 42.6002C117.374 42.874 117.695 43.0888 118.05 43.2304C118.406 43.372 118.787 43.4372 119.17 43.4215C119.673 43.4697 120.179 43.3546 120.611 43.0935C121.043 42.8324 121.378 42.4394 121.565 41.9736L123.537 41.988ZM116.336 38.9183H121.521C121.542 38.5782 121.49 38.2375 121.371 37.918C121.252 37.5984 121.067 37.3069 120.828 37.0619C120.589 36.8169 120.301 36.6237 119.983 36.4946C119.665 36.3656 119.323 36.3033 118.98 36.312C118.633 36.3081 118.288 36.3728 117.967 36.5022C117.645 36.6317 117.353 36.8233 117.107 37.0659C116.861 37.3085 116.666 37.5972 116.534 37.9153C116.401 38.2333 116.334 38.5743 116.336 38.9183V38.9183Z" fill="white"/>
<path d="M135.018 30.8972C135.64 30.8662 136.263 30.9647 136.845 31.1864C137.427 31.4081 137.956 31.7481 138.397 32.1845C138.839 32.6209 139.183 33.144 139.409 33.7203C139.634 34.2966 139.736 34.9133 139.706 35.5307C139.734 36.1552 139.629 36.7785 139.399 37.3604C139.168 37.9423 138.818 38.4699 138.369 38.9092C137.92 39.3485 137.384 39.6897 136.794 39.9109C136.204 40.132 135.574 40.2282 134.945 40.1932H131.892V45.015H129.657V30.8972H135.018ZM131.892 38.3543H134.419C134.812 38.4068 135.212 38.3719 135.59 38.2521C135.968 38.1323 136.314 37.9306 136.604 37.6616C136.893 37.3927 137.119 37.0632 137.264 36.6971C137.409 36.3311 137.47 35.9376 137.442 35.5452C137.47 35.1547 137.409 34.7631 137.265 34.3987C137.12 34.0344 136.896 33.7065 136.608 33.4389C136.32 33.1713 135.975 32.9706 135.599 32.8516C135.223 32.7325 134.825 32.698 134.433 32.7506H131.892V38.3543Z" fill="white"/>
<path d="M140.48 39.874C140.48 36.6305 142.408 34.5889 145.417 34.5889C148.426 34.5889 150.34 36.6305 150.34 39.874C150.34 43.1175 148.441 45.1446 145.417 45.1446C142.394 45.1446 140.48 43.1175 140.48 39.874ZM148.163 39.874C148.163 37.6441 147.141 36.3409 145.417 36.3409C143.694 36.3409 142.657 37.6586 142.657 39.874C142.657 42.0894 143.679 43.4071 145.417 43.4071C147.156 43.4071 148.163 42.1039 148.163 39.874Z" fill="white"/>
<path d="M151.844 39.874C151.844 36.6884 153.612 34.6178 156.226 34.6178C156.886 34.5846 157.542 34.7368 158.118 35.0571C158.694 35.3773 159.168 35.8525 159.483 36.4278V36.4278V30.8965H161.616V45.0143H159.542V43.2622C159.224 43.853 158.744 44.3421 158.157 44.6728C157.57 45.0035 156.9 45.1621 156.226 45.1301C153.612 45.1301 151.844 43.045 151.844 39.874ZM154.021 39.874C154.021 41.988 155.101 43.3346 156.767 43.3346C158.432 43.3346 159.498 41.9591 159.498 39.874C159.498 37.7889 158.402 36.4133 156.767 36.4133C155.131 36.4133 154.021 37.7744 154.021 39.874V39.874Z" fill="white"/>
<path d="M170.701 38.2683C170.607 37.7042 170.303 37.1957 169.848 36.8441C169.393 36.4926 168.822 36.3238 168.247 36.3714C166.611 36.3714 165.516 37.7325 165.516 39.8755C165.516 42.0185 166.611 43.3796 168.262 43.3796C168.827 43.4355 169.394 43.2768 169.846 42.9357C170.299 42.5945 170.604 42.0961 170.701 41.5407H172.746C172.617 42.6041 172.075 43.5758 171.235 44.2491C170.395 44.9225 169.323 45.2443 168.247 45.1462C165.326 45.1462 163.354 43.1335 163.354 39.8755C163.354 36.6176 165.282 34.5904 168.232 34.5904C169.318 34.501 170.396 34.8354 171.236 35.5225C172.077 36.2095 172.613 37.1948 172.731 38.2683H170.701Z" fill="white"/>
<path d="M174.06 42.0907C174.06 40.2952 175.448 39.1947 177.916 39.0644L180.764 38.9051V38.0653C180.764 36.9214 180.005 36.2698 178.705 36.2698C178.227 36.2081 177.742 36.321 177.342 36.5875C176.941 36.8539 176.652 37.2557 176.529 37.7178H174.527C174.527 35.8644 176.339 34.5322 178.763 34.5322C181.188 34.5322 182.882 35.8788 182.882 37.906V45.0156H180.779V43.3215C180.45 43.8958 179.971 44.372 179.393 44.7005C178.815 45.0291 178.159 45.1979 177.493 45.1894C177.057 45.2297 176.619 45.1795 176.204 45.0421C175.79 44.9047 175.409 44.6831 175.086 44.3915C174.763 44.0998 174.505 43.7446 174.328 43.3484C174.152 42.9522 174.06 42.5238 174.06 42.0907V42.0907ZM180.764 41.164V40.3676L178.208 40.5269C176.923 40.5993 176.207 41.1495 176.207 41.9748C176.207 42.8002 176.952 43.4228 178.106 43.4228C178.431 43.4486 178.758 43.4105 179.069 43.311C179.379 43.2114 179.666 43.0521 179.915 42.8424C180.163 42.6326 180.367 42.3764 180.515 42.0884C180.663 41.8004 180.753 41.4863 180.779 41.164H180.764Z" fill="white"/>
<path d="M188.827 34.6025C191.135 34.6025 192.785 35.8623 192.829 37.6867H190.828C190.74 36.7745 189.966 36.2388 188.768 36.2388C187.571 36.2388 186.855 36.76 186.855 37.5564C186.855 38.3528 187.366 38.5845 188.432 38.8596L190.185 39.2506C192.274 39.7573 193.106 40.5248 193.106 42.0307C193.106 43.8841 191.339 45.1583 188.725 45.1583C186.11 45.1583 184.635 43.913 184.474 42.0307H186.621C186.782 43.0298 187.571 43.5511 188.871 43.5511C190.171 43.5511 190.945 43.0298 190.945 42.2189C190.945 41.408 190.55 41.2343 189.484 40.9592L187.629 40.5103C185.759 40.0614 184.81 39.0623 184.81 37.6867C184.766 35.8478 186.417 34.6025 188.827 34.6025Z" fill="white"/>
<path d="M197.708 32.2725V34.7051H199.68V36.3847H197.708V42.0608C197.708 42.9441 198.102 43.3495 198.964 43.3495H199.665V45.0147C199.275 45.0824 198.878 45.1115 198.482 45.1016C196.379 45.1016 195.561 44.3197 195.561 42.3214V36.3992H194.1V34.7195H195.561V32.2725H197.708Z" fill="white"/>
<path d="M205.405 34.6025C207.713 34.6025 209.364 35.8623 209.408 37.6867H207.407C207.319 36.7745 206.545 36.2388 205.347 36.2388C204.149 36.2388 203.434 36.76 203.434 37.5564C203.434 38.3528 203.945 38.5845 205.011 38.8596L206.764 39.2506C208.853 39.7573 209.685 40.5248 209.685 42.0307C209.685 43.8841 207.918 45.1583 205.376 45.1583C202.835 45.1583 201.228 43.8551 201.082 42.0162H203.185C203.346 43.0153 204.135 43.5366 205.435 43.5366C206.735 43.5366 207.509 43.0153 207.509 42.2044C207.509 41.3936 207.114 41.2198 206.048 40.9447L204.149 40.4958C202.28 40.0469 201.33 39.0478 201.33 37.6723C201.345 35.8478 202.995 34.6025 205.405 34.6025Z" fill="white"/>
<path d="M74.5771 25.4518V17.792H75.6142V24.4672H78.9298V25.3939L74.5771 25.4518Z" fill="#EFF0F7"/>
<path d="M81.2522 18.9217C81.1195 19.0506 80.9414 19.1233 80.7556 19.1244C80.6634 19.1247 80.5721 19.1069 80.4869 19.0721C80.4017 19.0373 80.3242 18.9862 80.2589 18.9217C80.1936 18.8571 80.1417 18.7804 80.1063 18.6959C80.0709 18.6115 80.0527 18.5209 80.0527 18.4294C80.0527 18.3379 80.0709 18.2474 80.1063 18.1629C80.1417 18.0784 80.1936 18.0017 80.2589 17.9371C80.3242 17.8726 80.4017 17.8215 80.4869 17.7867C80.5721 17.7519 80.6634 17.7342 80.7556 17.7344C80.8945 17.734 81.0304 17.7746 81.146 17.851C81.2616 17.9273 81.3517 18.036 81.4049 18.1632C81.4581 18.2904 81.472 18.4304 81.4448 18.5655C81.4176 18.7005 81.3506 18.8245 81.2522 18.9217V18.9217ZM81.2522 25.4231H80.2589V20.2249H81.2522V25.4231Z" fill="#EFF0F7"/>
<path d="M84.9182 25.597C84.3983 25.617 83.8859 25.4697 83.4576 25.1771C83.0898 24.9047 82.8023 24.5398 82.625 24.1201L83.5014 23.7581C83.6056 24.0551 83.8044 24.3104 84.068 24.4854C84.3315 24.6604 84.6453 24.7457 84.962 24.7282C85.2297 24.7355 85.4937 24.665 85.7215 24.5255C85.8124 24.4685 85.887 24.3892 85.9382 24.2954C85.9893 24.2016 86.0153 24.0964 86.0136 23.9897C86.0136 23.6567 85.7799 23.425 85.2979 23.3092L84.2317 23.0485C83.8859 22.9544 83.563 22.7918 83.2823 22.5707C83.1373 22.4539 83.0211 22.3057 82.9426 22.1376C82.8641 21.9695 82.8254 21.7858 82.8295 21.6006C82.8287 21.3785 82.8845 21.1599 82.9918 20.965C83.099 20.7701 83.2542 20.6052 83.4429 20.4856C83.8727 20.1943 84.3831 20.0425 84.9036 20.0512C85.339 20.0428 85.7684 20.153 86.1451 20.3698C86.501 20.5702 86.7748 20.8879 86.9192 21.2675L86.0721 21.615C85.9709 21.3863 85.7988 21.1956 85.5808 21.0706C85.3627 20.9456 85.1101 20.8928 84.8597 20.92C84.6039 20.9183 84.352 20.9832 84.1294 21.1083C84.0361 21.1526 83.9576 21.2226 83.9033 21.3098C83.8489 21.3971 83.8209 21.498 83.8227 21.6006C83.8227 21.8902 84.0564 22.0929 84.5238 22.1942L85.5608 22.4404C85.9809 22.5164 86.365 22.7246 86.6563 23.0341C86.8793 23.2926 87.0034 23.6206 87.0069 23.9608C87.0091 24.188 86.9574 24.4126 86.8559 24.6163C86.7544 24.8201 86.606 24.9973 86.4226 25.1336C85.9921 25.4594 85.4591 25.6235 84.9182 25.597V25.597Z" fill="#EFF0F7"/>
<path d="M90.4831 25.5107C90.2508 25.5564 90.0107 25.5453 89.7837 25.4785C89.5566 25.4117 89.3493 25.2912 89.1797 25.1273C89.0101 24.9635 88.8832 24.7612 88.81 24.5379C88.7368 24.3146 88.7195 24.077 88.7596 23.8455V21.1233H87.8394V20.2256H88.7596V18.6328H89.7382V20.2256H91.0381V21.1233H89.7382V23.7731C89.7382 24.3379 89.9865 24.6275 90.4539 24.6275C90.6093 24.6307 90.7637 24.6011 90.9067 24.5406L91.2426 25.3804C90.9999 25.4705 90.7423 25.5147 90.4831 25.5107V25.5107Z" fill="#EFF0F7"/>
<path d="M94.7629 25.5981C94.4016 25.6122 94.0415 25.5498 93.7065 25.415C93.3715 25.2801 93.0694 25.076 92.8203 24.8162C92.3178 24.2782 92.0501 23.5652 92.0754 22.8324C92.0656 22.1136 92.3259 21.4168 92.8057 20.8776C93.0259 20.6181 93.301 20.4096 93.6114 20.267C93.9219 20.1244 94.2601 20.0511 94.6023 20.0523C94.9498 20.0402 95.296 20.101 95.6182 20.2307C95.9404 20.3605 96.2313 20.5563 96.4719 20.8052C96.9584 21.3672 97.2093 22.0927 97.173 22.8324V23.0062H93.1416C93.1468 23.4733 93.3355 23.92 93.6675 24.2514C93.8173 24.3992 93.995 24.5161 94.1905 24.5956C94.386 24.6751 94.5954 24.7156 94.8067 24.7148C95.1147 24.7374 95.4219 24.6627 95.6843 24.5014C95.9468 24.3401 96.1509 24.1005 96.2674 23.817L97.1584 24.179C96.974 24.5869 96.6811 24.9373 96.3112 25.1926C95.8558 25.4967 95.3103 25.6395 94.7629 25.5981V25.5981ZM96.2236 22.1953C96.1925 21.876 96.0475 21.5782 95.8146 21.3555C95.5307 21.1075 95.1688 20.9647 94.7906 20.9515C94.4124 20.9383 94.0413 21.0555 93.7405 21.2831C93.4615 21.5042 93.2534 21.801 93.1416 22.1374L96.2236 22.1953Z" fill="#EFF0F7"/>
<path d="M99.4953 20.2259V20.9499C99.6543 20.6791 99.8872 20.4582 100.167 20.3128C100.464 20.141 100.802 20.051 101.146 20.0521C101.418 20.0385 101.691 20.0846 101.943 20.1873C102.195 20.2899 102.422 20.4465 102.606 20.6458C102.974 21.0944 103.161 21.6616 103.132 22.2386V25.4242H102.139V22.3979C102.139 21.4277 101.715 20.9499 100.839 20.9499C100.647 20.9459 100.457 20.9872 100.284 21.0702C100.112 21.1533 99.9614 21.2758 99.8459 21.4277C99.5891 21.7481 99.4546 22.1481 99.4661 22.5571V25.4531H98.5459V20.2259H99.4953Z" fill="#EFF0F7"/>
<path d="M108.025 20.848C108.28 20.595 108.583 20.3942 108.917 20.2573C109.25 20.1203 109.607 20.0498 109.968 20.0498C110.329 20.0498 110.686 20.1203 111.02 20.2573C111.353 20.3942 111.656 20.595 111.911 20.848C112.4 21.392 112.671 22.0955 112.671 22.8245C112.671 23.5536 112.4 24.2571 111.911 24.801C111.656 25.0541 111.353 25.2548 111.02 25.3918C110.686 25.5288 110.329 25.5993 109.968 25.5993C109.607 25.5993 109.25 25.5288 108.917 25.3918C108.583 25.2548 108.28 25.0541 108.025 24.801C107.536 24.2571 107.265 23.5536 107.265 22.8245C107.265 22.0955 107.536 21.392 108.025 20.848V20.848ZM108.77 24.1929C108.921 24.3589 109.106 24.4912 109.313 24.5811C109.519 24.671 109.743 24.7163 109.968 24.7142C110.195 24.7147 110.421 24.6687 110.629 24.579C110.838 24.4893 111.025 24.3579 111.18 24.1929C111.352 24.0109 111.486 23.7968 111.574 23.5632C111.661 23.3295 111.702 23.0809 111.692 22.8318C111.712 22.5685 111.677 22.3039 111.589 22.0547C111.501 21.8055 111.362 21.5771 111.18 21.3838C111.023 21.2235 110.834 21.096 110.626 21.009C110.418 20.9219 110.194 20.8771 109.968 20.877C109.744 20.8757 109.522 20.92 109.316 21.0072C109.11 21.0943 108.924 21.2225 108.77 21.3838C108.586 21.575 108.445 21.8031 108.357 22.0529C108.268 22.3027 108.235 22.5682 108.259 22.8318C108.246 23.0813 108.284 23.3308 108.372 23.5649C108.46 23.7991 108.596 24.0128 108.77 24.1929V24.1929Z" fill="#EFF0F7"/>
<path d="M114.832 20.2252V20.9492C114.995 20.6816 115.227 20.4618 115.503 20.3121C115.806 20.1404 116.148 20.0505 116.497 20.0515C116.775 20.0441 117.051 20.0973 117.306 20.2074C117.561 20.3175 117.788 20.4818 117.972 20.6886C118.328 21.1424 118.509 21.7071 118.483 22.2813V25.4669H117.505V22.3972C117.505 21.427 117.066 20.9492 116.205 20.9492C116.013 20.944 115.822 20.9847 115.649 21.0679C115.476 21.1511 115.326 21.2742 115.211 21.427C114.95 21.746 114.811 22.1458 114.817 22.5565V25.4524H113.838V20.2252H114.832Z" fill="#EFF0F7"/>
<defs>
<linearGradient id="paint0_linear" x1="47.8912" y1="13.5794" x2="47.8912" y2="48.3889" gradientUnits="userSpaceOnUse">
<stop stop-color="#F452FF"/>
<stop offset="1" stop-color="#832BC1"/>
</linearGradient>
</defs>
</svg>
