<svg width="241" height="63" viewBox="0 0 241 63" fill="none" xmlns="http://www.w3.org/2000/svg">
<path d="M74.6538 13.5713C71.254 13.5713 67.9306 14.5707 65.1038 16.4431C62.2771 18.3156 60.0739 20.977 58.7728 24.0907C57.4718 27.2045 57.1314 30.6308 57.7947 33.9363C58.4579 37.2419 60.095 40.2782 62.499 42.6614C64.903 45.0445 67.9659 46.6675 71.3003 47.325C74.6347 47.9825 78.0909 47.6451 81.2318 46.3553C84.3728 45.0655 87.0574 42.8814 88.9462 40.0791C90.835 37.2768 91.8431 33.9822 91.8431 30.6119C91.8431 26.0924 90.0321 21.7581 86.8085 18.5624C83.5848 15.3666 79.2127 13.5713 74.6538 13.5713V13.5713ZM82.5419 38.1462C82.4688 38.2666 82.3722 38.3714 82.2579 38.4545C82.1435 38.5376 82.0136 38.5973 81.8757 38.6302C81.7379 38.6631 81.5948 38.6685 81.4548 38.6461C81.3148 38.6237 81.1807 38.574 81.0603 38.4998C77.0271 36.0518 71.9512 35.5078 65.9699 36.8542C65.8338 36.8864 65.6927 36.8915 65.5546 36.8691C65.4166 36.8468 65.2843 36.7975 65.1657 36.7242C65.047 36.6508 64.9442 36.5548 64.8632 36.4417C64.7822 36.3286 64.7248 36.2007 64.6941 36.0654C64.6614 35.9297 64.6562 35.7889 64.6785 35.6511C64.7009 35.5133 64.7504 35.3813 64.8243 35.2625C64.8982 35.1438 64.9951 35.0407 65.1092 34.9591C65.2234 34.8775 65.3527 34.819 65.4897 34.787C72.0335 33.3046 77.6581 33.9438 82.1853 36.691C82.4268 36.8374 82.6 37.0728 82.6668 37.3455C82.7337 37.6183 82.6888 37.9062 82.5419 38.1462V38.1462ZM84.6409 33.5086C84.4492 33.801 84.1515 34.0091 83.8094 34.0901C83.4673 34.1711 83.1069 34.1187 82.8026 33.9438C77.5865 31.0593 71.4287 30.3452 65.6818 31.9582C65.503 32.0571 65.3041 32.115 65.0998 32.1277C64.8954 32.1404 64.6908 32.1076 64.5009 32.0317C64.311 31.9558 64.1407 31.8388 64.0024 31.6891C63.8641 31.5395 63.7613 31.361 63.7016 31.1669C63.6419 30.9727 63.6268 30.7678 63.6574 30.5671C63.688 30.3664 63.7635 30.1751 63.8784 30.0071C63.9933 29.8391 64.1447 29.6988 64.3214 29.5963C64.4982 29.4939 64.6958 29.4319 64.8998 29.4151C68.1075 28.4997 71.4674 28.229 74.7821 28.6191C78.0968 29.0091 81.2995 30.0519 84.2019 31.6863C84.4968 31.8763 84.7067 32.1714 84.7884 32.5105C84.8701 32.8497 84.8173 33.207 84.6409 33.5086V33.5086ZM84.8192 28.6807C79.3318 25.4167 70.1541 25.1175 64.8587 26.7087C64.4512 26.8314 64.0112 26.7885 63.6356 26.5895C63.26 26.3906 62.9795 26.0519 62.8558 25.6479C62.7321 25.244 62.7753 24.8078 62.976 24.4354C63.1766 24.0631 63.5183 23.785 63.9258 23.6624C70.0032 21.84 80.0863 22.1936 86.4655 25.9335C86.7934 26.1662 87.021 26.5127 87.103 26.9042C87.1849 27.2956 87.1152 27.7033 86.9077 28.0462C86.7002 28.389 86.3701 28.6418 85.9832 28.7543C85.5962 28.8669 85.1806 28.8309 84.8192 28.6535V28.6807Z" fill="#1ED760"/>
<path d="M108.059 34.2975C104.766 33.5087 104.176 32.9376 104.176 31.8224C104.176 30.7072 105.205 30 106.742 30C108.389 30.0612 109.971 30.6587 111.241 31.7C111.267 31.7131 111.295 31.7199 111.324 31.7199C111.352 31.7199 111.381 31.7131 111.406 31.7C111.46 31.6897 111.509 31.6608 111.543 31.6184L113.162 29.3608C113.194 29.3201 113.212 29.2698 113.212 29.218C113.212 29.1662 113.194 29.1159 113.162 29.0752C111.377 27.6268 109.13 26.8554 106.824 26.8992C103.271 26.8992 100.788 29.0208 100.788 32.04C100.788 35.2903 102.928 36.4463 106.632 37.3303C109.787 38.0511 110.322 38.6903 110.322 39.7375C110.322 40.7846 109.238 41.6686 107.578 41.6686C105.616 41.6552 103.736 40.8844 102.338 39.5199C102.285 39.5022 102.227 39.5022 102.173 39.5199C102.117 39.5333 102.065 39.5615 102.022 39.6015L100.184 41.7094C100.146 41.7498 100.124 41.8034 100.124 41.859C100.124 41.9147 100.146 41.9682 100.184 42.0086C102.181 43.782 104.774 44.752 107.455 44.7286C111.282 44.7286 113.766 42.6478 113.766 39.4383C113.711 36.7591 112.064 35.2631 108.059 34.2975Z" fill="white"/>
<path d="M122.381 31.0743C121.588 31.0694 120.805 31.2447 120.092 31.5865C119.378 31.9283 118.753 32.4277 118.265 33.0463V31.5503C118.262 31.495 118.237 31.4431 118.196 31.4052C118.155 31.3673 118.101 31.3462 118.046 31.3463H115.069C115.013 31.3462 114.959 31.3673 114.918 31.4052C114.877 31.4431 114.853 31.495 114.849 31.5503V48.1421C114.849 48.1998 114.872 48.2552 114.913 48.296C114.955 48.3368 115.01 48.3597 115.069 48.3597H118.018C118.076 48.3597 118.132 48.3368 118.173 48.296C118.214 48.2552 118.238 48.1998 118.238 48.1421V42.9334C118.742 43.526 119.373 44.0005 120.085 44.3226C120.796 44.6448 121.571 44.8066 122.353 44.7965C125.44 44.7965 128.568 42.4438 128.568 37.9286C128.568 33.4135 125.467 31.0743 122.381 31.0743ZM125.124 37.8742C125.176 38.3606 125.125 38.8522 124.975 39.318C124.825 39.7838 124.579 40.2137 124.253 40.5805C123.926 40.9473 123.527 41.243 123.08 41.4491C122.632 41.6551 122.147 41.7669 121.654 41.7774C121.159 41.7622 120.673 41.6479 120.224 41.4414C119.775 41.2348 119.373 40.9403 119.043 40.5755C118.712 40.2108 118.459 39.7833 118.299 39.3191C118.14 38.8548 118.077 38.3633 118.114 37.8742C118.079 37.3862 118.143 36.8962 118.304 36.4335C118.464 35.9709 118.717 35.5451 119.048 35.1818C119.378 34.8186 119.78 34.5253 120.227 34.3195C120.675 34.1138 121.16 33.9999 121.654 33.9847C122.153 33.9932 122.645 34.1047 123.098 34.3121C123.551 34.5195 123.956 34.8182 124.286 35.1892C124.617 35.5603 124.866 35.9955 125.017 36.4672C125.168 36.9388 125.219 37.4365 125.165 37.9286L125.124 37.8742Z" fill="white"/>
<path d="M136.607 31.0741C135.236 31.0984 133.903 31.5246 132.776 32.2989C131.649 33.0733 130.779 34.1611 130.275 35.4252C129.771 36.6892 129.656 38.073 129.944 39.4018C130.233 40.7306 130.912 41.945 131.895 42.8919C132.879 43.8387 134.124 44.4755 135.472 44.7219C136.82 44.9684 138.212 44.8135 139.472 44.2768C140.731 43.7401 141.803 42.8455 142.55 41.706C143.298 40.5666 143.688 39.2332 143.672 37.874C143.659 36.9674 143.467 36.072 143.105 35.2393C142.742 34.4066 142.218 33.6529 141.562 33.0213C140.906 32.3896 140.13 31.8925 139.28 31.5584C138.43 31.2243 137.521 31.0597 136.607 31.0741V31.0741ZM136.607 41.8588C136.1 41.8522 135.6 41.7441 135.136 41.5409C134.673 41.3378 134.255 41.0438 133.909 40.6766C133.563 40.3095 133.296 39.8768 133.123 39.4045C132.95 38.9322 132.875 38.4301 132.903 37.9284C132.871 37.4336 132.942 36.9376 133.11 36.4709C133.279 36.0043 133.543 35.5768 133.885 35.215C134.227 34.8531 134.64 34.5645 135.098 34.3669C135.557 34.1693 136.052 34.0669 136.552 34.0661C137.06 34.0692 137.563 34.1741 138.029 34.3747C138.496 34.5752 138.917 34.8672 139.267 35.233C139.616 35.5989 139.888 36.0311 140.065 36.5036C140.242 36.9761 140.321 37.4793 140.297 37.9828C140.329 38.4817 140.257 38.9818 140.086 39.4519C139.915 39.9221 139.648 40.3523 139.302 40.7158C138.955 41.0794 138.538 41.3684 138.074 41.565C137.61 41.7617 137.111 41.8616 136.607 41.8588V41.8588Z" fill="white"/>
<path d="M152.164 31.3466H148.913V28.0555C148.913 28.0001 148.892 27.9467 148.853 27.9062C148.815 27.8658 148.763 27.8414 148.707 27.8379H145.757C145.699 27.8379 145.643 27.8608 145.602 27.9016C145.561 27.9424 145.538 27.9978 145.538 28.0555V31.3466H144.084C144.057 31.3466 144.03 31.3519 144.005 31.3622C143.98 31.3724 143.957 31.3875 143.938 31.4064C143.919 31.4253 143.904 31.4478 143.894 31.4726C143.883 31.4973 143.878 31.5239 143.878 31.5506V34.0666C143.878 34.122 143.899 34.1754 143.937 34.2159C143.976 34.2563 144.028 34.2807 144.084 34.2842H145.456V40.7849C145.456 43.4097 146.827 44.7425 149.379 44.7425C150.339 44.7694 151.288 44.5341 152.123 44.0625C152.156 44.0467 152.185 44.0216 152.204 43.9902C152.224 43.9588 152.233 43.9225 152.233 43.8857V41.4921C152.233 41.4551 152.225 41.4184 152.208 41.3853C152.191 41.3522 152.167 41.3235 152.137 41.3017C152.104 41.2812 152.066 41.2703 152.027 41.2703C151.988 41.2703 151.95 41.2812 151.917 41.3017C151.381 41.5707 150.789 41.7105 150.188 41.7097C149.242 41.7097 148.817 41.2881 148.817 40.3497V34.2842H152.068C152.126 34.2842 152.182 34.2613 152.223 34.2205C152.264 34.1797 152.287 34.1243 152.287 34.0666V31.5506C152.289 31.5084 152.278 31.4667 152.256 31.4304C152.234 31.3942 152.202 31.3651 152.164 31.3466V31.3466Z" fill="white"/>
<path d="M163.481 31.3605V30.9525C163.481 29.7558 163.934 29.2254 164.963 29.2254C165.535 29.2319 166.102 29.3378 166.637 29.5382C166.667 29.5517 166.7 29.5587 166.733 29.5587C166.766 29.5587 166.799 29.5517 166.829 29.5382C166.855 29.5171 166.877 29.4901 166.891 29.4594C166.905 29.4287 166.912 29.3952 166.911 29.3614V26.8726C166.913 26.8249 166.9 26.7778 166.873 26.7385C166.845 26.6992 166.806 26.6699 166.76 26.655C165.959 26.4461 165.132 26.3545 164.305 26.383C161.561 26.383 160.189 27.9062 160.189 30.7758V31.4013H158.817C158.763 31.4013 158.71 31.4228 158.672 31.4611C158.633 31.4994 158.611 31.5512 158.611 31.6053V34.1349C158.611 34.1903 158.632 34.2437 158.671 34.2842C158.709 34.3246 158.761 34.349 158.817 34.3525H160.189V44.3892C160.189 44.4433 160.211 44.4952 160.249 44.5334C160.288 44.5717 160.34 44.5932 160.395 44.5932H163.289C163.345 44.5933 163.399 44.5722 163.44 44.5343C163.481 44.4964 163.505 44.4445 163.509 44.3892V34.2845H166.253L170.478 44.3076C169.998 45.3684 169.518 45.5724 168.873 45.5724C168.304 45.5571 167.748 45.4029 167.254 45.1236C167.226 45.1103 167.196 45.1034 167.165 45.1034C167.134 45.1034 167.104 45.1103 167.076 45.1236C167.048 45.1315 167.023 45.1453 167.002 45.1641C166.98 45.183 166.963 45.2063 166.952 45.2324L166.033 47.3947C166.013 47.4439 166.012 47.4987 166.029 47.5488C166.047 47.5988 166.082 47.6408 166.129 47.6667C167.088 48.2119 168.179 48.4892 169.284 48.4691C171.452 48.4691 172.659 47.4627 173.729 44.7564L178.846 31.6461C178.863 31.6147 178.872 31.5797 178.872 31.5441C178.872 31.5086 178.863 31.4736 178.846 31.4421C178.825 31.4157 178.798 31.3946 178.767 31.3805C178.736 31.3663 178.702 31.3595 178.668 31.3605H175.513C175.469 31.3633 175.427 31.3773 175.391 31.4012C175.355 31.425 175.326 31.4579 175.307 31.4965L172.165 40.4044L168.777 31.4965C168.76 31.456 168.732 31.4213 168.695 31.3971C168.658 31.3728 168.615 31.3601 168.571 31.3605H163.481Z" fill="white"/>
<path d="M156.924 31.3467H153.975C153.854 31.3467 153.755 31.4441 153.755 31.5643V44.3209C153.755 44.4411 153.854 44.5385 153.975 44.5385H156.924C157.046 44.5385 157.144 44.4411 157.144 44.3209V31.5643C157.144 31.4441 157.046 31.3467 156.924 31.3467Z" fill="white"/>
<path d="M155.456 25.5264C155.035 25.5237 154.622 25.6451 154.271 25.875C153.919 26.105 153.645 26.4333 153.482 26.8182C153.319 27.2032 153.275 27.6274 153.355 28.0372C153.436 28.447 153.637 28.8239 153.934 29.1201C154.231 29.4162 154.61 29.6183 155.022 29.7008C155.435 29.7832 155.863 29.7423 156.253 29.5832C156.642 29.424 156.975 29.1538 157.209 28.8069C157.444 28.46 157.569 28.0519 157.569 27.6344C157.57 27.3582 157.517 27.0844 157.412 26.8287C157.306 26.573 157.151 26.3406 156.955 26.1446C156.758 25.9487 156.525 25.7932 156.268 25.6871C156.01 25.581 155.735 25.5264 155.456 25.5264V25.5264Z" fill="white"/>
<path d="M181.302 35.4401C181.029 35.4419 180.759 35.39 180.507 35.2875C180.255 35.1849 180.026 35.0337 179.833 34.8427C179.64 34.6516 179.488 34.4245 179.384 34.1746C179.281 33.9246 179.229 33.6567 179.231 33.3866C179.231 32.8383 179.45 32.3125 179.841 31.9248C180.232 31.5372 180.763 31.3194 181.316 31.3194C181.588 31.3176 181.858 31.3695 182.111 31.472C182.363 31.5746 182.592 31.7258 182.785 31.9168C182.977 32.1079 183.13 32.335 183.233 32.585C183.337 32.8349 183.389 33.1028 183.387 33.373C183.387 33.9212 183.168 34.447 182.777 34.8347C182.385 35.2223 181.855 35.4401 181.302 35.4401V35.4401ZM181.302 31.5234C180.929 31.5207 180.564 31.628 180.253 31.8317C179.942 32.0354 179.699 32.3262 179.555 32.6672C179.411 33.0082 179.372 33.384 179.444 33.7467C179.516 34.1093 179.696 34.4426 179.959 34.704C180.223 34.9654 180.559 35.1431 180.925 35.2145C181.291 35.286 181.67 35.2479 182.014 35.1052C182.358 34.9625 182.651 34.7216 182.857 34.4132C183.062 34.1047 183.17 33.7426 183.168 33.373C183.17 33.1307 183.123 32.8905 183.031 32.6662C182.938 32.4419 182.802 32.2379 182.63 32.0659C182.458 31.894 182.253 31.7575 182.028 31.6644C181.802 31.5713 181.56 31.5234 181.316 31.5234H181.302ZM181.768 33.5905L182.345 34.4065H181.851L181.329 33.6586H180.877V34.4065H180.451V32.2442H181.426C181.933 32.2442 182.276 32.5026 182.276 32.9242C182.279 33.0736 182.232 33.2199 182.143 33.3403C182.054 33.4608 181.927 33.5487 181.782 33.5905H181.768ZM181.412 32.6114H180.877V33.2914H181.412C181.686 33.2914 181.851 33.169 181.851 32.9514C181.851 32.7338 181.7 32.6114 181.426 32.6114H181.412Z" fill="white"/>
<path d="M101.254 22.3779V13.7041H102.371V21.4031H106.171V22.4605L101.254 22.3779Z" fill="#EFF0F7"/>
<path d="M108.854 14.9097C108.783 14.9883 108.696 15.05 108.598 15.0901C108.499 15.1302 108.393 15.1476 108.287 15.141C108.081 15.1368 107.884 15.0536 107.738 14.9089C107.592 14.7642 107.508 14.5691 107.504 14.3645C107.5 14.2597 107.518 14.1553 107.559 14.0583C107.599 13.9613 107.66 13.8742 107.737 13.8028C107.808 13.7289 107.893 13.6703 107.988 13.6305C108.083 13.5907 108.185 13.5706 108.287 13.5714C108.393 13.5693 108.497 13.5887 108.595 13.6285C108.692 13.6683 108.781 13.7276 108.854 13.8028C108.928 13.8766 108.987 13.9642 109.027 14.0606C109.067 14.157 109.088 14.2602 109.087 14.3645C109.088 14.4664 109.068 14.5673 109.028 14.6611C108.988 14.7549 108.928 14.8395 108.854 14.9097V14.9097ZM108.854 22.3444H107.737V16.4462H108.854V22.3444Z" fill="#EFF0F7"/>
<path d="M113.037 22.5426C112.444 22.5666 111.859 22.3984 111.37 22.0635C110.937 21.7561 110.601 21.3318 110.404 20.8409L111.404 20.4278C111.52 20.7698 111.745 21.0647 112.046 21.2676C112.347 21.4705 112.707 21.5701 113.07 21.5513C113.371 21.5624 113.668 21.4817 113.92 21.32C114.027 21.2569 114.116 21.1674 114.177 21.0603C114.238 20.9531 114.27 20.8319 114.27 20.7087C114.27 20.3287 113.987 20.0644 113.454 19.9157L112.237 19.6348C111.838 19.5316 111.467 19.3395 111.154 19.0731C110.985 18.9468 110.849 18.7814 110.759 18.5914C110.669 18.4013 110.627 18.1924 110.637 17.9826C110.633 17.7287 110.695 17.4781 110.818 17.2551C110.941 17.0322 111.12 16.8446 111.337 16.7105C111.825 16.3729 112.409 16.1992 113.004 16.2148C113.501 16.2035 113.991 16.3294 114.42 16.5783C114.831 16.8062 115.149 17.1683 115.32 17.6026L114.337 17.9992C114.225 17.7395 114.031 17.5225 113.785 17.3797C113.539 17.237 113.254 17.1762 112.97 17.2061C112.672 17.1941 112.377 17.2688 112.12 17.4209C112.021 17.474 111.937 17.5526 111.879 17.6484C111.82 17.7443 111.788 17.854 111.787 17.9661C111.787 18.3131 112.054 18.5444 112.57 18.66L113.77 18.9409C114.242 19.0253 114.674 19.2569 115.004 19.6017C115.268 19.8987 115.416 20.2798 115.42 20.6757C115.423 20.9349 115.364 21.1912 115.248 21.4237C115.132 21.6561 114.963 21.8583 114.754 22.0139C114.262 22.3843 113.654 22.5714 113.037 22.5426V22.5426Z" fill="#EFF0F7"/>
<path d="M119.386 22.4434C119.126 22.46 118.865 22.4247 118.619 22.3396C118.373 22.2544 118.147 22.1212 117.953 21.9478C117.781 21.7584 117.649 21.5362 117.566 21.2948C117.483 21.0534 117.45 20.7978 117.47 20.5435V17.4209H116.403V16.4461H117.47V14.5957H118.587V16.4461H120.053V17.4539H118.587V20.4939C118.587 21.1382 118.853 21.4522 119.386 21.4522C119.577 21.4729 119.769 21.456 119.953 21.4026L120.353 22.3443C120.043 22.4501 119.712 22.484 119.386 22.4434V22.4434Z" fill="#EFF0F7"/>
<path d="M124.269 22.5435C123.86 22.5584 123.452 22.4865 123.072 22.3326C122.693 22.1788 122.351 21.9465 122.07 21.6514C121.504 21.026 121.2 20.2108 121.22 19.3714C121.204 18.5533 121.495 17.7586 122.036 17.141C122.298 16.841 122.623 16.6023 122.99 16.4423C123.356 16.2823 123.753 16.2049 124.153 16.2158C124.55 16.1976 124.946 16.265 125.314 16.4133C125.683 16.5617 126.014 16.7874 126.286 17.0749C126.837 17.7119 127.123 18.533 127.086 19.3714V19.5862H122.336C122.342 20.1191 122.557 20.6288 122.936 21.007C123.291 21.3408 123.763 21.5245 124.253 21.5192C124.602 21.5463 124.951 21.4634 125.251 21.2825C125.55 21.1016 125.784 20.8318 125.919 20.5114L126.919 20.9244C126.715 21.3935 126.38 21.7948 125.953 22.0809C125.452 22.402 124.865 22.5634 124.269 22.5435V22.5435ZM125.936 18.661C125.895 18.2934 125.731 17.9502 125.469 17.6862C125.294 17.5294 125.088 17.4092 124.865 17.3326C124.642 17.256 124.405 17.2245 124.169 17.2401C123.774 17.2355 123.39 17.3701 123.086 17.6201C122.775 17.8937 122.559 18.2581 122.47 18.661H125.936Z" fill="#EFF0F7"/>
<path d="M129.67 16.446V17.2721C129.851 16.9631 130.117 16.7111 130.436 16.5452C130.781 16.3492 131.172 16.2467 131.57 16.2478C131.88 16.2356 132.19 16.2898 132.477 16.4066C132.765 16.5235 133.024 16.7004 133.236 16.9252C133.645 17.4416 133.852 18.0869 133.819 18.7425V22.3773H132.786V18.9077C132.786 17.8173 132.286 17.2556 131.303 17.2556C131.084 17.2497 130.866 17.2961 130.669 17.391C130.472 17.4859 130.301 17.6265 130.17 17.8008C129.873 18.159 129.714 18.6096 129.72 19.073V22.3773H128.603V16.446H129.67Z" fill="#EFF0F7"/>
<path d="M139.419 17.1237C139.71 16.8349 140.055 16.6059 140.436 16.4496C140.816 16.2933 141.224 16.2129 141.635 16.2129C142.047 16.2129 142.455 16.2933 142.835 16.4496C143.215 16.6059 143.561 16.8349 143.852 17.1237C144.411 17.7443 144.719 18.547 144.719 19.3789C144.719 20.2107 144.411 21.0135 143.852 21.6341C143.561 21.9228 143.215 22.1519 142.835 22.3081C142.455 22.4644 142.047 22.5449 141.635 22.5449C141.224 22.5449 140.816 22.4644 140.436 22.3081C140.055 22.1519 139.71 21.9228 139.419 21.6341C139.13 21.333 138.904 20.9777 138.755 20.589C138.606 20.2003 138.537 19.7861 138.552 19.3706C138.539 18.9578 138.608 18.5464 138.757 18.1606C138.906 17.7748 139.131 17.4223 139.419 17.1237V17.1237ZM140.252 20.9402C140.431 21.1225 140.645 21.2675 140.881 21.3665C141.117 21.4655 141.371 21.5165 141.627 21.5165C141.884 21.5165 142.137 21.4655 142.373 21.3665C142.61 21.2675 142.823 21.1225 143.002 20.9402C143.379 20.5057 143.586 19.9518 143.586 19.3789C143.586 18.806 143.379 18.2521 143.002 17.8176C142.823 17.6352 142.61 17.4903 142.373 17.3913C142.137 17.2923 141.884 17.2413 141.627 17.2413C141.371 17.2413 141.117 17.2923 140.881 17.3913C140.645 17.4903 140.431 17.6352 140.252 17.8176C139.876 18.2521 139.668 18.806 139.668 19.3789C139.668 19.9518 139.876 20.5057 140.252 20.9402V20.9402Z" fill="#EFF0F7"/>
<path d="M147.185 16.446V17.2721C147.362 16.9596 147.629 16.7065 147.952 16.5452C148.291 16.3491 148.676 16.2464 149.069 16.2478C149.38 16.2322 149.69 16.2849 149.978 16.402C150.266 16.519 150.525 16.6977 150.735 16.9252C151.157 17.4355 151.371 18.0838 151.335 18.7425V22.3773H150.285V18.9078C150.285 17.8173 149.802 17.2556 148.802 17.2556C148.583 17.2511 148.366 17.2981 148.169 17.3929C147.972 17.4877 147.801 17.6275 147.669 17.8008C147.383 18.1639 147.23 18.6125 147.235 19.073V22.3773H146.102V16.446H147.185Z" fill="#EFF0F7"/>
</svg>
