<svg width="21" height="20" viewBox="0 0 21 20" fill="none" xmlns="http://www.w3.org/2000/svg">
<path d="M0.484375 2.94331C0.484375 2.30416 0.708836 1.77687 1.15774 1.36144C1.60664 0.945995 2.19023 0.738281 2.90848 0.738281C3.61392 0.738281 4.18466 0.942793 4.62075 1.35185C5.06965 1.77369 5.29411 2.32333 5.29411 3.00083C5.29411 3.61441 5.07608 4.1257 4.63999 4.53477C4.19109 4.9566 3.60108 5.16751 2.87 5.16751H2.85077C2.14533 5.16751 1.57459 4.9566 1.1385 4.53477C0.70241 4.11293 0.484375 3.58244 0.484375 2.94331ZM0.734481 19.7207V6.91236H5.00553V19.7207H0.734481ZM7.37192 19.7207H11.643V12.5687C11.643 12.1213 11.6943 11.7762 11.7969 11.5333C11.9764 11.0987 12.249 10.7312 12.6145 10.4308C12.9801 10.1304 13.4386 9.98023 13.9901 9.98023C15.4266 9.98023 16.1449 10.9453 16.1449 12.8755V19.7207H20.4159V12.377C20.4159 10.4851 19.967 9.05028 19.0692 8.0724C18.1714 7.09452 16.985 6.60558 15.51 6.60558C13.8554 6.60558 12.5664 7.31502 11.643 8.73391V8.77226H11.6237L11.643 8.73391V6.91236H7.37192C7.39756 7.3214 7.4104 8.59328 7.4104 10.728C7.4104 12.8627 7.39756 15.8603 7.37192 19.7207Z" fill="#018AD2"/>
</svg>
