<svg width="26" height="19" viewBox="0 0 26 19" fill="none" xmlns="http://www.w3.org/2000/svg">
<path d="M13.7119 18.2059L8.48775 18.1083C6.7963 18.0743 5.10064 18.1422 3.44235 17.7897C0.919718 17.263 0.741005 14.6808 0.554002 12.5148C0.29633 9.46971 0.396083 6.36933 0.882343 3.34963C1.15685 1.65526 2.23716 0.644223 3.90782 0.534203C9.54752 0.134922 15.2247 0.182241 20.8519 0.36852C21.4462 0.385597 22.0446 0.478931 22.6306 0.585171C25.5233 1.10334 25.5938 4.02957 25.7814 6.4929C25.9684 8.98166 25.8894 11.4832 25.532 13.955C25.2452 16.0016 24.6966 17.7179 22.3812 17.8835C19.4803 18.1002 16.6459 18.2746 13.7367 18.2191C13.7369 18.2059 13.7201 18.2059 13.7119 18.2059ZM10.6406 13.0245C12.8267 11.7418 14.9711 10.4805 17.1448 9.20639C14.9545 7.92369 12.8142 6.66237 10.6406 5.38827V13.0245Z" fill="#EC1C15"/>
</svg>
