<svg width="388" height="388" viewBox="0 0 388 388" fill="none" xmlns="http://www.w3.org/2000/svg">
<mask id="mask0" mask-type="alpha" maskUnits="userSpaceOnUse" x="0" y="0" width="388" height="388">
<path d="M0 0H388V388H0V0Z" fill="#FEDB01"/>
</mask>
<g mask="url(#mask0)">
<rect width="388" height="388" fill="#FF8754"/>
<circle cx="107.949" cy="167.309" r="205.012" transform="rotate(150 107.949 167.309)" fill="#FFBB54"/>
<circle cx="-58.9838" cy="263.688" r="205.012" transform="rotate(150 -58.9838 263.688)" fill="#FFD341"/>
<path d="M57.1757 301.736C57.1757 360.645 80.5772 417.142 122.232 458.797C163.887 500.452 220.384 523.853 279.293 523.853C338.202 523.853 394.698 500.452 436.353 458.797C478.008 417.142 501.41 360.646 501.41 301.737L279.293 301.736L57.1757 301.736Z" fill="#FF8754"/>
<circle cx="374.795" cy="301.737" r="126.613" fill="#FFDA54"/>
<g filter="url(#filter0_d)">
<mask id="mask1" mask-type="alpha" maskUnits="userSpaceOnUse" x="0" y="0" width="388" height="388">
<rect width="388" height="388" fill="#FEDB01"/>
</mask>
<g mask="url(#mask1)">
<rect width="388" height="388" fill="#855BFF"/>
<rect x="140.779" y="-20.7521" width="301.804" height="301.804" fill="#5625E3"/>
<rect x="444.583" y="118.84" width="162.212" height="162.212" transform="rotate(90 444.583 118.84)" fill="#6C3BFD"/>
<circle cx="48.7458" cy="368.635" r="167.114" fill="#5625E3"/>
<circle cx="142.082" cy="267.777" r="73.7751" fill="#6C38FF"/>
</g>
</g>
</g>
<path opacity="0.7" d="M0 0.000488281H388V388H0V0.000488281Z" fill="#6C38FF"/>
<path d="M29.0023 275.308V338.427H71.021V327.606H40.9046V312.007H67.9553V301.187H40.9046V286.129H70.48V275.308H29.0023ZM78.7537 275.308V338.427H90.656V315.343H104.722C116.354 315.343 124.92 307.408 124.92 295.326C124.92 283.243 116.625 275.308 104.722 275.308H78.7537ZM90.656 286.129H103.55C109.231 286.129 113.018 289.735 113.018 295.326C113.018 300.916 109.231 304.523 103.55 304.523H90.656V286.129ZM153.014 299.474V314.261C153.014 330.852 162.752 339.689 177.179 339.689C191.606 339.689 201.344 330.852 201.344 314.261V299.474C201.344 283.423 191.606 274.046 177.179 274.046C162.752 274.046 153.014 283.423 153.014 299.474ZM164.916 298.933C164.916 290.547 169.424 284.686 177.179 284.686C184.663 284.686 189.442 290.186 189.442 298.933V314.802C189.442 323.368 185.655 329.049 177.179 329.049C168.973 329.049 164.916 323.729 164.916 314.802V298.933ZM207.449 275.308V286.129H236.032L220.433 298.933V309.572H231.434C237.475 309.572 241.713 312.548 241.713 318.589C241.713 324.631 237.295 329.049 229.811 329.049C221.786 329.049 217.548 324 217.548 317.868V315.704H205.645V318.229C205.645 330.762 214.753 339.689 229.811 339.689C243.877 339.689 253.615 331.393 253.615 318.589C253.615 307.138 245.771 301.097 237.024 301.097H234.68V300.015L252.173 285.768V275.308H207.449Z" fill="white"/>
<path d="M31.4481 225.012V247.075H34.0326V238.029H39.8004C43.7087 238.029 46.6399 235.539 46.6399 231.505C46.6399 227.502 43.7717 225.012 39.8004 225.012H31.4481ZM34.0326 227.376H39.5168C42.448 227.376 44.0554 228.857 44.0554 231.505C44.0554 234.184 42.3849 235.665 39.5168 235.665H34.0326V227.376ZM54.718 233.585V238.502C54.718 244.269 57.9643 247.516 63.2279 247.516C68.4914 247.516 71.7378 244.269 71.7378 238.502V233.585C71.7378 227.817 68.3968 224.571 63.2279 224.571C57.9643 224.571 54.718 227.817 54.718 233.585ZM57.3025 233.49C57.3025 229.33 59.3511 226.934 63.2279 226.934C67.1046 226.934 69.1533 229.33 69.1533 233.49V238.596C69.1533 242.757 67.1046 245.152 63.2279 245.152C59.3511 245.152 57.3025 242.757 57.3025 238.596V233.49ZM81.3137 225.012V247.075H87.9956C93.6058 247.075 96.9152 244.332 96.9152 238.407V233.679C96.9152 227.754 93.6058 225.012 87.9956 225.012H81.3137ZM83.8982 227.376H87.9325C92.1875 227.376 94.3307 229.109 94.3307 233.648V238.439C94.3307 242.977 92.219 244.711 87.9325 244.711H83.8982V227.376ZM105.784 233.711V238.376C105.784 244.175 108.967 247.516 114.388 247.516C119.494 247.516 122.489 244.459 122.489 239.573V239.069H119.904V239.573C119.904 242.977 118.202 245.152 114.388 245.152C110.543 245.152 108.368 242.725 108.368 238.47V233.616C108.368 229.361 110.543 226.934 114.388 226.934C118.076 226.934 119.904 229.141 119.904 232.576V233.017H122.489V232.482C122.489 227.722 119.62 224.571 114.388 224.571C109.03 224.571 105.784 227.911 105.784 233.711ZM136.785 225.012L129.536 247.075H132.31L134.075 241.496H143.498L145.263 247.075H148.037L140.788 225.012H136.785ZM134.799 239.163L138.582 227.344H138.96L142.742 239.163H134.799ZM163.621 224.571C159.523 224.571 156.308 226.934 156.308 230.559C156.308 234.467 158.988 235.917 162.77 236.768L164.535 237.178C167.434 237.808 169.073 238.785 169.073 241.118C169.073 243.45 167.151 245.183 163.936 245.183C160.122 245.183 157.884 243.198 157.884 239.258V238.502H155.3V239.447C155.3 244.459 158.546 247.516 163.904 247.516C168.38 247.516 171.658 245.026 171.658 241.055C171.658 237.367 169.199 235.665 165.291 234.814L163.558 234.404C160.437 233.679 158.893 232.828 158.893 230.527C158.893 228.29 160.973 226.903 163.621 226.903C166.646 226.903 169.01 228.447 169.01 231.536V232.513H171.595V231.347C171.595 226.934 168.128 224.571 163.621 224.571ZM179.065 225.012V227.376H186.409V247.075H188.993V227.376H196.369V225.012H179.065Z" fill="white"/>
<ellipse cx="324.46" cy="64.528" rx="37.5401" ry="38.528" fill="#14142B"/>
<rect x="302.369" y="56.3342" width="5.47202" height="16.5893" rx="2.73601" fill="white"/>
<rect x="312.047" y="47.7662" width="5.47202" height="33.3212" rx="2.73601" fill="white"/>
<rect x="321.724" y="41.494" width="5.47202" height="45.8658" rx="2.73601" fill="white"/>
<rect width="5.47202" height="16.5893" rx="2.73601" transform="matrix(-1 0 0 1 346.55 56.5363)" fill="white"/>
<rect width="5.47202" height="33.3212" rx="2.73601" transform="matrix(-1 0 0 1 336.872 47.9683)" fill="white"/>
<rect width="5.47202" height="45.8658" rx="2.73601" transform="matrix(-1 0 0 1 327.196 41.6961)" fill="white"/>
<defs>
<filter id="filter0_d" x="-19.1268" y="-12.2958" width="426.254" height="426.254" filterUnits="userSpaceOnUse" color-interpolation-filters="sRGB">
<feFlood flood-opacity="0" result="BackgroundImageFix"/>
<feColorMatrix in="SourceAlpha" type="matrix" values="0 0 0 0 0 0 0 0 0 0 0 0 0 0 0 0 0 0 127 0"/>
<feOffset dy="6.83099"/>
<feGaussianBlur stdDeviation="9.56338"/>
<feColorMatrix type="matrix" values="0 0 0 0 0.0323264 0 0 0 0 0.0598209 0 0 0 0 0.204167 0 0 0 0.04 0"/>
<feBlend mode="normal" in2="BackgroundImageFix" result="effect1_dropShadow"/>
<feBlend mode="normal" in="SourceGraphic" in2="effect1_dropShadow" result="shape"/>
</filter>
</defs>
</svg>
