<svg width="22" height="22" viewBox="0 0 22 22" fill="none" xmlns="http://www.w3.org/2000/svg">
<path fill-rule="evenodd" clip-rule="evenodd" d="M19.9974 0.646484H1.16853C0.522974 0.646484 0 1.16946 0 1.81502V20.6447C0 21.2894 0.522974 21.8124 1.16853 21.8124H11.3061V13.6159H8.5475V10.4216H11.3061V8.06602C11.3061 5.33209 12.9756 3.84342 15.415 3.84342C16.5835 3.84342 17.5871 3.93073 17.8799 3.96953V6.82693L16.1884 6.82781C14.862 6.82781 14.6054 7.45838 14.6054 8.38262V10.4225H17.7688L17.3569 13.6168H14.6054V21.8124H19.9991C20.6429 21.8124 21.1659 21.2894 21.1659 20.6439V1.81502C21.1659 1.16946 20.6429 0.646484 19.9974 0.646484Z" fill="#1877F2"/>
</svg>
