<svg width="389" height="388" viewBox="0 0 389 388" fill="none" xmlns="http://www.w3.org/2000/svg">
<mask id="mask0" mask-type="alpha" maskUnits="userSpaceOnUse" x="0" y="0" width="389" height="388">
<path d="M0 0H389V388H0V0Z" fill="#FEDB01"/>
</mask>
<g mask="url(#mask0)">
<rect width="389" height="388" fill="#FF8754"/>
<ellipse rx="205.21" ry="205.078" transform="matrix(-0.866304 0.499518 -0.500482 -0.865747 108.588 167.309)" fill="#FFBB54"/>
<ellipse rx="205.21" ry="205.078" transform="matrix(-0.866304 0.499518 -0.500482 -0.865747 -58.559 263.688)" fill="#FFD341"/>
<path d="M57.75 301.736C57.7499 360.645 81.1816 417.142 122.89 458.797C164.599 500.452 221.168 523.853 280.153 523.853C339.138 523.853 395.707 500.452 437.415 458.797C479.124 417.142 502.556 360.646 502.556 301.737L280.153 301.736L57.75 301.736Z" fill="#FF8754"/>
<ellipse cx="375.779" cy="301.737" rx="126.776" ry="126.613" fill="#FFDA54"/>
<g filter="url(#filter0_d)">
<mask id="mask1" mask-type="alpha" maskUnits="userSpaceOnUse" x="0" y="0" width="389" height="388">
<rect y="388" width="388" height="389" transform="rotate(-90 0 388)" fill="#FEDB01"/>
</mask>
<g mask="url(#mask1)">
<rect y="388" width="388" height="388" transform="rotate(-90 0 388)" fill="#179EFF"/>
<ellipse rx="204.813" ry="204.945" transform="matrix(0.500482 0.865747 -0.866304 0.499518 167.808 279.691)" fill="#0563EE"/>
<ellipse rx="204.813" ry="204.945" transform="matrix(0.500482 0.865747 -0.866304 0.499518 264.186 446.408)" fill="#179EFF"/>
<path d="M302.235 330.398C361.144 330.398 417.64 307.027 459.295 265.425C500.95 223.824 524.352 167.401 524.352 108.567C524.352 49.7343 500.95 -6.68921 459.295 -48.2905C417.64 -89.8919 361.144 -113.263 302.235 -113.263L302.235 108.567L302.235 330.398Z" fill="#66BFFF"/>
<ellipse cx="302.236" cy="13.1877" rx="126.45" ry="126.612" transform="rotate(-90 302.236 13.1877)" fill="#04BCF6"/>
</g>
</g>
</g>
<path opacity="0.81" d="M0 0.000488281H389V388H0V0.000488281Z" fill="#179EFF"/>
<path d="M29.5335 275.308V338.427H71.5523V327.606H41.4358V312.007H68.4865V301.187H41.4358V286.128H71.0113V275.308H29.5335ZM79.285 275.308V338.427H91.1873V315.343H105.254C116.885 315.343 125.452 307.408 125.452 295.326C125.452 283.243 117.156 275.308 105.254 275.308H79.285ZM91.1873 286.128H104.081C109.762 286.128 113.549 289.735 113.549 295.326C113.549 300.916 109.762 304.523 104.081 304.523H91.1873V286.128ZM153.545 299.473V314.261C153.545 330.852 163.283 339.689 177.71 339.689C192.137 339.689 201.875 330.852 201.875 314.261V299.473C201.875 283.423 192.137 274.046 177.71 274.046C163.283 274.046 153.545 283.423 153.545 299.473ZM165.447 298.932C165.447 290.547 169.956 284.686 177.71 284.686C185.194 284.686 189.973 290.186 189.973 298.932V314.802C189.973 323.368 186.186 329.049 177.71 329.049C169.505 329.049 165.447 323.729 165.447 314.802V298.932ZM208.701 275.308V310.294H224.301C225.293 308.31 227.637 305.966 232.236 305.966C237.916 305.966 242.064 309.843 242.064 316.515C242.064 324.18 237.556 329.049 230.162 329.049C222.587 329.049 218.44 324.18 218.44 316.966V316.065H206.537V317.688C206.537 331.033 216.276 339.689 230.522 339.689C244.499 339.689 253.966 330.221 253.966 315.974C253.966 303.351 245.13 295.867 235.301 295.867C226.825 295.867 223.399 300.105 221.686 302.539H220.604V286.128H251.622V275.308H208.701Z" fill="white"/>
<path d="M31.9862 225.012V247.074H34.5707V238.029H40.3385C44.2468 238.029 47.178 235.539 47.178 231.504C47.178 227.502 44.3098 225.012 40.3385 225.012H31.9862ZM34.5707 227.376H40.0549C42.986 227.376 44.5935 228.857 44.5935 231.504C44.5935 234.184 42.923 235.665 40.0549 235.665H34.5707V227.376ZM55.256 233.585V238.502C55.256 244.269 58.5024 247.516 63.766 247.516C69.0295 247.516 72.2759 244.269 72.2759 238.502V233.585C72.2759 227.817 68.9349 224.57 63.766 224.57C58.5024 224.57 55.256 227.817 55.256 233.585ZM57.8405 233.49C57.8405 229.33 59.8892 226.934 63.766 226.934C67.6427 226.934 69.6914 229.33 69.6914 233.49V238.596C69.6914 242.756 67.6427 245.152 63.766 245.152C59.8892 245.152 57.8405 242.756 57.8405 238.596V233.49ZM81.8518 225.012V247.074H88.5337C94.1439 247.074 97.4533 244.332 97.4533 238.407V233.679C97.4533 227.754 94.1439 225.012 88.5337 225.012H81.8518ZM84.4363 227.376H88.4706C92.7256 227.376 94.8688 229.109 94.8688 233.648V238.438C94.8688 242.977 92.7571 244.711 88.4706 244.711H84.4363V227.376ZM106.322 233.711V238.375C106.322 244.175 109.505 247.516 114.927 247.516C120.032 247.516 123.027 244.458 123.027 239.573V239.069H120.442V239.573C120.442 242.977 118.74 245.152 114.927 245.152C111.081 245.152 108.907 242.725 108.907 238.47V233.616C108.907 229.361 111.081 226.934 114.927 226.934C118.614 226.934 120.442 229.141 120.442 232.576V233.017H123.027V232.482C123.027 227.722 120.159 224.57 114.927 224.57C109.568 224.57 106.322 227.911 106.322 233.711ZM137.323 225.012L130.074 247.074H132.848L134.613 241.496H144.037L145.802 247.074H148.575L141.326 225.012H137.323ZM135.338 239.163L139.12 227.344H139.498L143.28 239.163H135.338ZM164.159 224.57C160.061 224.57 156.847 226.934 156.847 230.559C156.847 234.467 159.526 235.917 163.308 236.768L165.073 237.178C167.972 237.808 169.611 238.785 169.611 241.118C169.611 243.45 167.689 245.183 164.474 245.183C160.66 245.183 158.422 243.198 158.422 239.258V238.502H155.838V239.447C155.838 244.458 159.084 247.516 164.442 247.516C168.918 247.516 172.196 245.026 172.196 241.054C172.196 237.367 169.738 235.665 165.829 234.814L164.096 234.404C160.975 233.679 159.431 232.828 159.431 230.527C159.431 228.29 161.511 226.903 164.159 226.903C167.185 226.903 169.548 228.447 169.548 231.536V232.513H172.133V231.347C172.133 226.934 168.666 224.57 164.159 224.57ZM179.603 225.012V227.376H186.947V247.074H189.531V227.376H196.907V225.012H179.603Z" fill="white"/>
<ellipse cx="324.96" cy="64.528" rx="37.5401" ry="38.528" fill="#14142B"/>
<rect x="302.869" y="56.3341" width="5.47202" height="16.5893" rx="2.73601" fill="white"/>
<rect x="312.547" y="47.7662" width="5.47202" height="33.3212" rx="2.73601" fill="white"/>
<rect x="322.224" y="41.4939" width="5.47202" height="45.8658" rx="2.73601" fill="white"/>
<rect width="5.47202" height="16.5893" rx="2.73601" transform="matrix(-1 0 0 1 347.05 56.5363)" fill="white"/>
<rect width="5.47202" height="33.3212" rx="2.73601" transform="matrix(-1 0 0 1 337.372 47.9683)" fill="white"/>
<rect width="5.47202" height="45.8658" rx="2.73601" transform="matrix(-1 0 0 1 327.696 41.696)" fill="white"/>
<defs>
<filter id="filter0_d" x="-19.1021" y="-12.28" width="427.204" height="426.204" filterUnits="userSpaceOnUse" color-interpolation-filters="sRGB">
<feFlood flood-opacity="0" result="BackgroundImageFix"/>
<feColorMatrix in="SourceAlpha" type="matrix" values="0 0 0 0 0 0 0 0 0 0 0 0 0 0 0 0 0 0 127 0"/>
<feOffset dy="6.82218"/>
<feGaussianBlur stdDeviation="9.55106"/>
<feColorMatrix type="matrix" values="0 0 0 0 0.0323264 0 0 0 0 0.0598209 0 0 0 0 0.204167 0 0 0 0.04 0"/>
<feBlend mode="normal" in2="BackgroundImageFix" result="effect1_dropShadow"/>
<feBlend mode="normal" in="SourceGraphic" in2="effect1_dropShadow" result="shape"/>
</filter>
</defs>
</svg>
