<svg width="241" height="63" viewBox="0 0 241 63" fill="none" xmlns="http://www.w3.org/2000/svg">
<path d="M44.729 23.75V28.5976V30.5351V35.3827H48.7627V30.5351V28.5976V23.75H44.729Z" fill="#FAB908"/>
<path d="M32.6282 30.4753C33.742 30.4753 34.645 29.5802 34.645 28.4759C34.645 27.3717 33.742 26.4766 32.6282 26.4766C31.5143 26.4766 30.6113 27.3717 30.6113 28.4759C30.6113 29.5802 31.5143 30.4753 32.6282 30.4753Z" fill="#0066D9"/>
<path d="M32.6282 32.656C33.742 32.656 34.645 31.7608 34.645 30.6566C34.645 29.5524 33.742 28.6572 32.6282 28.6572C31.5143 28.6572 30.6113 29.5524 30.6113 30.6566C30.6113 31.7608 31.5143 32.656 32.6282 32.656Z" fill="#0066D9"/>
<path d="M34.645 28.4756H30.6113V30.6567H34.645V28.4756Z" fill="#0066D9"/>
<path d="M60.864 32.656C61.9779 32.656 62.8809 31.7608 62.8809 30.6566C62.8809 29.5524 61.9779 28.6572 60.864 28.6572C59.7501 28.6572 58.8472 29.5524 58.8472 30.6566C58.8472 31.7608 59.7501 32.656 60.864 32.656Z" fill="#4285F4"/>
<path d="M60.864 30.4753C61.9779 30.4753 62.8809 29.5802 62.8809 28.4759C62.8809 27.3717 61.9779 26.4766 60.864 26.4766C59.7501 26.4766 58.8472 27.3717 58.8472 28.4759C58.8472 29.5802 59.7501 30.4753 60.864 30.4753Z" fill="#4285F4"/>
<path d="M58.8467 30.6572H62.8804V28.4761H58.8467V30.6572Z" fill="#4285F4"/>
<path d="M39.5954 37.0183C40.7093 37.0183 41.6122 36.1231 41.6122 35.0189C41.6122 33.9147 40.7093 33.0195 39.5954 33.0195C38.4816 33.0195 37.5786 33.9147 37.5786 35.0189C37.5786 36.1231 38.4816 37.0183 39.5954 37.0183Z" fill="#EA4335"/>
<path d="M39.5954 39.1999C40.7093 39.1999 41.6122 38.3048 41.6122 37.2006C41.6122 36.0963 40.7093 35.2012 39.5954 35.2012C38.4816 35.2012 37.5786 36.0963 37.5786 37.2006C37.5786 38.3048 38.4816 39.1999 39.5954 39.1999Z" fill="#EA4335"/>
<path d="M41.6122 35.0195H37.5786V37.2007H41.6122V35.0195Z" fill="#EA4335"/>
<path d="M39.5954 23.9314C40.7093 23.9314 41.6122 23.0362 41.6122 21.932C41.6122 20.8278 40.7093 19.9326 39.5954 19.9326C38.4816 19.9326 37.5786 20.8278 37.5786 21.932C37.5786 23.0362 38.4816 23.9314 39.5954 23.9314Z" fill="#EA4335"/>
<path d="M39.5954 31.0202C40.7093 31.0202 41.6122 30.1251 41.6122 29.0209C41.6122 27.9166 40.7093 27.0215 39.5954 27.0215C38.4816 27.0215 37.5786 27.9166 37.5786 29.0209C37.5786 30.1251 38.4816 31.0202 39.5954 31.0202Z" fill="#EA4335"/>
<path d="M41.6122 21.9316H37.5786V29.0658H41.6122V21.9316Z" fill="#EA4335"/>
<path d="M53.8967 26.113C55.0106 26.113 55.9135 25.2179 55.9135 24.1136C55.9135 23.0094 55.0106 22.1143 53.8967 22.1143C52.7828 22.1143 51.8799 23.0094 51.8799 24.1136C51.8799 25.2179 52.7828 26.113 53.8967 26.113Z" fill="#34A853"/>
<path d="M53.8967 23.9314C55.0106 23.9314 55.9135 23.0362 55.9135 21.932C55.9135 20.8278 55.0106 19.9326 53.8967 19.9326C52.7828 19.9326 51.8799 20.8278 51.8799 21.932C51.8799 23.0362 52.7828 23.9314 53.8967 23.9314Z" fill="#34A853"/>
<path d="M51.8799 24.1133H55.9136V21.9321H51.8799V24.1133Z" fill="#34A853"/>
<path d="M46.7458 19.7517C47.8597 19.7517 48.7627 18.8565 48.7627 17.7523C48.7627 16.6481 47.8597 15.7529 46.7458 15.7529C45.632 15.7529 44.729 16.6481 44.729 17.7523C44.729 18.8565 45.632 19.7517 46.7458 19.7517Z" fill="#FAB908"/>
<path d="M46.7458 17.57C47.8597 17.57 48.7627 16.6749 48.7627 15.5707C48.7627 14.4664 47.8597 13.5713 46.7458 13.5713C45.632 13.5713 44.729 14.4664 44.729 15.5707C44.729 16.6749 45.632 17.57 46.7458 17.57Z" fill="#FAB908"/>
<path d="M44.729 17.752H48.7627V15.5708H44.729V17.752Z" fill="#FAB908"/>
<path d="M46.7458 45.5613C47.8597 45.5613 48.7627 44.6661 48.7627 43.5619C48.7627 42.4577 47.8597 41.5625 46.7458 41.5625C45.632 41.5625 44.729 42.4577 44.729 43.5619C44.729 44.6661 45.632 45.5613 46.7458 45.5613Z" fill="#FAB908"/>
<path d="M46.7458 43.3806C47.8597 43.3806 48.7627 42.4854 48.7627 41.3812C48.7627 40.277 47.8597 39.3818 46.7458 39.3818C45.632 39.3818 44.729 40.277 44.729 41.3812C44.729 42.4854 45.632 43.3806 46.7458 43.3806Z" fill="#FAB908"/>
<path d="M44.729 43.5615H48.7627V41.3804H44.729V43.5615Z" fill="#FAB908"/>
<path d="M53.8967 39.1999C55.0106 39.1999 55.9135 38.3048 55.9135 37.2006C55.9135 36.0963 55.0106 35.2012 53.8967 35.2012C52.7828 35.2012 51.8799 36.0963 51.8799 37.2006C51.8799 38.3048 52.7828 39.1999 53.8967 39.1999Z" fill="#34A853"/>
<path d="M53.8967 32.111C55.0106 32.111 55.9135 31.2159 55.9135 30.1117C55.9135 29.0075 55.0106 28.1123 53.8967 28.1123C52.7828 28.1123 51.8799 29.0075 51.8799 30.1117C51.8799 31.2159 52.7828 32.111 53.8967 32.111Z" fill="#34A853"/>
<path d="M51.8799 37.2002H55.9136V30.1115H51.8799V37.2002Z" fill="#34A853"/>
<path d="M46.7458 25.7497C47.8597 25.7497 48.7627 24.8546 48.7627 23.7503C48.7627 22.6461 47.8597 21.751 46.7458 21.751C45.632 21.751 44.729 22.6461 44.729 23.7503C44.729 24.8546 45.632 25.7497 46.7458 25.7497Z" fill="#FAB908"/>
<path d="M46.7458 37.3825C47.8597 37.3825 48.7627 36.4874 48.7627 35.3832C48.7627 34.2789 47.8597 33.3838 46.7458 33.3838C45.632 33.3838 44.729 34.2789 44.729 35.3832C44.729 36.4874 45.632 37.3825 46.7458 37.3825Z" fill="#FAB908"/>
<path fill-rule="evenodd" clip-rule="evenodd" d="M139.03 43.3801H137.351V30.4238H141.804C142.912 30.4238 143.87 30.7887 144.679 31.5186C145.489 32.2484 145.893 33.1683 145.893 34.2781C145.893 35.388 145.489 36.3078 144.679 37.0377C143.87 37.7675 142.912 38.1324 141.804 38.1324H139.03V43.3801ZM139.03 36.54H141.841C142.547 36.54 143.113 36.3048 143.538 35.8343C143.964 35.3639 144.177 34.8451 144.177 34.2781C144.177 33.7111 143.964 33.1924 143.538 32.7219C143.113 32.2515 142.547 32.0162 141.841 32.0162H139.03V36.54ZM147.286 35.581C148.15 34.6762 149.251 34.2238 150.589 34.2238C151.928 34.2238 153.029 34.6732 153.893 35.5719C154.757 36.4707 155.189 37.5956 155.189 38.9467C155.189 40.2979 154.757 41.4228 153.893 42.3215C153.029 43.2202 151.928 43.6696 150.589 43.6696C149.251 43.6696 148.15 43.2202 147.286 42.3215C146.422 41.4228 145.99 40.2979 145.99 38.9467C145.99 37.5956 146.422 36.4737 147.286 35.581ZM148.527 41.281C149.111 41.8601 149.798 42.1496 150.589 42.1496C151.38 42.1496 152.065 41.8571 152.643 41.272C153.221 40.6869 153.51 39.9118 153.51 38.9467C153.51 37.9816 153.221 37.2066 152.643 36.6215C152.065 36.0364 151.38 35.7439 150.589 35.7439C149.798 35.7439 149.114 36.0364 148.536 36.6215C147.958 37.2066 147.669 37.9816 147.669 38.9467C147.669 39.9118 147.955 40.6899 148.527 41.281ZM160.251 43.6696C159.095 43.6696 158.097 43.2172 157.257 42.3125C156.417 41.4077 155.998 40.2858 155.998 38.9467C155.998 37.6077 156.417 36.4858 157.257 35.581C158.097 34.6762 159.095 34.2238 160.251 34.2238C160.932 34.2238 161.544 34.3686 162.085 34.6581C162.627 34.9477 163.031 35.3096 163.299 35.7439H163.372L163.299 34.5134V30.4238H164.978V43.3801H163.372V42.1496H163.299C163.031 42.5839 162.627 42.9458 162.085 43.2353C161.544 43.5248 160.932 43.6696 160.251 43.6696ZM160.524 42.1496C161.315 42.1496 161.988 41.8601 162.541 41.281C163.095 40.702 163.372 39.9239 163.372 38.9467C163.372 37.9696 163.095 37.1915 162.541 36.6124C161.988 36.0334 161.315 35.7439 160.524 35.7439C159.746 35.7439 159.076 36.0364 158.517 36.6215C157.957 37.2066 157.677 37.9816 157.677 38.9467C157.677 39.9118 157.957 40.6869 158.517 41.272C159.076 41.8571 159.746 42.1496 160.524 42.1496ZM170.806 43.6696C169.468 43.6696 168.366 43.2202 167.502 42.3215C166.638 41.4228 166.206 40.2979 166.206 38.9467C166.206 37.5956 166.638 36.4707 167.502 35.5719C168.366 34.6732 169.468 34.2238 170.806 34.2238C171.804 34.2238 172.632 34.4651 173.289 34.9477C173.946 35.4302 174.426 36.0394 174.731 36.7753L173.197 37.4086C172.735 36.2988 171.901 35.7439 170.697 35.7439C169.954 35.7439 169.3 36.0454 168.734 36.6486C168.169 37.2518 167.886 38.0178 167.886 38.9467C167.886 39.8756 168.169 40.6417 168.734 41.2448C169.3 41.848 169.954 42.1496 170.697 42.1496C171.95 42.1496 172.814 41.5947 173.289 40.4848L174.785 41.1182C174.481 41.842 173.991 42.4482 173.316 42.9367C172.641 43.4253 171.804 43.6696 170.806 43.6696ZM178.77 43.6696C177.821 43.6696 177.027 43.3982 176.388 42.8553C175.749 42.3125 175.429 41.5947 175.429 40.702C175.429 39.7369 175.807 38.9799 176.561 38.431C177.316 37.8821 178.247 37.6077 179.354 37.6077C180.34 37.6077 181.149 37.7886 181.782 38.1505V37.8972C181.782 37.2458 181.557 36.724 181.106 36.332C180.656 35.9399 180.102 35.7439 179.445 35.7439C178.958 35.7439 178.517 35.8585 178.122 36.0877C177.726 36.3169 177.456 36.6305 177.31 37.0286L175.776 36.3772C175.983 35.8464 176.391 35.3548 176.999 34.9024C177.608 34.45 178.411 34.2238 179.409 34.2238C180.553 34.2238 181.502 34.5556 182.256 35.2191C183.011 35.8826 183.388 36.8175 183.388 38.0239V43.3801H181.782V42.1496H181.709C181.039 43.1629 180.06 43.6696 178.77 43.6696ZM179.044 42.1496C179.737 42.1496 180.367 41.8933 180.933 41.3805C181.499 40.8678 181.782 40.2617 181.782 39.562C181.307 39.1759 180.595 38.9829 179.646 38.9829C178.831 38.9829 178.216 39.1578 177.802 39.5077C177.389 39.8575 177.182 40.2677 177.182 40.7382C177.182 41.1725 177.37 41.5163 177.748 41.7696C178.125 42.0229 178.557 42.1496 179.044 42.1496ZM188.303 43.6696C187.305 43.6696 186.481 43.4283 185.83 42.9458C185.179 42.4633 184.701 41.8601 184.397 41.1363L185.894 40.521C186.368 41.6309 187.178 42.1858 188.321 42.1858C188.845 42.1858 189.274 42.0712 189.608 41.842C189.943 41.6128 190.11 41.3112 190.11 40.9372C190.11 40.3582 189.703 39.9661 188.887 39.761L187.08 39.3267C186.508 39.182 185.967 38.9075 185.456 38.5034C184.945 38.0993 184.689 37.5534 184.689 36.8658C184.689 36.0816 185.039 35.4453 185.739 34.9567C186.438 34.4681 187.269 34.2238 188.23 34.2238C189.021 34.2238 189.727 34.4018 190.348 34.7577C190.968 35.1135 191.412 35.6232 191.68 36.2867L190.22 36.8839C189.891 36.0997 189.21 35.7077 188.175 35.7077C187.677 35.7077 187.257 35.8102 186.916 36.0153C186.575 36.2204 186.405 36.4978 186.405 36.8477C186.405 37.3543 186.8 37.6981 187.591 37.8791L189.362 38.2953C190.202 38.4883 190.822 38.8201 191.224 39.2905C191.625 39.761 191.826 40.2918 191.826 40.8829C191.826 41.6791 191.498 42.3426 190.84 42.8734C190.183 43.4042 189.338 43.6696 188.303 43.6696ZM196.851 43.5248C195.914 43.5248 195.199 43.2775 194.706 42.7829C194.213 42.2883 193.967 41.5887 193.967 40.6839V36.0334H192.397V34.5134H193.967V31.7991H195.646V34.5134H197.837V36.0334H195.646V40.5572C195.646 41.5223 196.048 42.0048 196.851 42.0048C197.155 42.0048 197.411 41.9566 197.618 41.8601L198.202 43.2896C197.837 43.4464 197.386 43.5248 196.851 43.5248ZM202.734 43.6696C201.736 43.6696 200.911 43.4283 200.26 42.9458C199.609 42.4633 199.132 41.8601 198.827 41.1363L200.324 40.521C200.799 41.6309 201.608 42.1858 202.752 42.1858C203.275 42.1858 203.704 42.0712 204.039 41.842C204.373 41.6128 204.541 41.3112 204.541 40.9372C204.541 40.3582 204.133 39.9661 203.318 39.761L201.511 39.3267C200.939 39.182 200.397 38.9075 199.886 38.5034C199.375 38.0993 199.12 37.5534 199.12 36.8658C199.12 36.0816 199.469 35.4453 200.169 34.9567C200.869 34.4681 201.699 34.2238 202.661 34.2238C203.452 34.2238 204.157 34.4018 204.778 34.7577C205.399 35.1135 205.843 35.6232 206.111 36.2867L204.65 36.8839C204.322 36.0997 203.64 35.7077 202.606 35.7077C202.107 35.7077 201.687 35.8102 201.346 36.0153C201.006 36.2204 200.835 36.4978 200.835 36.8477C200.835 37.3543 201.231 37.6981 202.022 37.8791L203.792 38.2953C204.632 38.4883 205.253 38.8201 205.654 39.2905C206.056 39.761 206.257 40.2918 206.257 40.8829C206.257 41.6791 205.928 42.3426 205.271 42.8734C204.614 43.4042 203.768 43.6696 202.734 43.6696Z" fill="white"/>
<path d="M73.5767 36.2422C73.5767 32.1425 77.0419 28.8203 81.1775 28.8203C83.4592 28.8203 85.0848 29.7109 86.3112 30.8702L84.8567 32.298C83.9868 31.4781 82.8032 30.8419 81.1775 30.8419C78.1685 30.8419 75.8156 33.2452 75.8156 36.2281C75.8156 39.211 78.1685 41.6143 81.1775 41.6143C83.1312 41.6143 84.2435 40.8368 84.9565 40.1299C85.5412 39.5503 85.9262 38.7162 86.0688 37.5852H81.1775V35.5637H88.0653C88.1366 35.9312 88.1794 36.3553 88.1794 36.836C88.1794 38.3628 87.7658 40.243 86.4111 41.5719C85.0848 42.929 83.4021 43.65 81.1775 43.65C77.0419 43.65 73.5767 40.3278 73.5767 36.2422ZM93.6696 34.1924C96.3363 34.1924 98.5039 36.1998 98.5039 38.9707C98.5039 41.7274 96.3363 43.749 93.6696 43.749C91.0029 43.749 88.8353 41.7274 88.8353 38.9707C88.8353 36.1998 91.0029 34.1924 93.6696 34.1924ZM93.6696 41.8546C95.1242 41.8546 96.3934 40.6671 96.3934 38.9565C96.3934 37.2318 95.1242 36.0584 93.6696 36.0584C92.2008 36.0584 90.9459 37.2318 90.9459 38.9565C90.9459 40.6671 92.2151 41.8546 93.6696 41.8546ZM104.222 34.1924C106.889 34.1924 109.057 36.1998 109.057 38.9707C109.057 41.7274 106.889 43.749 104.222 43.749C101.556 43.749 99.3881 41.7274 99.3881 38.9707C99.3881 36.1998 101.556 34.1924 104.222 34.1924ZM104.222 41.8546C105.677 41.8546 106.946 40.6671 106.946 38.9565C106.946 37.2318 105.691 36.0584 104.222 36.0584C102.754 36.0584 101.499 37.2318 101.499 38.9565C101.499 40.6671 102.768 41.8546 104.222 41.8546ZM117.171 34.3479H119.196V42.929C119.196 46.4633 117.1 47.9052 114.618 47.9052C112.28 47.9052 110.868 46.3502 110.34 45.0778L112.18 44.3144C112.508 45.092 113.306 46.0109 114.604 46.0109C116.187 46.0109 117.171 45.0354 117.171 43.2118V42.5191H117.1C116.629 43.0987 115.716 43.6076 114.561 43.6076C112.151 43.6076 109.941 41.5153 109.941 38.8434C109.941 36.1433 112.151 34.051 114.561 34.051C115.716 34.051 116.629 34.5599 117.1 35.1254H117.171V34.3479ZM114.747 41.7274C116.187 41.7274 117.328 40.5257 117.313 38.8434C117.313 37.1611 116.187 35.9312 114.747 35.9312C113.292 35.9312 112.066 37.1611 112.066 38.8434C112.066 40.5116 113.292 41.7274 114.747 41.7274ZM120.636 43.4238V29.3858H122.747V43.4238H120.636ZM128.551 41.8546C129.634 41.8546 130.376 41.3315 130.932 40.5399L132.572 41.6284C132.03 42.406 130.761 43.749 128.551 43.749C125.813 43.749 123.773 41.6426 123.773 38.9707C123.773 36.1291 125.841 34.1924 128.323 34.1924C130.818 34.1924 132.045 36.1574 132.444 37.2318L132.658 37.769L126.212 40.4126C126.711 41.3598 127.467 41.8546 128.551 41.8546ZM128.394 36.0302C127.31 36.0302 125.813 36.9774 125.87 38.8152L130.176 37.048C129.948 36.4401 129.235 36.0302 128.394 36.0302Z" fill="white"/>
<path fill-rule="evenodd" clip-rule="evenodd" d="M75.4814 22.7468H79.929V23.7501H74.2373V14.4462H75.4814V22.7468ZM82.7793 23.7501H81.5869V16.836H82.7793V23.7501ZM81.4902 15.0021C81.4902 14.8104 81.5493 14.6485 81.6674 14.5165C81.7856 14.3844 81.9607 14.3184 82.1928 14.3184C82.4248 14.3184 82.601 14.3844 82.7213 14.5165C82.8417 14.6485 82.9018 14.8104 82.9018 15.0021C82.9018 15.1938 82.8417 15.3535 82.7213 15.4813C82.601 15.6091 82.4248 15.673 82.1928 15.673C81.9607 15.673 81.7856 15.6091 81.6674 15.4813C81.5493 15.3535 81.4902 15.1938 81.4902 15.0021ZM89.0782 21.9161C89.0782 21.5966 88.9568 21.3485 88.714 21.1717C88.4712 20.9949 88.048 20.8426 87.4442 20.7148C86.8404 20.587 86.3613 20.4336 86.0068 20.2547C85.6523 20.0758 85.3901 19.8628 85.2204 19.6157C85.0506 19.3686 84.9658 19.0747 84.9658 18.7339C84.9658 18.1673 85.2075 17.688 85.6909 17.2961C86.1744 16.9042 86.7921 16.7082 87.5441 16.7082C88.3348 16.7082 88.9762 16.9106 89.4682 17.3153C89.9602 17.72 90.2063 18.2376 90.2063 18.8681H89.0073C89.0073 18.5443 88.8687 18.2653 88.5916 18.031C88.3144 17.7967 87.9653 17.6795 87.5441 17.6795C87.1101 17.6795 86.7706 17.7732 86.5257 17.9607C86.2807 18.1481 86.1583 18.3931 86.1583 18.6955C86.1583 18.981 86.2721 19.1961 86.4999 19.3409C86.7276 19.4858 87.1391 19.6242 87.7343 19.7563C88.3294 19.8883 88.8118 20.046 89.1814 20.2291C89.5509 20.4123 89.8249 20.6328 90.0032 20.8905C90.1815 21.1482 90.2707 21.4624 90.2707 21.833C90.2707 22.4508 90.0215 22.946 89.523 23.3187C89.0245 23.6915 88.3778 23.8779 87.5828 23.8779C87.0242 23.8779 86.53 23.7799 86.1003 23.5839C85.6705 23.388 85.3343 23.1142 85.0915 22.7628C84.8487 22.4113 84.7273 22.0311 84.7273 21.6222H85.9198C85.9413 22.0184 86.1013 22.3325 86.4 22.5647C86.6986 22.7969 87.0929 22.913 87.5828 22.913C88.034 22.913 88.396 22.8224 88.6689 22.6414C88.9418 22.4603 89.0782 22.2186 89.0782 21.9161ZM93.7721 15.1618V16.836H95.0742V17.7498H93.7721V22.0375C93.7721 22.3144 93.8301 22.5221 93.9461 22.6606C94.0622 22.799 94.2598 22.8682 94.5392 22.8682C94.6767 22.8682 94.8657 22.8427 95.1064 22.7916V23.7501C94.7927 23.8353 94.4876 23.8779 94.1911 23.8779C93.6582 23.8779 93.2564 23.7181 92.9857 23.3986C92.715 23.0791 92.5796 22.6254 92.5796 22.0375V17.7498H91.3098V16.836H92.5796V15.1618H93.7721ZM99.6907 23.8779C98.7453 23.8779 97.9761 23.5701 97.3831 22.9545C96.79 22.3389 96.4935 21.5157 96.4935 20.4847V20.2675C96.4935 19.5816 96.6257 18.9692 96.89 18.4303C97.1542 17.8915 97.5238 17.4697 97.9986 17.1651C98.4735 16.8605 98.9881 16.7082 99.5424 16.7082C100.449 16.7082 101.154 17.0043 101.657 17.5964C102.159 18.1886 102.411 19.0363 102.411 20.1397V20.6317H97.686C97.7032 21.3133 97.9041 21.8639 98.2887 22.2835C98.6733 22.7032 99.1621 22.913 99.7551 22.913C100.176 22.913 100.533 22.8278 100.825 22.6574C101.117 22.487 101.373 22.2612 101.592 21.98L102.321 22.5423C101.736 23.4327 100.86 23.8779 99.6907 23.8779ZM99.5424 17.6795C99.0611 17.6795 98.6572 17.8531 98.3306 18.2003C98.004 18.5475 97.8021 19.0342 97.7247 19.6604H101.218V19.571C101.184 18.9703 101.021 18.5049 100.728 18.1747C100.436 17.8446 100.041 17.6795 99.5424 17.6795ZM105.248 16.836L105.287 17.7051C105.82 17.0405 106.516 16.7082 107.375 16.7082C108.849 16.7082 109.593 17.5325 109.606 19.1812V23.7501H108.413V19.1748C108.409 18.6764 108.294 18.3079 108.068 18.0693C107.843 17.8307 107.491 17.7115 107.014 17.7115C106.628 17.7115 106.288 17.8137 105.996 18.0182C105.704 18.2227 105.476 18.4911 105.313 18.8233V23.7501H104.12V16.836H105.248ZM115.016 20.2291C115.016 19.5518 115.151 18.9426 115.419 18.4016C115.688 17.8606 116.062 17.4431 116.541 17.1491C117.02 16.8552 117.567 16.7082 118.181 16.7082C119.131 16.7082 119.899 17.0341 120.486 17.6859C121.072 18.3377 121.365 19.2046 121.365 20.2867V20.3697C121.365 21.0428 121.236 21.6467 120.976 22.1813C120.716 22.7159 120.344 23.1324 119.86 23.4306C119.377 23.7288 118.822 23.8779 118.194 23.8779C117.249 23.8779 116.483 23.552 115.896 22.9002C115.31 22.2484 115.016 21.3857 115.016 20.3122V20.2291ZM116.215 20.3697C116.215 21.1365 116.395 21.7521 116.753 22.2164C117.112 22.6808 117.593 22.913 118.194 22.913C118.8 22.913 119.281 22.6776 119.638 22.2069C119.995 21.7361 120.173 21.0769 120.173 20.2291C120.173 19.4709 119.991 18.8564 119.628 18.3856C119.265 17.9149 118.783 17.6795 118.181 17.6795C117.593 17.6795 117.118 17.9117 116.757 18.376C116.396 18.8404 116.215 19.5049 116.215 20.3697ZM124.319 16.836L124.358 17.7051C124.891 17.0405 125.587 16.7082 126.446 16.7082C127.92 16.7082 128.663 17.5325 128.676 19.1812V23.7501H127.484V19.1748C127.48 18.6764 127.365 18.3079 127.139 18.0693C126.913 17.8307 126.562 17.7115 126.085 17.7115C125.698 17.7115 125.359 17.8137 125.067 18.0182C124.774 18.2227 124.547 18.4911 124.383 18.8233V23.7501H123.191V16.836H124.319Z" fill="#E2E3E9"/>
</svg>
