<svg width="24" height="20" viewBox="0 0 24 20" fill="none" xmlns="http://www.w3.org/2000/svg">
<path fill-rule="evenodd" clip-rule="evenodd" d="M23.2204 2.42505C22.3661 2.80725 21.4479 3.06464 20.4843 3.18066C21.4682 2.5869 22.2239 1.64605 22.5789 0.524821C21.6588 1.07471 20.6391 1.47445 19.5535 1.68992C18.6856 0.756866 17.4463 0.173828 16.0763 0.173828C13.0005 0.173828 10.7404 3.06562 11.4351 6.06758C7.47697 5.86771 3.96682 3.95675 1.61672 1.05228C0.368624 3.20991 0.969452 6.03248 3.09025 7.4618C2.31043 7.43645 1.57512 7.22098 0.933654 6.86121C0.881408 9.08514 2.4633 11.1657 4.75438 11.6289C4.08389 11.8122 3.34954 11.8551 2.60262 11.7108C3.20829 13.6178 4.96723 15.0052 7.0532 15.0442C5.05044 16.6266 2.52715 17.3335 0 17.0332C2.10822 18.3952 4.61312 19.1898 7.30281 19.1898C16.1479 19.1898 21.1451 11.662 20.8432 4.91028C21.774 4.23267 22.5818 3.38736 23.2204 2.42505Z" fill="#1DA1F2"/>
</svg>
