<svg width="21" height="21" viewBox="0 0 21 21" fill="none" xmlns="http://www.w3.org/2000/svg">
<path d="M10.3283 0.386719C6.09295 0.386719 4.85426 0.391088 4.61349 0.411062C3.74431 0.483311 3.20346 0.620162 2.61424 0.913527C2.16014 1.13901 1.80202 1.40039 1.44858 1.76678C0.804894 2.43497 0.414781 3.25701 0.27356 4.23417C0.2049 4.70854 0.184926 4.80529 0.180869 7.22836C0.179309 8.03605 0.180869 9.09903 0.180869 10.5248C0.180869 14.7568 0.185551 15.9942 0.205837 16.2345C0.276057 17.0803 0.408695 17.6124 0.689576 18.1944C1.22637 19.3086 2.25159 20.145 3.45938 20.4571C3.87758 20.5648 4.33947 20.624 4.93244 20.6521C5.18367 20.6631 7.74437 20.6709 10.3066 20.6709C12.8689 20.6709 15.4312 20.6677 15.6761 20.6553C16.3627 20.623 16.7614 20.5694 17.2023 20.4555C18.4179 20.1419 19.4243 19.3179 19.9721 18.1882C20.2475 17.6202 20.3871 17.0678 20.4503 16.2662C20.4641 16.0914 20.4698 13.3049 20.4698 10.5222C20.4698 7.73894 20.4636 4.95759 20.4499 4.78282C20.3859 3.96827 20.2462 3.42055 19.9619 2.84162C19.7286 2.36771 19.4696 2.0138 19.0935 1.65193C18.4224 1.0109 17.6016 0.620786 16.6235 0.479722C16.1496 0.411218 16.0552 0.390932 13.6302 0.386719H10.3283Z" fill="url(#paint0_radial)"/>
<path d="M10.3283 0.386719C6.09295 0.386719 4.85426 0.391088 4.61349 0.411062C3.74431 0.483311 3.20346 0.620162 2.61424 0.913527C2.16014 1.13901 1.80202 1.40039 1.44858 1.76678C0.804894 2.43497 0.414781 3.25701 0.27356 4.23417C0.2049 4.70854 0.184926 4.80529 0.180869 7.22836C0.179309 8.03605 0.180869 9.09903 0.180869 10.5248C0.180869 14.7568 0.185551 15.9942 0.205837 16.2345C0.276057 17.0803 0.408695 17.6124 0.689576 18.1944C1.22637 19.3086 2.25159 20.145 3.45938 20.4571C3.87758 20.5648 4.33947 20.624 4.93244 20.6521C5.18367 20.6631 7.74437 20.6709 10.3066 20.6709C12.8689 20.6709 15.4312 20.6677 15.6761 20.6553C16.3627 20.623 16.7614 20.5694 17.2023 20.4555C18.4179 20.1419 19.4243 19.3179 19.9721 18.1882C20.2475 17.6202 20.3871 17.0678 20.4503 16.2662C20.4641 16.0914 20.4698 13.3049 20.4698 10.5222C20.4698 7.73894 20.4636 4.95759 20.4499 4.78282C20.3859 3.96827 20.2462 3.42055 19.9619 2.84162C19.7286 2.36771 19.4696 2.0138 19.0935 1.65193C18.4224 1.0109 17.6016 0.620786 16.6235 0.479722C16.1496 0.411218 16.0552 0.390932 13.6302 0.386719H10.3283Z" fill="url(#paint1_radial)"/>
<path d="M10.3238 3.04004C8.28959 3.04004 8.0343 3.04893 7.23535 3.08529C6.43796 3.12181 5.89368 3.24805 5.41743 3.43327C4.92479 3.62458 4.5069 3.8805 4.09057 4.29698C3.67393 4.71331 3.41802 5.1312 3.22609 5.62368C3.04039 6.10008 2.914 6.64452 2.8781 7.4416C2.84237 8.24055 2.83301 8.496 2.83301 10.5302C2.83301 12.5644 2.84206 12.8189 2.87826 13.6179C2.91493 14.4153 3.04117 14.9595 3.22624 15.4358C3.41771 15.9284 3.67362 16.3463 4.09011 16.7626C4.50628 17.1793 4.92417 17.4358 5.41649 17.6271C5.89305 17.8124 6.43749 17.9386 7.23473 17.9751C8.03368 18.0115 8.28881 18.0204 10.3229 18.0204C12.3572 18.0204 12.6117 18.0115 13.4107 17.9751C14.2081 17.9386 14.753 17.8124 15.2295 17.6271C15.722 17.4358 16.1393 17.1793 16.5555 16.7626C16.9721 16.3463 17.228 15.9284 17.4199 15.4359C17.6041 14.9595 17.7305 14.4151 17.7679 13.618C17.8038 12.8191 17.8132 12.5644 17.8132 10.5302C17.8132 8.496 17.8038 8.24071 17.7679 7.44176C17.7305 6.64437 17.6041 6.10008 17.4199 5.62383C17.228 5.1312 16.9721 4.71331 16.5555 4.29698C16.1388 3.88034 15.7222 3.62443 15.2291 3.43327C14.7516 3.24805 14.207 3.12181 13.4096 3.08529C12.6106 3.04893 12.3563 3.04004 10.3215 3.04004H10.3238ZM9.65186 4.38983C9.85129 4.38952 10.0738 4.38983 10.3238 4.38983C12.3237 4.38983 12.5607 4.39701 13.3504 4.4329C14.0807 4.46629 14.4771 4.58832 14.7411 4.69084C15.0907 4.8266 15.3399 4.98889 15.6019 5.25104C15.864 5.5132 16.0263 5.76287 16.1624 6.11241C16.2649 6.37613 16.3871 6.77248 16.4203 7.50277C16.4562 8.29236 16.464 8.52955 16.464 10.5285C16.464 12.5274 16.4562 12.7646 16.4203 13.5542C16.3869 14.2845 16.2649 14.6808 16.1624 14.9446C16.0266 15.2941 15.864 15.543 15.6019 15.805C15.3397 16.0671 15.0908 16.2294 14.7411 16.3652C14.4774 16.4682 14.0807 16.5899 13.3504 16.6233C12.5609 16.6592 12.3237 16.667 10.3238 16.667C8.32376 16.667 8.08673 16.6592 7.29714 16.6233C6.56685 16.5896 6.1705 16.4676 5.90632 16.365C5.55677 16.2293 5.3071 16.067 5.04495 15.8048C4.78279 15.5427 4.6205 15.2936 4.48443 14.9439C4.38191 14.6802 4.25973 14.2839 4.22649 13.5536C4.1906 12.764 4.18342 12.5268 4.18342 10.5266C4.18342 8.52643 4.1906 8.29049 4.22649 7.5009C4.25988 6.77061 4.38191 6.37425 4.48443 6.11023C4.62019 5.76068 4.78279 5.51101 5.04495 5.24886C5.3071 4.9867 5.55677 4.82441 5.90632 4.68834C6.17034 4.58535 6.56685 4.46364 7.29714 4.43009C7.98811 4.39888 8.25589 4.38952 9.65186 4.38796V4.38983ZM14.322 5.63351C13.8258 5.63351 13.4232 6.03564 13.4232 6.53202C13.4232 7.02824 13.8258 7.43084 14.322 7.43084C14.8182 7.43084 15.2208 7.02824 15.2208 6.53202C15.2208 6.03579 14.8182 5.6332 14.322 5.6332V5.63351ZM10.3238 6.68369C8.19955 6.68369 6.47728 8.40596 6.47728 10.5302C6.47728 12.6544 8.19955 14.3759 10.3238 14.3759C12.448 14.3759 14.1697 12.6544 14.1697 10.5302C14.1697 8.40596 12.4479 6.68369 10.3236 6.68369H10.3238ZM10.3238 8.03348C11.7026 8.03348 12.8205 9.15123 12.8205 10.5302C12.8205 11.909 11.7026 13.0269 10.3238 13.0269C8.94482 13.0269 7.82707 11.909 7.82707 10.5302C7.82707 9.15123 8.94482 8.03348 10.3238 8.03348Z" fill="white"/>
<defs>
<radialGradient id="paint0_radial" cx="0" cy="0" r="1" gradientUnits="userSpaceOnUse" gradientTransform="translate(5.56965 22.2332) rotate(-90) scale(20.1031 18.7025)">
<stop stop-color="#FFDD55"/>
<stop offset="0.1" stop-color="#FFDD55"/>
<stop offset="0.5" stop-color="#FF543E"/>
<stop offset="1" stop-color="#C837AB"/>
</radialGradient>
<radialGradient id="paint1_radial" cx="0" cy="0" r="1" gradientUnits="userSpaceOnUse" gradientTransform="translate(-3.21845 1.84795) rotate(78.6776) scale(8.98625 37.0511)">
<stop stop-color="#3771C8"/>
<stop offset="0.128" stop-color="#3771C8"/>
<stop offset="1" stop-color="#6600FF" stop-opacity="0"/>
</radialGradient>
</defs>
</svg>
