<svg width="19" height="18" viewBox="0 0 19 18" fill="none" xmlns="http://www.w3.org/2000/svg">
<path d="M0.220215 2.60744C0.220215 2.02856 0.425283 1.551 0.835402 1.17475C1.24552 0.798477 1.77869 0.610352 2.43489 0.610352C3.07938 0.610352 3.60081 0.795577 3.99922 1.16606C4.40934 1.54811 4.61441 2.04593 4.61441 2.65954C4.61441 3.21525 4.41521 3.67833 4.0168 4.04882C3.60668 4.43087 3.06765 4.62189 2.39973 4.62189H2.38216C1.73767 4.62189 1.21624 4.43087 0.817825 4.04882C0.419412 3.66676 0.220215 3.1863 0.220215 2.60744ZM0.448713 17.8027V6.2022H4.35076V17.8027H0.448713ZM6.5127 17.8027H10.4147V11.3252C10.4147 10.9199 10.4616 10.6074 10.5554 10.3874C10.7194 9.99376 10.9684 9.66091 11.3024 9.38885C11.6363 9.11678 12.0552 8.98075 12.5591 8.98075C13.8715 8.98075 14.5277 9.85484 14.5277 11.603V17.8027H18.4297V11.1515C18.4297 9.43805 18.0196 8.1385 17.1994 7.25284C16.3791 6.36717 15.2952 5.92434 13.9477 5.92434C12.4361 5.92434 11.2584 6.56688 10.4147 7.85197V7.8867H10.3972L10.4147 7.85197V6.2022H6.5127C6.53613 6.57267 6.54785 7.7246 6.54785 9.65803C6.54785 11.5914 6.53613 14.3063 6.5127 17.8027Z" fill="#018AD2"/>
</svg>
