<svg width="19" height="19" viewBox="0 0 19 19" fill="none" xmlns="http://www.w3.org/2000/svg">
<path d="M9.44105 0.329102C4.45498 0.329102 0.412531 4.30521 0.412531 9.21042C0.412531 10.8883 0.885945 12.4576 1.7081 13.7964L0.0786133 18.5612L5.07729 16.987C6.37076 17.6904 7.85836 18.0917 9.44105 18.0917C14.4278 18.0917 18.47 14.1151 18.47 9.21042C18.47 4.30521 14.4278 0.329102 9.44105 0.329102ZM13.9306 12.5833C13.7182 13.1053 12.7576 13.5817 12.3337 13.6036C11.9103 13.6259 11.8982 13.929 9.58978 12.9348C7.28162 11.9404 5.89295 9.52265 5.78346 9.36694C5.6739 9.21181 4.88935 8.10343 4.93167 6.98802C4.97429 5.8724 5.59044 5.34607 5.81035 5.12716C6.03002 4.90793 6.28188 4.86865 6.43566 4.86617C6.61744 4.86324 6.73518 4.8608 6.8697 4.86572C7.00411 4.87077 7.206 4.83785 7.3808 5.2987C7.55552 5.75951 7.97372 6.89209 8.02721 7.00751C8.08066 7.12305 8.11375 7.25682 8.0314 7.40516C7.9488 7.55382 7.90652 7.64669 7.78669 7.7748C7.6662 7.90292 7.53323 8.06139 7.42576 8.15935C7.30588 8.2678 7.18067 8.38611 7.3067 8.61796C7.43265 8.84964 7.86719 9.60917 8.5292 10.2351C9.38 11.0397 10.1137 11.3066 10.3395 11.4282C10.5659 11.5504 10.701 11.5368 10.8414 11.3904C10.9812 11.2439 11.4424 10.7496 11.6048 10.5289C11.7672 10.3076 11.9193 10.3509 12.1279 10.4341C12.3364 10.5176 13.448 11.1079 13.6745 11.2298C13.9007 11.3514 14.0519 11.4141 14.1059 11.5106C14.16 11.6074 14.1429 12.0612 13.9306 12.5833Z" fill="#0AC143"/>
</svg>
