<svg width="19" height="19" viewBox="0 0 19 19" fill="none" xmlns="http://www.w3.org/2000/svg">
<path fill-rule="evenodd" clip-rule="evenodd" d="M17.7414 0H1.47899C0.921418 0 0.469727 0.447781 0.469727 1.00052V17.1229C0.469727 17.6749 0.921418 18.1227 1.47899 18.1227H10.2348V11.1047H7.85218V8.36966H10.2348V6.35275C10.2348 4.01191 11.6767 2.73728 13.7836 2.73728C14.7928 2.73728 15.6597 2.81204 15.9126 2.84526V5.29182L14.4516 5.29258C13.306 5.29258 13.0843 5.83248 13.0843 6.62384V8.37041H15.8166L15.4609 11.1054H13.0843V18.1227H17.7429C18.299 18.1227 18.7507 17.6749 18.7507 17.1222V1.00052C18.7507 0.447781 18.299 0 17.7414 0Z" fill="#1877F2"/>
</svg>
