<svg width="23" height="16" viewBox="0 0 23 16" fill="none" xmlns="http://www.w3.org/2000/svg">
<path d="M11.759 15.6065L7.26956 15.5226C5.81598 15.4933 4.3588 15.5517 2.93373 15.2488C0.765871 14.7962 0.612292 12.5771 0.451588 10.7158C0.230154 8.09891 0.315878 5.43455 0.733752 2.83953C0.969656 1.38346 1.89803 0.514607 3.33373 0.42006C8.18028 0.0769332 13.0591 0.117597 17.8949 0.277678C18.4056 0.292353 18.9198 0.372562 19.4234 0.463861C21.9093 0.909153 21.9699 3.42385 22.131 5.54075C22.2918 7.67949 22.2239 9.82922 21.9167 11.9534C21.6703 13.7122 21.1988 15.1871 19.2091 15.3294C16.7161 15.5156 14.2803 15.6655 11.7803 15.6178C11.7804 15.6065 11.7661 15.6065 11.759 15.6065ZM9.11962 11.1538C10.9983 10.0515 12.8411 8.96753 14.7091 7.87262C12.8269 6.77031 10.9876 5.68638 9.11962 4.59146V11.1538Z" fill="#EC1C15"/>
</svg>
