<svg width="23" height="23" viewBox="0 0 23 23" fill="none" xmlns="http://www.w3.org/2000/svg">
<rect x="0.940483" y="0.317436" width="21.7276" height="21.7276" rx="4.76154" fill="white" stroke="#E2E3E9" stroke-width="0.634872"/>
<path d="M12.0998 15.8808L9.36467 15.8297C8.4791 15.8119 7.59133 15.8474 6.72313 15.6629C5.40239 15.3872 5.30882 14.0352 5.21092 12.9012C5.07601 11.3069 5.12824 9.68372 5.38282 8.10274C5.52654 7.21565 6.09214 6.68631 6.96682 6.62871C9.91952 6.41966 12.8918 6.44444 15.838 6.54197C16.1491 6.55091 16.4624 6.59977 16.7692 6.65539C18.2837 6.92668 18.3207 8.45873 18.4188 9.74842C18.5167 11.0514 18.4754 12.3611 18.2883 13.6552C18.1381 14.7267 17.8509 15.6253 16.6387 15.712C15.1199 15.8255 13.6359 15.9168 12.1128 15.8877C12.1129 15.8808 12.1041 15.8808 12.0998 15.8808ZM10.4918 13.1681C11.6364 12.4965 12.7591 11.8361 13.8971 11.1691C12.7504 10.4975 11.6298 9.83714 10.4918 9.17008V13.1681Z" fill="#EC1C15"/>
</svg>
