<svg width="23" height="23" viewBox="0 0 23 23" fill="none" xmlns="http://www.w3.org/2000/svg">
<rect x="0.191406" width="22.3624" height="22.3624" rx="5.07898" fill="url(#paint0_linear)"/>
<path d="M3.80652 11.5091C3.81069 11.4735 3.83632 11.4486 3.86861 11.4486C3.89972 11.4486 3.9255 11.4735 3.93034 11.509L4.06446 12.3687L3.93034 13.2137C3.92535 13.2492 3.89988 13.2738 3.86861 13.2738C3.8363 13.2738 3.81069 13.249 3.80652 13.2134L3.69336 12.3687L3.80652 11.5091Z" fill="white"/>
<path d="M4.44056 10.9165C4.47318 10.9165 4.49964 10.942 4.50497 10.979L4.67785 12.3687L4.5048 13.728C4.49948 13.7647 4.47301 13.7904 4.44056 13.7904C4.40762 13.7904 4.38049 13.7641 4.37616 13.7276L4.22405 12.3687L4.37616 10.979C4.38065 10.9428 4.40778 10.9165 4.44056 10.9165Z" fill="white"/>
<path d="M6.78502 9.81305C6.788 9.74815 6.8396 9.69706 6.902 9.69706C6.96406 9.69706 7.01549 9.74815 7.01916 9.81305L7.15612 12.3698L7.01916 14.0223V14.0218C7.0155 14.0866 6.96408 14.1377 6.902 14.1377C6.8396 14.1377 6.78817 14.0867 6.78502 14.0222L6.66387 12.3698L6.78502 9.81305Z" fill="white"/>
<path d="M5.5705 10.6751C5.57435 10.624 5.61345 10.5857 5.66138 10.5857C5.7088 10.5857 5.74791 10.624 5.75208 10.6747L5.90717 12.3692L5.75208 14.0082C5.74791 14.0589 5.7088 14.0972 5.66138 14.0972C5.61344 14.0972 5.57416 14.0589 5.5705 14.0082L5.43405 12.3692L5.5705 10.6751Z" fill="white"/>
<path d="M8.30621 13.9952C8.30305 14.0751 8.24015 14.1375 8.16277 14.1375C8.08487 14.1375 8.02181 14.0749 8.01931 13.9957L7.91397 12.3705L8.01931 8.96682C8.02182 8.88694 8.08488 8.82437 8.16294 8.82437C8.2403 8.82437 8.30322 8.88677 8.30638 8.96665L8.42504 12.3707L8.30621 13.9952Z" fill="white"/>
<path d="M10.9402 13.9496C10.9382 14.0575 10.8504 14.1452 10.7438 14.1452C10.6373 14.1452 10.5492 14.0574 10.5475 13.9506C10.5475 13.9506 10.4734 12.3728 10.4734 12.3703L10.5475 8.44046C10.5491 8.33246 10.6372 8.24476 10.7438 8.24476C10.8503 8.24476 10.9384 8.33262 10.9402 8.44029L11.0231 12.3717L10.9402 13.9496Z" fill="white"/>
<path d="M9.61339 13.9698C9.61089 14.0646 9.53618 14.139 9.44348 14.139C9.35012 14.139 9.27541 14.0646 9.27341 13.9708L9.18355 12.3712L9.27324 8.94237C9.27524 8.84752 9.34995 8.7733 9.44331 8.7733C9.53601 8.7733 9.61072 8.84751 9.61322 8.94237L9.71423 12.371L9.61339 13.9709V13.9698Z" fill="white"/>
<path d="M6.38313 14.0218C6.37897 14.0799 6.33436 14.124 6.27927 14.124C6.22336 14.124 6.17894 14.0799 6.17528 14.0217L6.04663 12.3692L6.17528 10.7977C6.17877 10.7393 6.22338 10.6952 6.27927 10.6952C6.33455 10.6952 6.37914 10.739 6.38313 10.7971L6.52924 12.3692L6.38313 14.0218Z" fill="white"/>
<path d="M5.12602 13.9578C5.12136 14.0017 5.08875 14.0335 5.04848 14.0335C5.00753 14.0335 4.97492 14.0015 4.97092 13.9574L4.82647 12.3688L4.97092 10.72C4.97507 10.6761 5.00769 10.6441 5.04847 10.6441C5.08873 10.6441 5.12135 10.6759 5.12618 10.72L5.29011 12.3688L5.12602 13.9578Z" fill="white"/>
<path d="M9.90779 9.06785C9.90977 8.96534 9.9905 8.88528 10.0912 8.88528C10.1917 8.88528 10.2719 8.96534 10.2742 9.0675L10.3661 12.3715L10.2742 13.9611V13.9598C10.2719 14.0623 10.1917 14.1422 10.0912 14.1422C9.99033 14.1422 9.90979 14.0621 9.90779 13.9609L9.82592 12.3713L9.90779 9.06785Z" fill="white"/>
<path d="M7.66036 14.0117C7.65702 14.0841 7.59961 14.1408 7.53005 14.1408C7.45981 14.1408 7.40257 14.0841 7.39975 14.0123L7.28642 12.3703L7.39958 9.22875C7.40258 9.15636 7.45983 9.09962 7.53005 9.09962C7.59961 9.09962 7.65685 9.15619 7.66036 9.22875L7.78816 12.3703L7.66036 14.0117Z" fill="white"/>
<path d="M8.95722 13.9859V13.9857C8.95415 14.0725 8.88568 14.1406 8.80063 14.1406C8.71526 14.1406 8.64635 14.0722 8.64402 13.9857L8.54634 12.3707L8.64386 8.85217C8.64618 8.76464 8.71507 8.69625 8.80061 8.69625C8.88566 8.69625 8.95455 8.76481 8.95722 8.85217L9.06705 12.3708L8.95722 13.985V13.9857C8.95723 13.9855 8.95723 13.9854 8.95724 13.9852V13.9859H8.95722Z" fill="white"/>
<path d="M16.5281 10.4903C16.7547 10.3953 17.0035 10.3426 17.2643 10.3426C18.3154 10.3426 19.1674 11.1949 19.1674 12.2462C19.1674 13.2974 18.3152 14.1496 17.2641 14.1496C17.2302 14.1496 11.9931 14.147 11.9883 14.1465C11.8746 14.135 11.7843 14.038 11.7828 13.9215V7.88063C11.7841 7.76963 11.8224 7.71239 11.966 7.65681C12.3356 7.51386 12.7541 7.42932 13.1835 7.42932C14.9381 7.42932 16.3766 8.77496 16.5281 10.4903Z" fill="white"/>
<path d="M11.1838 8.08449C11.1855 7.96918 11.2794 7.87532 11.3937 7.87532C11.5077 7.87532 11.6015 7.96918 11.6032 8.08417L11.6966 12.3722L11.6032 13.9285V13.9266C11.6015 14.042 11.5077 14.1357 11.3937 14.1357C11.2794 14.1357 11.1855 14.042 11.184 13.9283L11.098 12.3722L11.1838 8.08449Z" fill="white"/>
<defs>
<linearGradient id="paint0_linear" x1="11.3726" y1="0" x2="11.3726" y2="22.3624" gradientUnits="userSpaceOnUse">
<stop stop-color="#FF7602"/>
<stop offset="1" stop-color="#FF3502"/>
</linearGradient>
</defs>
</svg>
