<svg width="23" height="23" viewBox="0 0 23 23" fill="none" xmlns="http://www.w3.org/2000/svg">
<rect x="0.0566406" width="22.3624" height="22.3624" rx="5.07898" fill="#14142B"/>
<path d="M11.2359 3.68359C9.75297 3.68359 8.3034 4.12332 7.07043 4.94716C5.83746 5.77101 4.87648 6.94197 4.309 8.31197C3.74153 9.68197 3.59305 11.1895 3.88235 12.6439C4.17164 14.0983 4.88572 15.4342 5.93427 16.4827C6.98283 17.5313 8.31876 18.2454 9.77315 18.5347C11.2275 18.824 12.735 18.6755 14.105 18.108C15.4751 17.5405 16.646 16.5796 17.4699 15.3466C18.2937 14.1136 18.7334 12.664 18.7334 11.1812C18.7334 9.19268 17.9435 7.28565 16.5374 5.87958C15.1314 4.47351 13.2243 3.68359 11.2359 3.68359V3.68359ZM14.6765 14.4961C14.6446 14.5491 14.6024 14.5952 14.5526 14.6318C14.5027 14.6683 14.446 14.6946 14.3859 14.7091C14.3258 14.7236 14.2634 14.726 14.2023 14.7161C14.1413 14.7062 14.0828 14.6844 14.0302 14.6517C12.271 13.5746 10.0571 13.3353 7.44818 13.9277C7.38883 13.9418 7.32726 13.9441 7.26704 13.9343C7.20683 13.9244 7.14916 13.9028 7.09739 13.8705C7.04562 13.8382 7.00078 13.7959 6.96547 13.7462C6.93016 13.6964 6.90508 13.6401 6.89169 13.5806C6.87746 13.5209 6.87516 13.459 6.88491 13.3983C6.89466 13.3377 6.91627 13.2796 6.94851 13.2274C6.98075 13.1751 7.02298 13.1298 7.07278 13.0939C7.12259 13.0579 7.17899 13.0322 7.23875 13.0182C10.093 12.3659 12.5463 12.6472 14.5209 13.8559C14.6263 13.9203 14.7018 14.0239 14.731 14.1439C14.7601 14.2639 14.7405 14.3905 14.6765 14.4961V14.4961ZM15.592 12.4557C15.5084 12.5843 15.3785 12.6759 15.2293 12.7115C15.0801 12.7472 14.9229 12.7241 14.7902 12.6472C12.515 11.378 9.82916 11.0638 7.32252 11.7735C7.24452 11.817 7.15777 11.8425 7.06865 11.8481C6.97952 11.8537 6.89027 11.8393 6.80745 11.8059C6.72462 11.7725 6.65032 11.721 6.59 11.6551C6.52967 11.5893 6.48484 11.5108 6.4588 11.4254C6.43277 11.3399 6.42618 11.2498 6.43952 11.1615C6.45287 11.0732 6.48581 10.989 6.53592 10.9151C6.58604 10.8412 6.65207 10.7794 6.72916 10.7343C6.80625 10.6893 6.89245 10.662 6.98145 10.6546C8.38056 10.2518 9.84606 10.1328 11.2919 10.3044C12.7376 10.476 14.1345 10.9348 15.4005 11.6539C15.5291 11.7375 15.6207 11.8673 15.6563 12.0165C15.692 12.1658 15.6689 12.323 15.592 12.4557V12.4557ZM15.6698 10.3315C13.2763 8.89539 9.2732 8.76375 6.9635 9.46384C6.78575 9.5178 6.59386 9.49894 6.43002 9.41141C6.26619 9.32388 6.14383 9.17485 6.08988 8.99711C6.03592 8.81937 6.05478 8.62748 6.14231 8.46364C6.22984 8.29981 6.37886 8.17745 6.5566 8.12349C9.20738 7.32168 13.6054 7.47726 16.3878 9.12277C16.5309 9.22514 16.6301 9.37761 16.6659 9.54984C16.7016 9.72208 16.6712 9.90146 16.5807 10.0523C16.4902 10.2031 16.3462 10.3144 16.1775 10.3639C16.0087 10.4134 15.8274 10.3976 15.6698 10.3195V10.3315Z" fill="#1DD75F"/>
</svg>
