<svg width="24" height="23" viewBox="0 0 24 23" fill="none" xmlns="http://www.w3.org/2000/svg">
<rect x="0.757812" width="22.3624" height="22.3624" rx="5.07898" fill="#5000B9"/>
<path d="M16.7691 9.07238C17.32 8.90902 17.8497 9.16078 17.8497 9.16078L18.2641 10.7689C18.2641 10.7689 17.8752 10.5306 17.4905 10.665C16.6814 10.9479 16.7889 12.1239 16.7889 13.4146C16.7889 15.2519 16.779 16.9562 15.9148 16.9562C14.19 16.9562 12.7537 8.80435 12.3732 8.80435C12.2042 8.80435 12.521 10.5858 12.7911 12.4818L12.7936 12.4991C13.1047 14.6847 13.4285 16.959 12.4234 16.959C11.579 16.959 10.8796 15.1889 10.3061 13.5928L10.2967 13.5667C9.83152 12.2708 9.40971 11.0957 9.25446 11.0957C8.95885 11.0957 10.48 16.9569 8.98855 16.9569C8.29692 16.9569 7.93201 15.8862 7.5678 14.8516C7.20359 13.817 6.94264 12.9025 6.82171 12.9174C6.64562 12.9393 7.39807 15.9435 7.11166 16.6507C7.0268 16.8593 6.85919 16.9406 6.64703 16.9512H5.61523V16.3621H6.24535C6.56288 16.3621 6.49711 15.964 6.48862 15.7518C6.45397 14.9067 5.70151 11.8771 6.5459 11.7413C7.66044 11.5624 8.41148 15.4569 8.7177 15.447C9.09039 15.435 7.31675 9.05329 8.69365 8.83335C10.0706 8.61341 11.4142 14.4053 11.8237 14.4046C12.0528 14.4046 11.6519 12.4429 11.3053 10.3475C10.9227 8.03563 10.6193 5.56752 11.5967 5.41335C12.6985 5.23868 13.3088 7.4034 14.0146 9.4875C14.7204 11.5716 15.2479 13.573 15.4155 13.573C15.5831 13.573 15.1546 11.4012 15.6496 10.1558C15.9063 9.5066 16.3575 9.19402 16.7691 9.07238Z" fill="white"/>
</svg>
