<svg width="23" height="23" viewBox="0 0 23 23" fill="none" xmlns="http://www.w3.org/2000/svg">
<path fill-rule="evenodd" clip-rule="evenodd" d="M20.4142 21.2499C21.0532 20.7427 21.554 20.0825 21.8701 19.3304C22.195 18.3095 22.3301 17.2378 22.2688 16.1683V6.13475C22.3234 5.05731 22.1788 3.97905 21.8423 2.95407C21.5248 2.22854 21.0345 1.59179 20.4142 1.09945C19.9555 0.735354 19.4337 0.45874 18.8749 0.283419C17.9919 0.0701885 17.0843 -0.0233803 16.1764 0.00522624H6.13361C5.22875 -0.0240174 4.32411 0.0695659 3.44441 0.283419C2.87222 0.453699 2.33736 0.730567 1.86798 1.09945C1.24865 1.5981 0.761421 2.24137 0.449194 2.97262C0.111755 3.99114 -0.0359688 5.06292 0.0133577 6.13475V16.1683C-0.0470209 17.2611 0.0976571 18.3556 0.439921 19.3953C0.757377 20.1208 1.24768 20.7576 1.86798 21.2499C2.34014 21.6198 2.87823 21.8967 3.45368 22.0659C4.33339 22.2798 5.23803 22.3734 6.14288 22.3441H16.1486C17.0565 22.3727 17.9641 22.2792 18.847 22.0659C19.4156 21.8938 19.9471 21.617 20.4142 21.2499ZM12.0179 12.3629C12.2982 12.4633 12.5556 12.6189 12.7747 12.8205C12.9136 13.0043 12.9856 13.23 12.9787 13.4603C13.0372 14.0214 13.0372 14.587 12.9787 15.148C12.9231 15.8157 12.8118 16.743 12.6727 17.6703C12.6145 18.0991 12.5277 18.5235 12.413 18.9407C12.3084 19.1943 12.1245 19.4073 11.8888 19.5477C11.6532 19.6881 11.3784 19.7484 11.1055 19.7197C10.834 19.7478 10.5606 19.6871 10.3265 19.5467C10.0924 19.4062 9.91022 19.1936 9.80729 18.9407C9.69261 18.5235 9.60587 18.0991 9.54765 17.6703C9.39928 16.743 9.288 15.8342 9.23236 15.148C9.17383 14.587 9.17383 14.0214 9.23236 13.4603C9.25124 13.2183 9.35657 12.9912 9.5291 12.8205C9.746 12.6212 10.0003 12.4669 10.2773 12.3666C10.5543 12.2663 10.8484 12.222 11.1426 12.2363C11.4399 12.2195 11.7375 12.2626 12.0179 12.3629ZM9.6562 10.7073C9.45241 10.4023 9.34364 10.0437 9.34364 9.67689C9.34364 9.18502 9.53903 8.71329 9.88684 8.36548C10.2347 8.01767 10.7064 7.82227 11.1983 7.82227C11.5651 7.82227 11.9236 7.93104 12.2286 8.13483C12.5336 8.33862 12.7713 8.62827 12.9117 8.96716C13.0521 9.30605 13.0888 9.67895 13.0172 10.0387C12.9457 10.3985 12.769 10.7289 12.5097 10.9883C12.2503 11.2477 11.9198 11.4243 11.5601 11.4959C11.2003 11.5674 10.8274 11.5307 10.4885 11.3903C10.1496 11.25 9.85998 11.0123 9.6562 10.7073ZM6.09939 4.33788C7.50811 3.1411 9.29418 2.48018 11.1426 2.47169C13.0119 2.44284 14.83 3.08248 16.2695 4.27538C17.709 5.46829 18.6751 7.13603 18.9939 8.97816C19.3126 10.8203 18.9631 12.7157 18.0081 14.3229C17.0532 15.9302 15.5557 17.1435 13.7855 17.7445C13.7679 17.7492 13.7495 17.7495 13.7318 17.7454C13.7141 17.7413 13.6977 17.7329 13.684 17.721C13.6703 17.7092 13.6597 17.6941 13.6531 17.6772C13.6466 17.6602 13.6442 17.642 13.6464 17.6239C13.6592 17.5492 13.6743 17.4745 13.6893 17.4C13.7282 17.2063 13.7669 17.014 13.7669 16.8265C13.7706 16.7797 13.7873 16.7349 13.8152 16.6972C13.843 16.6595 13.8809 16.6304 13.9246 16.6132C15.3673 15.9902 16.5517 14.8895 17.2787 13.4963C18.0057 12.103 18.2311 10.502 17.9169 8.96216C17.6027 7.42235 16.7681 6.03759 15.5533 5.04053C14.3386 4.04348 12.8177 3.49488 11.2462 3.48692C9.67464 3.47896 8.14826 4.01211 6.92346 4.9968C5.69867 5.98149 4.85009 7.35772 4.52031 8.89427C4.19052 10.4308 4.39962 12.0341 5.11247 13.4346C5.82532 14.8352 6.99849 15.9477 8.43487 16.5854C8.47848 16.6026 8.51638 16.6317 8.54425 16.6694C8.57212 16.7071 8.58885 16.7519 8.59251 16.7986C8.59714 16.831 8.60176 16.8635 8.60639 16.8961C8.63899 17.1253 8.67247 17.3607 8.71306 17.5961C8.71519 17.6142 8.71287 17.6324 8.70631 17.6493C8.69975 17.6663 8.68915 17.6813 8.67543 17.6932C8.66171 17.7051 8.6453 17.7135 8.62761 17.7175C8.60993 17.7216 8.59151 17.7213 8.57397 17.7167C6.83037 17.103 5.35948 15.8933 4.4207 14.3009C3.48191 12.7086 3.13554 10.836 3.44266 9.0132C3.74978 7.19044 4.69067 5.53466 6.09939 4.33788ZM13.4544 6.73283C12.7242 6.26702 11.869 6.03562 11.0035 6.06965H11.0592C10.2203 6.09821 9.40861 6.37416 8.72615 6.86278C8.04369 7.35141 7.52094 8.03091 7.22362 8.81583C6.9263 9.60075 6.86769 10.4561 7.05516 11.2742C7.24263 12.0923 7.6678 12.8368 8.27723 13.414C8.31359 13.4461 8.3418 13.4863 8.35954 13.5315C8.37727 13.5766 8.38402 13.6253 8.37923 13.6736V14.6009C8.38062 14.6199 8.37667 14.6389 8.36783 14.6557C8.35899 14.6726 8.34561 14.6866 8.32922 14.6962C8.31282 14.7059 8.29405 14.7108 8.27503 14.7103C8.25601 14.7098 8.2375 14.7041 8.22159 14.6936C7.29221 14.0612 6.59001 13.1475 6.21803 12.0866C5.84606 11.0258 5.82389 9.87361 6.15479 8.79924C6.48568 7.72486 7.15222 6.78483 8.05658 6.11707C8.96095 5.44932 10.0555 5.08901 11.1797 5.08901C12.3039 5.08901 13.3985 5.44932 14.3028 6.11707C15.2072 6.78483 15.8737 7.72486 16.2046 8.79924C16.5355 9.87361 16.5134 11.0258 16.1414 12.0866C15.7694 13.1475 15.0672 14.0612 14.1378 14.6936C14.1212 14.7033 14.1023 14.7084 14.0831 14.7086C14.0639 14.7087 14.0449 14.7039 14.0281 14.6946C14.0113 14.6852 13.9972 14.6717 13.9872 14.6553C13.9771 14.6389 13.9715 14.6201 13.9709 14.6009C13.9909 14.2921 13.9909 13.9824 13.9709 13.6736C13.9699 13.6257 13.9784 13.5781 13.9959 13.5335C14.0134 13.489 14.0396 13.4483 14.0729 13.414C14.7052 12.822 15.1415 12.0509 15.3231 11.204C15.5047 10.3571 15.423 9.47492 15.089 8.67575C14.755 7.87658 14.1847 7.19864 13.4544 6.73283Z" fill="url(#paint0_linear)"/>
<defs>
<linearGradient id="paint0_linear" x1="11.1596" y1="0.00522623" x2="11.1596" y2="22.2978" gradientUnits="userSpaceOnUse">
<stop stop-color="#F452FF"/>
<stop offset="1" stop-color="#832BC1"/>
</linearGradient>
</defs>
</svg>
