<svg width="23" height="23" viewBox="0 0 23 23" fill="none" xmlns="http://www.w3.org/2000/svg">
<rect x="0.80767" y="0.317436" width="21.7276" height="21.7276" rx="4.76154" fill="white" stroke="#E2E3E9" stroke-width="0.634872"/>
<path d="M10.7754 8.58667V10.7493V11.6137V13.7763H12.5593V11.6137V10.7493V8.58667H10.7754Z" fill="#FAB908"/>
<path d="M5.42517 11.5869C5.91779 11.5869 6.31713 11.1876 6.31713 10.6949C6.31713 10.2023 5.91779 9.80298 5.42517 9.80298C4.93255 9.80298 4.5332 10.2023 4.5332 10.6949C4.5332 11.1876 4.93255 11.5869 5.42517 11.5869Z" fill="#0066D9"/>
<path d="M5.42517 12.5599C5.91779 12.5599 6.31713 12.1606 6.31713 11.668C6.31713 11.1753 5.91779 10.776 5.42517 10.776C4.93255 10.776 4.5332 11.1753 4.5332 11.668C4.5332 12.1606 4.93255 12.5599 5.42517 12.5599Z" fill="#0066D9"/>
<path d="M6.31713 10.6949H4.5332V11.6679H6.31713V10.6949Z" fill="#0066D9"/>
<path d="M17.9134 12.5599C18.4061 12.5599 18.8054 12.1606 18.8054 11.668C18.8054 11.1753 18.4061 10.776 17.9134 10.776C17.4208 10.776 17.0215 11.1753 17.0215 11.668C17.0215 12.1606 17.4208 12.5599 17.9134 12.5599Z" fill="#4285F4"/>
<path d="M17.9134 11.5869C18.4061 11.5869 18.8054 11.1876 18.8054 10.6949C18.8054 10.2023 18.4061 9.80298 17.9134 9.80298C17.4208 9.80298 17.0215 10.2023 17.0215 10.6949C17.0215 11.1876 17.4208 11.5869 17.9134 11.5869Z" fill="#4285F4"/>
<path d="M17.0208 11.6681H18.8047V10.695H17.0208V11.6681Z" fill="#4285F4"/>
<path d="M8.50525 14.5062C8.99787 14.5062 9.39721 14.1069 9.39721 13.6143C9.39721 13.1216 8.99787 12.7223 8.50525 12.7223C8.01263 12.7223 7.61328 13.1216 7.61328 13.6143C7.61328 14.1069 8.01263 14.5062 8.50525 14.5062Z" fill="#EA4335"/>
<path d="M8.50525 15.4791C8.99787 15.4791 9.39721 15.0798 9.39721 14.5872C9.39721 14.0945 8.99787 13.6952 8.50525 13.6952C8.01263 13.6952 7.61328 14.0945 7.61328 14.5872C7.61328 15.0798 8.01263 15.4791 8.50525 15.4791Z" fill="#EA4335"/>
<path d="M9.39721 13.6141H7.61328V14.5871H9.39721V13.6141Z" fill="#EA4335"/>
<path d="M8.50525 8.66772C8.99787 8.66772 9.39721 8.26837 9.39721 7.77575C9.39721 7.28314 8.99787 6.88379 8.50525 6.88379C8.01263 6.88379 7.61328 7.28314 7.61328 7.77575C7.61328 8.26837 8.01263 8.66772 8.50525 8.66772Z" fill="#EA4335"/>
<path d="M8.50525 11.8303C8.99787 11.8303 9.39721 11.4309 9.39721 10.9383C9.39721 10.4457 8.99787 10.0463 8.50525 10.0463C8.01263 10.0463 7.61328 10.4457 7.61328 10.9383C7.61328 11.4309 8.01263 11.8303 8.50525 11.8303Z" fill="#EA4335"/>
<path d="M9.39721 7.77576H7.61328V10.9585H9.39721V7.77576Z" fill="#EA4335"/>
<path d="M14.8314 9.6408C15.324 9.6408 15.7234 9.24146 15.7234 8.74884C15.7234 8.25622 15.324 7.85687 14.8314 7.85687C14.3388 7.85687 13.9395 8.25622 13.9395 8.74884C13.9395 9.24146 14.3388 9.6408 14.8314 9.6408Z" fill="#34A853"/>
<path d="M14.8314 8.66772C15.324 8.66772 15.7234 8.26837 15.7234 7.77575C15.7234 7.28314 15.324 6.88379 14.8314 6.88379C14.3388 6.88379 13.9395 7.28314 13.9395 7.77575C13.9395 8.26837 14.3388 8.66772 14.8314 8.66772Z" fill="#34A853"/>
<path d="M13.9387 8.74878H15.7227V7.77573H13.9387V8.74878Z" fill="#34A853"/>
<path d="M11.6674 6.80273C12.16 6.80273 12.5593 6.40338 12.5593 5.91076C12.5593 5.41815 12.16 5.0188 11.6674 5.0188C11.1747 5.0188 10.7754 5.41815 10.7754 5.91076C10.7754 6.40338 11.1747 6.80273 11.6674 6.80273Z" fill="#FAB908"/>
<path d="M11.6674 5.82971C12.16 5.82971 12.5593 5.43036 12.5593 4.93774C12.5593 4.44512 12.16 4.04578 11.6674 4.04578C11.1747 4.04578 10.7754 4.44512 10.7754 4.93774C10.7754 5.43036 11.1747 5.82971 11.6674 5.82971Z" fill="#FAB908"/>
<path d="M10.7766 5.91077H12.5605V4.93771H10.7766V5.91077Z" fill="#FAB908"/>
<path d="M11.6674 18.3173C12.16 18.3173 12.5593 17.918 12.5593 17.4254C12.5593 16.9327 12.16 16.5334 11.6674 16.5334C11.1747 16.5334 10.7754 16.9327 10.7754 17.4254C10.7754 17.918 11.1747 18.3173 11.6674 18.3173Z" fill="#FAB908"/>
<path d="M11.6674 17.3442C12.16 17.3442 12.5593 16.9449 12.5593 16.4523C12.5593 15.9596 12.16 15.5603 11.6674 15.5603C11.1747 15.5603 10.7754 15.9596 10.7754 16.4523C10.7754 16.9449 11.1747 17.3442 11.6674 17.3442Z" fill="#FAB908"/>
<path d="M10.7766 17.4253H12.5605V16.4522H10.7766V17.4253Z" fill="#FAB908"/>
<path d="M14.8314 15.4791C15.324 15.4791 15.7234 15.0798 15.7234 14.5872C15.7234 14.0945 15.324 13.6952 14.8314 13.6952C14.3388 13.6952 13.9395 14.0945 13.9395 14.5872C13.9395 15.0798 14.3388 15.4791 14.8314 15.4791Z" fill="#34A853"/>
<path d="M14.8314 12.3167C15.324 12.3167 15.7234 11.9174 15.7234 11.4247C15.7234 10.9321 15.324 10.5328 14.8314 10.5328C14.3388 10.5328 13.9395 10.9321 13.9395 11.4247C13.9395 11.9174 14.3388 12.3167 14.8314 12.3167Z" fill="#34A853"/>
<path d="M13.9387 14.5873H15.7227V11.4249H13.9387V14.5873Z" fill="#34A853"/>
<path d="M11.6674 9.47851C12.16 9.47851 12.5593 9.07916 12.5593 8.58655C12.5593 8.09393 12.16 7.69458 11.6674 7.69458C11.1747 7.69458 10.7754 8.09393 10.7754 8.58655C10.7754 9.07916 11.1747 9.47851 11.6674 9.47851Z" fill="#FAB908"/>
<path d="M11.6674 14.6681C12.16 14.6681 12.5593 14.2688 12.5593 13.7762C12.5593 13.2836 12.16 12.8842 11.6674 12.8842C11.1747 12.8842 10.7754 13.2836 10.7754 13.7762C10.7754 14.2688 11.1747 14.6681 11.6674 14.6681Z" fill="#FAB908"/>
</svg>
