<svg width="20" height="20" viewBox="0 0 20 20" fill="none" xmlns="http://www.w3.org/2000/svg">
<path d="M10 0C8.02219 0 6.08879 0.58649 4.4443 1.6853C2.79981 2.78412 1.51809 4.3459 0.761209 6.17316C0.00433284 8.00043 -0.1937 10.0111 0.192152 11.9509C0.578004 13.8907 1.53041 15.6725 2.92894 17.0711C4.32746 18.4696 6.10929 19.422 8.0491 19.8078C9.98891 20.1937 11.9996 19.9957 13.8268 19.2388C15.6541 18.4819 17.2159 17.2002 18.3147 15.5557C19.4135 13.9112 20 11.9778 20 10C19.9967 7.34883 18.9421 4.80719 17.0675 2.93253C15.1928 1.05787 12.6512 0.00325696 10 0V0ZM4.77846 10.2723C4.88562 10.1651 5.01285 10.08 5.15289 10.022C5.29293 9.96396 5.44303 9.93409 5.59462 9.93409C5.74621 9.93409 5.89631 9.96396 6.03635 10.022C6.17639 10.08 6.30362 10.1651 6.41077 10.2723L8.71846 12.58L13.1877 6.62C13.3713 6.37518 13.6446 6.21333 13.9476 6.17006C14.2505 6.12678 14.5583 6.20562 14.8031 6.38923C15.0479 6.57284 15.2097 6.84618 15.253 7.14913C15.2963 7.45207 15.2175 7.7598 15.0338 8.00461L10.5646 13.9646C10.3661 14.2293 10.1129 14.4481 9.82232 14.6064C9.53175 14.7646 9.21054 14.8585 8.88048 14.8817C8.55043 14.9049 8.21925 14.8569 7.90939 14.7409C7.59953 14.6248 7.31825 14.4435 7.08462 14.2092L4.77693 11.9015C4.56115 11.6852 4.44009 11.3921 4.44038 11.0866C4.44067 10.7811 4.56228 10.4882 4.77846 10.2723V10.2723Z" fill="#FEDB01"/>
</svg>
