<svg width="25" height="18" viewBox="0 0 25 18" fill="none" xmlns="http://www.w3.org/2000/svg">
<path d="M13.0659 17.4735L8.21608 17.3829C6.64581 17.3513 5.07164 17.4143 3.53217 17.0871C1.19027 16.5982 1.02436 14.201 0.850756 12.1902C0.611546 9.36323 0.704151 6.48497 1.15557 3.68163C1.41041 2.10865 2.41332 1.17005 3.96428 1.06791C9.19992 0.69724 14.4704 0.741169 19.6944 0.914101C20.2461 0.929954 20.8016 1.0166 21.3457 1.11523C24.0311 1.59627 24.0966 4.31285 24.2707 6.5997C24.4443 8.91014 24.371 11.2324 24.0392 13.5272C23.7729 15.4271 23.2636 17.0204 21.1142 17.1742C18.421 17.3754 15.7897 17.5373 13.089 17.4857C13.0891 17.4735 13.0736 17.4735 13.0659 17.4735ZM10.2147 12.6633C12.2442 11.4725 14.235 10.3016 16.2528 9.11877C14.2196 7.92797 12.2326 6.75702 10.2147 5.5742V12.6633Z" fill="#EC1C15"/>
</svg>
