<svg width="19" height="18" viewBox="0 0 19 18" fill="none" xmlns="http://www.w3.org/2000/svg">
<path d="M0.681641 2.72614C0.681641 2.16349 0.879235 1.69931 1.27441 1.33361C1.66958 0.967886 2.18332 0.785034 2.8156 0.785034C3.4366 0.785034 3.93903 0.965067 4.32292 1.32517C4.71809 1.69651 4.91569 2.18037 4.91569 2.77677C4.91569 3.31691 4.72375 3.76701 4.33986 4.12711C3.94469 4.49845 3.4253 4.68412 2.78173 4.68412H2.76479C2.14379 4.68412 1.64136 4.49845 1.25747 4.12711C0.873578 3.75577 0.681641 3.28877 0.681641 2.72614ZM0.901811 17.4954V6.22012H4.66165V17.4954H0.901811ZM6.7448 17.4954H10.5046V11.1995C10.5046 10.8056 10.5498 10.5018 10.6401 10.288C10.7982 9.9054 11.0381 9.58188 11.3599 9.31745C11.6817 9.053 12.0853 8.92079 12.5708 8.92079C13.8354 8.92079 14.4677 9.77037 14.4677 11.4695V17.4954H18.2275V11.0307C18.2275 9.36527 17.8324 8.10215 17.042 7.24131C16.2516 6.38047 15.2073 5.95006 13.9088 5.95006C12.4523 5.95006 11.3176 6.57459 10.5046 7.82364V7.8574H10.4877L10.5046 7.82364V6.22012H6.7448C6.76737 6.58021 6.77867 7.69985 6.77867 9.57908C6.77867 11.4583 6.76737 14.0971 6.7448 17.4954Z" fill="#018AD2"/>
</svg>
