<svg width="21" height="18" viewBox="0 0 21 18" fill="none" xmlns="http://www.w3.org/2000/svg">
<path fill-rule="evenodd" clip-rule="evenodd" d="M20.3748 2.76331C19.6306 3.09916 18.8307 3.32535 17.9912 3.4273C18.8484 2.90553 19.5067 2.07875 19.816 1.09347C19.0145 1.57669 18.1261 1.92796 17.1804 2.11731C16.4244 1.29738 15.3447 0.785034 14.1512 0.785034C11.4718 0.785034 9.50293 3.3262 10.1081 5.96418C6.66001 5.78855 3.60216 4.10929 1.55488 1.55698C0.467609 3.453 0.991017 5.93334 2.83854 7.18936C2.1592 7.16708 1.51864 6.97774 0.959832 6.66159C0.914318 8.61588 2.29237 10.4442 4.28824 10.8512C3.70414 11.0123 3.06442 11.0499 2.41374 10.9231C2.94137 12.599 4.47366 13.8182 6.29084 13.8524C4.54615 15.243 2.348 15.8641 0.146484 15.6002C1.98305 16.7971 4.16518 17.4954 6.5083 17.4954C14.2136 17.4954 18.5669 10.8803 18.3039 4.9472C19.1148 4.35175 19.8185 3.60893 20.3748 2.76331Z" fill="#1DA1F2"/>
</svg>
