<svg width="24" height="23" viewBox="0 0 24 23" fill="none" xmlns="http://www.w3.org/2000/svg">
<path d="M12.1997 0C6.15923 0 1.26195 4.85899 1.26195 10.8534C1.26195 12.9039 1.83548 14.8216 2.83148 16.4577L0.857422 22.2805L6.91314 20.3567C8.48013 21.2163 10.2823 21.7068 12.1997 21.7068C18.2409 21.7068 23.1379 16.8471 23.1379 10.8534C23.1379 4.85899 18.2409 0 12.1997 0ZM17.6386 14.9752C17.3813 15.6131 16.2175 16.1953 15.704 16.2221C15.1911 16.2493 15.1765 16.6197 12.3799 15.4048C9.58361 14.1896 7.90129 11.2349 7.76865 11.0447C7.63591 10.8551 6.68546 9.50059 6.73673 8.1375C6.78836 6.77416 7.5348 6.13096 7.80123 5.86345C8.06735 5.59554 8.37246 5.54754 8.55876 5.54451C8.77898 5.54093 8.92161 5.53794 9.08459 5.54396C9.24742 5.55013 9.49201 5.5099 9.70377 6.07307C9.91543 6.6362 10.4221 8.02028 10.4869 8.16132C10.5516 8.30252 10.5917 8.46599 10.4919 8.64727C10.3919 8.82894 10.3407 8.94243 10.1955 9.09899C10.0495 9.25555 9.88843 9.44921 9.75823 9.56892C9.61301 9.70146 9.46132 9.84604 9.614 10.1294C9.76658 10.4125 10.293 11.3407 11.095 12.1056C12.1257 13.0888 13.0146 13.415 13.2881 13.5636C13.5624 13.713 13.7261 13.6964 13.8962 13.5174C14.0655 13.3384 14.6242 12.7343 14.821 12.4646C15.0177 12.1941 15.202 12.2471 15.4547 12.3488C15.7073 12.4508 17.054 13.1721 17.3283 13.3211C17.6024 13.4697 17.7855 13.5463 17.851 13.6643C17.9165 13.7826 17.8958 14.3372 17.6386 14.9752V14.9752Z" fill="#25D366"/>
</svg>
