<svg width="22" height="22" viewBox="0 0 22 22" fill="none" xmlns="http://www.w3.org/2000/svg">
<path d="M10.9883 0.839233C6.69573 0.839233 5.44032 0.843662 5.19629 0.863905C4.31539 0.937129 3.76723 1.07583 3.17005 1.37315C2.70983 1.60168 2.34687 1.86659 1.98865 2.23793C1.33628 2.91514 0.940898 3.74828 0.79777 4.73863C0.728183 5.21941 0.70794 5.31746 0.703828 7.77325C0.702246 8.59184 0.703828 9.66917 0.703828 11.1142C0.703828 15.4033 0.708572 16.6574 0.729132 16.901C0.800301 17.7582 0.93473 18.2975 1.2194 18.8874C1.76345 20.0166 2.8025 20.8643 4.0266 21.1806C4.45045 21.2897 4.91858 21.3498 5.51956 21.3783C5.77418 21.3893 8.36945 21.3972 10.9663 21.3972C13.5632 21.3972 16.16 21.3941 16.4083 21.3814C17.1042 21.3487 17.5083 21.2944 17.955 21.179C19.187 20.8611 20.2071 20.0261 20.7622 18.8811C21.0414 18.3054 21.1829 17.7455 21.247 16.9331C21.2609 16.756 21.2667 13.9318 21.2667 11.1115C21.2667 8.29072 21.2604 5.47182 21.2465 5.29469C21.1817 4.46914 21.0401 3.91402 20.752 3.32728C20.5155 2.84697 20.253 2.48828 19.8718 2.12153C19.1916 1.47184 18.3598 1.07646 17.3685 0.933492C16.8882 0.864063 16.7925 0.843504 14.3348 0.839233H10.9883Z" fill="url(#paint0_radial)"/>
<path d="M10.9883 0.839233C6.69573 0.839233 5.44032 0.843662 5.19629 0.863905C4.31539 0.937129 3.76723 1.07583 3.17005 1.37315C2.70983 1.60168 2.34687 1.86659 1.98865 2.23793C1.33628 2.91514 0.940898 3.74828 0.79777 4.73863C0.728183 5.21941 0.70794 5.31746 0.703828 7.77325C0.702246 8.59184 0.703828 9.66917 0.703828 11.1142C0.703828 15.4033 0.708572 16.6574 0.729132 16.901C0.800301 17.7582 0.93473 18.2975 1.2194 18.8874C1.76345 20.0166 2.8025 20.8643 4.0266 21.1806C4.45045 21.2897 4.91858 21.3498 5.51956 21.3783C5.77418 21.3893 8.36945 21.3972 10.9663 21.3972C13.5632 21.3972 16.16 21.3941 16.4083 21.3814C17.1042 21.3487 17.5083 21.2944 17.955 21.179C19.187 20.8611 20.2071 20.0261 20.7622 18.8811C21.0414 18.3054 21.1829 17.7455 21.247 16.9331C21.2609 16.756 21.2667 13.9318 21.2667 11.1115C21.2667 8.29072 21.2604 5.47182 21.2465 5.29469C21.1817 4.46914 21.0401 3.91402 20.752 3.32728C20.5155 2.84697 20.253 2.48828 19.8718 2.12153C19.1916 1.47184 18.3598 1.07646 17.3685 0.933492C16.8882 0.864063 16.7925 0.843504 14.3348 0.839233H10.9883Z" fill="url(#paint1_radial)"/>
<path d="M10.9845 3.52802C8.92284 3.52802 8.6641 3.53703 7.85436 3.57388C7.0462 3.61089 6.49457 3.73883 6.01189 3.92656C5.51261 4.12045 5.08907 4.37982 4.66712 4.80193C4.24486 5.22388 3.98549 5.64741 3.79096 6.14654C3.60276 6.62938 3.47466 7.18117 3.43828 7.98901C3.40207 8.79875 3.39258 9.05764 3.39258 11.1193C3.39258 13.181 3.40175 13.4389 3.43844 14.2487C3.47561 15.0568 3.60355 15.6085 3.79112 16.0911C3.98517 16.5904 4.24454 17.014 4.66665 17.4359C5.08844 17.8582 5.51197 18.1182 6.01094 18.3121C6.49394 18.4998 7.04573 18.6277 7.85373 18.6647C8.66347 18.7016 8.92205 18.7106 10.9836 18.7106C13.0454 18.7106 13.3033 18.7016 14.1131 18.6647C14.9212 18.6277 15.4735 18.4998 15.9565 18.3121C16.4556 18.1182 16.8785 17.8582 17.3003 17.4359C17.7226 17.014 17.9819 16.5904 18.1765 16.0913C18.3631 15.6085 18.4912 15.0567 18.5291 14.2488C18.5655 13.4391 18.575 13.181 18.575 11.1193C18.575 9.05764 18.5655 8.7989 18.5291 7.98917C18.4912 7.18101 18.3631 6.62938 18.1765 6.1467C17.9819 5.64741 17.7226 5.22388 17.3003 4.80193C16.878 4.37966 16.4558 4.12029 15.956 3.92656C15.4721 3.73883 14.9201 3.61089 14.112 3.57388C13.3022 3.53703 13.0444 3.52802 10.9821 3.52802H10.9845ZM10.3035 4.89603C10.5056 4.89571 10.7311 4.89603 10.9845 4.89603C13.0114 4.89603 13.2516 4.9033 14.052 4.93968C14.7922 4.97352 15.1939 5.0972 15.4615 5.2011C15.8157 5.3387 16.0683 5.50317 16.3338 5.76887C16.5995 6.03457 16.764 6.28761 16.9019 6.64187C17.0058 6.90915 17.1297 7.31085 17.1633 8.051C17.1997 8.85125 17.2076 9.09164 17.2076 11.1176C17.2076 13.1435 17.1997 13.3839 17.1633 14.1841C17.1295 14.9243 17.0058 15.326 16.9019 15.5933C16.7643 15.9475 16.5995 16.1998 16.3338 16.4653C16.0681 16.731 15.8159 16.8955 15.4615 17.0331C15.1942 17.1375 14.7922 17.2608 14.052 17.2947C13.2518 17.331 13.0114 17.339 10.9845 17.339C8.95747 17.339 8.71724 17.331 7.91699 17.2947C7.17684 17.2605 6.77513 17.1368 6.50738 17.0329C6.15312 16.8953 5.90008 16.7309 5.63438 16.4652C5.36869 16.1995 5.20421 15.9471 5.0663 15.5926C4.96239 15.3254 4.83856 14.9237 4.80488 14.1835C4.7685 13.3833 4.76123 13.1429 4.76123 11.1157C4.76123 9.08848 4.7685 8.84935 4.80488 8.04911C4.83872 7.30895 4.96239 6.90725 5.0663 6.63966C5.20389 6.28539 5.36869 6.03235 5.63438 5.76666C5.90008 5.50096 6.15312 5.33648 6.50738 5.19857C6.77497 5.09419 7.17684 4.97084 7.91699 4.93683C8.61729 4.9052 8.88868 4.89571 10.3035 4.89413V4.89603ZM15.0367 6.1565C14.5338 6.1565 14.1257 6.56406 14.1257 7.06714C14.1257 7.57006 14.5338 7.9781 15.0367 7.9781C15.5396 7.9781 15.9476 7.57006 15.9476 7.06714C15.9476 6.56422 15.5396 6.15618 15.0367 6.15618V6.1565ZM10.9845 7.22086C8.83158 7.22086 7.08606 8.96639 7.08606 11.1193C7.08606 13.2722 8.83158 15.017 10.9845 15.017C13.1374 15.017 14.8823 13.2722 14.8823 11.1193C14.8823 8.96639 13.1373 7.22086 10.9843 7.22086H10.9845ZM10.9845 8.58888C12.3819 8.58888 13.5149 9.72172 13.5149 11.1193C13.5149 12.5167 12.3819 13.6497 10.9845 13.6497C9.58692 13.6497 8.45407 12.5167 8.45407 11.1193C8.45407 9.72172 9.58692 8.58888 10.9845 8.58888V8.58888Z" fill="white"/>
<defs>
<radialGradient id="paint0_radial" cx="0" cy="0" r="1" gradientUnits="userSpaceOnUse" gradientTransform="translate(6.16536 22.9806) rotate(-90) scale(20.3745 18.9551)">
<stop stop-color="#FFDD55"/>
<stop offset="0.1" stop-color="#FFDD55"/>
<stop offset="0.5" stop-color="#FF543E"/>
<stop offset="1" stop-color="#C837AB"/>
</radialGradient>
<radialGradient id="paint1_radial" cx="0" cy="0" r="1" gradientUnits="userSpaceOnUse" gradientTransform="translate(-2.74139 2.3202) rotate(78.6776) scale(9.10759 37.5513)">
<stop stop-color="#3771C8"/>
<stop offset="0.128" stop-color="#3771C8"/>
<stop offset="1" stop-color="#6600FF" stop-opacity="0"/>
</radialGradient>
</defs>
</svg>
