<svg width="20" height="20" viewBox="0 0 20 20" fill="none" xmlns="http://www.w3.org/2000/svg">
<path fill-rule="evenodd" clip-rule="evenodd" d="M18.5646 0.31543H1.08481C0.485505 0.31543 0 0.800935 0 1.40024V18.8809C0 19.4794 0.485505 19.9649 1.08481 19.9649H10.4961V12.3556H7.9351V9.3902H10.4961V7.20338C10.4961 4.66533 12.0459 3.28331 14.3105 3.28331C15.3953 3.28331 16.3271 3.36437 16.5989 3.40039V6.05307L15.0286 6.05389C13.7972 6.05389 13.5589 6.63928 13.5589 7.4973V9.39102H16.4957L16.1134 12.3564H13.5589V19.9649H18.5663C19.1639 19.9649 19.6494 19.4794 19.6494 18.8801V1.40024C19.6494 0.800935 19.1639 0.31543 18.5646 0.31543Z" fill="#1877F2"/>
</svg>
