<svg width="213" height="44" viewBox="0 0 213 44" fill="none" xmlns="http://www.w3.org/2000/svg">
<circle cx="21.6708" cy="21.6708" r="21.6708" fill="#14142B"/>
<rect x="8.91895" y="17.0621" width="3.15884" height="9.33098" rx="1.57942" fill="white"/>
<rect x="14.5054" y="12.2429" width="3.15884" height="18.7421" rx="1.57942" fill="white"/>
<rect x="20.0918" y="8.71497" width="3.15884" height="25.7981" rx="1.57942" fill="white"/>
<rect width="3.15884" height="9.33098" rx="1.57942" transform="matrix(-1 0 0 1 34.4229 17.1758)" fill="white"/>
<rect width="3.15884" height="18.7421" rx="1.57942" transform="matrix(-1 0 0 1 28.8369 12.3566)" fill="white"/>
<rect width="3.15884" height="25.7981" rx="1.57942" transform="matrix(-1 0 0 1 23.2505 8.82861)" fill="white"/>
<path d="M55.347 9.97935V34.2506H59.3691V24.9582H65.0555C69.459 24.9582 72.6836 21.9763 72.6836 17.4688C72.6836 12.9266 69.563 9.97935 65.0555 9.97935H55.347ZM59.3691 13.6547H64.6394C67.1706 13.6547 68.6615 15.0763 68.6615 17.4688C68.6615 19.8612 67.1359 21.2828 64.6394 21.2828H59.3691V13.6547ZM73.5711 25.6863C73.5711 31.026 77.4198 34.736 82.4474 34.736C87.475 34.736 91.3238 31.026 91.3238 25.6863C91.3238 20.3466 87.475 16.6713 82.4474 16.6713C77.4198 16.6713 73.5711 20.3466 73.5711 25.6863ZM77.3851 25.6863C77.3851 22.2537 79.4308 20.1039 82.4474 20.1039C85.464 20.1039 87.5097 22.2537 87.5097 25.6863C87.5097 29.119 85.464 31.3034 82.4474 31.3034C79.4308 31.3034 77.3851 29.119 77.3851 25.6863ZM110.829 9.97935H107.015V19.6879H106.599C105.697 18.1969 104.137 16.6713 100.947 16.6713C96.5784 16.6713 93.007 20.416 93.007 25.6863C93.007 30.9567 96.5784 34.736 100.947 34.736C104.137 34.736 105.697 33.2104 106.599 31.6848H107.084V34.2506H110.829V9.97935ZM101.953 20.0693C104.969 20.0693 107.015 22.1843 107.015 25.6863C107.015 29.1883 104.969 31.3381 101.953 31.3381C99.0055 31.3381 96.8211 29.2923 96.8211 25.6863C96.8211 22.0803 99.0055 20.0693 101.953 20.0693ZM113.594 25.6863C113.594 30.9567 117.443 34.736 122.505 34.736C127.429 34.736 130.168 31.7195 130.966 28.1481L127.221 27.2813C126.77 29.5004 125.487 31.3034 122.54 31.3034C119.489 31.3034 117.408 29.0496 117.408 25.6863C117.408 22.323 119.558 20.1039 122.505 20.1039C125.348 20.1039 126.909 21.9069 127.186 24.126L130.931 23.2592C130.133 19.4105 127.151 16.6713 122.471 16.6713C117.443 16.6713 113.594 20.416 113.594 25.6863ZM132.941 21.3522L136.131 23.1552C137.067 21.2481 138.593 19.9999 141.124 19.9999C143.69 19.9999 145.111 21.3175 145.111 23.2939V23.7446L138.697 24.4034C134.848 24.7848 132.594 26.5532 132.594 29.4657C132.594 32.6556 135.125 34.736 138.974 34.736C142.545 34.736 144.036 33.037 144.66 31.6848H145.146V34.2506H148.891V23.3979C148.891 19.3411 145.909 16.6713 141.262 16.6713C137.102 16.6713 134.57 18.7517 132.941 21.3522ZM136.547 29.2923C136.547 27.9054 137.726 27.316 139.529 27.1426L145.111 26.5532V26.8305C145.111 29.4657 143.308 31.5808 139.771 31.5808C137.691 31.5808 136.547 30.6793 136.547 29.2923ZM152.075 21.8376C152.075 25.0622 154.432 26.4491 158.766 27.0039L159.772 27.1426C161.61 27.3853 163.586 27.5933 163.586 29.119C163.586 30.6099 161.922 31.5461 159.807 31.5461C157.31 31.5461 155.056 30.1592 153.982 27.7667L150.792 29.6391C152.248 32.1009 154.918 34.736 159.703 34.736C164.175 34.736 167.331 32.3783 167.331 29.015C167.331 25.6516 164.8 24.4728 160.119 23.8833L159.113 23.7446C157.275 23.5019 155.819 23.2592 155.819 21.8029C155.819 20.5547 156.963 19.7919 158.732 19.7919C160.882 19.7919 162.789 20.9361 164.384 22.9471L167.157 20.8321C164.661 18.1276 162.268 16.6713 158.766 16.6713C155.056 16.6713 152.075 18.6477 152.075 21.8376ZM168.057 17.1567V20.4507H172.599V31.13C172.599 32.9677 173.917 34.2506 175.72 34.2506H180.297V30.9567H177.35C176.726 30.9567 176.413 30.6446 176.413 29.9511V20.4507H181.268V17.1567H176.413V11.5396H172.599V17.1567H168.057ZM191.7 9.97935L198.704 21.7682V22.219L191.596 34.2506H196.173L201.617 24.8888H202.067L207.511 34.2506H212.053L204.98 22.219V21.7682L211.949 9.97935H207.407L202.067 19.0984H201.617L196.242 9.97935H191.7Z" fill="#14142B"/>
</svg>
