<svg width="182" height="38" viewBox="0 0 182 38" fill="none" xmlns="http://www.w3.org/2000/svg">
<circle cx="18.5061" cy="18.5061" r="18.5061" fill="#14142B"/>
<rect x="7.61621" y="14.5704" width="2.69754" height="7.96833" rx="1.34877" fill="white"/>
<rect x="12.3867" y="10.455" width="2.69754" height="16.0051" rx="1.34877" fill="white"/>
<rect x="17.1572" y="7.4422" width="2.69754" height="22.0306" rx="1.34877" fill="white"/>
<rect width="2.69754" height="7.96833" rx="1.34877" transform="matrix(-1 0 0 1 29.396 14.6675)" fill="white"/>
<rect width="2.69754" height="16.0051" rx="1.34877" transform="matrix(-1 0 0 1 24.6255 10.552)" fill="white"/>
<rect width="2.69754" height="22.0306" rx="1.34877" transform="matrix(-1 0 0 1 19.855 7.53931)" fill="white"/>
<path d="M47.2645 9.04913V29.7759H50.6992V21.8405H55.5552C59.3156 21.8405 62.0693 19.2941 62.0693 15.4448C62.0693 11.566 59.4045 9.04913 55.5552 9.04913H47.2645ZM50.6992 12.1878H55.1999C57.3614 12.1878 58.6346 13.4018 58.6346 15.4448C58.6346 17.4879 57.3318 18.7019 55.1999 18.7019H50.6992V12.1878ZM62.8272 22.4623C62.8272 27.0222 66.1138 30.1905 70.4073 30.1905C74.7007 30.1905 77.9873 27.0222 77.9873 22.4623C77.9873 17.9024 74.7007 14.7638 70.4073 14.7638C66.1138 14.7638 62.8272 17.9024 62.8272 22.4623ZM66.0842 22.4623C66.0842 19.531 67.8312 17.6952 70.4073 17.6952C72.9833 17.6952 74.7303 19.531 74.7303 22.4623C74.7303 25.3937 72.9833 27.2591 70.4073 27.2591C67.8312 27.2591 66.0842 25.3937 66.0842 22.4623ZM94.6442 9.04913H91.3871V17.3399H91.0318C90.262 16.0666 88.9295 14.7638 86.2054 14.7638C82.4746 14.7638 79.4248 17.9617 79.4248 22.4623C79.4248 26.963 82.4746 30.1905 86.2054 30.1905C88.9295 30.1905 90.262 28.8876 91.0318 27.5848H91.4463V29.7759H94.6442V9.04913ZM87.0641 17.6656C89.6402 17.6656 91.3871 19.4718 91.3871 22.4623C91.3871 25.4529 89.6402 27.2887 87.0641 27.2887C84.5473 27.2887 82.6819 25.5417 82.6819 22.4623C82.6819 19.3829 84.5473 17.6656 87.0641 17.6656ZM97.0056 22.4623C97.0056 26.963 100.292 30.1905 104.615 30.1905C108.82 30.1905 111.159 27.6144 111.84 24.5646L108.642 23.8244C108.257 25.7194 107.162 27.2591 104.645 27.2591C102.039 27.2591 100.263 25.3345 100.263 22.4623C100.263 19.5902 102.098 17.6952 104.615 17.6952C107.043 17.6952 108.376 19.2349 108.613 21.1299L111.81 20.3897C111.129 17.103 108.583 14.7638 104.586 14.7638C100.292 14.7638 97.0056 17.9617 97.0056 22.4623ZM113.527 18.7611L116.251 20.3008C117.05 18.6723 118.353 17.6063 120.515 17.6063C122.706 17.6063 123.92 18.7315 123.92 20.4193V20.8042L118.442 21.3668C115.155 21.6925 113.231 23.2026 113.231 25.6898C113.231 28.4139 115.392 30.1905 118.679 30.1905C121.729 30.1905 123.002 28.7396 123.535 27.5848H123.949V29.7759H127.147V20.5081C127.147 17.0438 124.601 14.7638 120.633 14.7638C117.08 14.7638 114.919 16.5404 113.527 18.7611ZM116.606 25.5417C116.606 24.3574 117.613 23.854 119.153 23.7059L123.92 23.2026V23.4395C123.92 25.6898 122.38 27.496 119.36 27.496C117.583 27.496 116.606 26.7261 116.606 25.5417ZM129.866 19.1757C129.866 21.9294 131.88 23.1138 135.581 23.5875L136.44 23.7059C138.009 23.9132 139.697 24.0909 139.697 25.3937C139.697 26.6669 138.276 27.4664 136.469 27.4664C134.337 27.4664 132.413 26.282 131.495 24.2389L128.771 25.8378C130.014 27.9401 132.294 30.1905 136.38 30.1905C140.2 30.1905 142.895 28.177 142.895 25.3049C142.895 22.4327 140.733 21.426 136.736 20.9226L135.877 20.8042C134.308 20.5969 133.064 20.3897 133.064 19.146C133.064 18.0801 134.041 17.4287 135.551 17.4287C137.387 17.4287 139.016 18.4058 140.378 20.1232L142.747 18.317C140.615 16.0074 138.572 14.7638 135.581 14.7638C132.413 14.7638 129.866 16.4516 129.866 19.1757ZM143.515 15.1783V17.9913H147.394V27.1111C147.394 28.6804 148.519 29.7759 150.059 29.7759H153.967V26.963H151.45C150.917 26.963 150.651 26.6965 150.651 26.1043V17.9913H154.796V15.1783H150.651V10.3816H147.394V15.1783H143.515ZM163.705 9.04913L169.686 19.1164V19.5014L163.616 29.7759H167.525L172.174 21.7813H172.558L177.207 29.7759H181.086L175.046 19.5014V19.1164L180.997 9.04913H177.118L172.558 16.8365H172.174L167.584 9.04913H163.705Z" fill="#14142B"/>
</svg>
