<svg width="180" height="28" viewBox="0 0 180 28" fill="none" xmlns="http://www.w3.org/2000/svg">
<path d="M14.7373 22.5027L23.8453 28L21.428 17.64L29.4747 10.6693L18.8787 9.77067L14.7373 0L10.596 9.77067L0 10.6693L8.04667 17.64L5.62933 28L14.7373 22.5027Z" fill="#FEDB01"/>
<path d="M52.2119 22.5027L61.3199 28L58.9026 17.64L66.9493 10.6693L56.3533 9.77067L52.2119 0L48.0706 9.77067L37.4746 10.6693L45.5213 17.64L43.1039 28L52.2119 22.5027Z" fill="#FEDB01"/>
<path d="M89.6866 22.5027L98.7946 28L96.3772 17.64L104.424 10.6693L93.8279 9.77067L89.6866 0L85.5452 9.77067L74.9492 10.6693L82.9959 17.64L80.5786 28L89.6866 22.5027Z" fill="#FEDB01"/>
<path d="M127.161 22.5027L136.269 28L133.852 17.64L141.898 10.6693L131.302 9.77067L127.161 0L123.02 9.77067L112.424 10.6693L120.47 17.64L118.053 28L127.161 22.5027Z" fill="#FEDB01"/>
<path d="M164.636 22.5027L173.744 28L171.326 17.64L179.373 10.6693L168.777 9.77067L164.636 0L160.494 9.77067L149.898 10.6693L157.945 17.64L155.528 28L164.636 22.5027Z" fill="#FEDB01"/>
</svg>
