<svg width="108" height="108" viewBox="0 0 108 108" fill="none" xmlns="http://www.w3.org/2000/svg">
<rect width="108" height="108" fill="#EFF0F7"/>
<path d="M75.2871 51.2768C75.2871 53.5213 76.207 55.5817 77.7155 57.0535C78.4146 57.7526 77.9363 58.9668 76.9797 58.9668H76.0966C74.4041 58.9668 72.8219 58.3045 71.6445 57.1271C70.4671 58.3045 68.8481 58.9668 67.1924 58.9668H61.3421H51.3708C48.5047 58.9668 47.7237 56.6572 47.6914 55.5024V47.9285V35.0505C47.6914 33.0268 49.3471 31.3711 51.3708 31.3711H71.6077C73.6314 31.3711 75.2871 33.0268 75.2871 35.0505V51.2768Z" fill="#FF3D3D"/>
<path d="M64.2486 75.5244H59.5022C57.8464 75.5244 56.2275 74.8621 55.0501 73.6847C53.8727 74.8621 52.2905 75.5244 50.598 75.5244H34.8132C32.7895 75.5244 31.1338 73.8687 31.1338 71.845V51.6081C31.1338 49.5845 32.7895 47.9287 34.8132 47.9287H55.0501C57.0738 47.9287 58.7295 49.5845 58.7295 51.6081V67.8712C58.7295 71.3299 60.9372 74.4206 64.2486 75.5244Z" fill="white"/>
<path d="M34.7344 46.8245H46.1407H54.9713C56.578 46.6391 59.7913 47.3361 59.7913 51.6078V57.8628V67.8709C59.7913 70.888 61.7046 73.5372 64.5378 74.4938C65.0529 74.641 65.3473 75.1561 65.2737 75.708C65.1633 76.2232 64.7218 76.6279 64.1699 76.6279H59.4234C57.4365 76.6279 55.5968 75.8552 54.1986 74.457C53.7571 74.0523 53.7571 73.3532 54.1986 72.9117C54.6033 72.4701 55.3024 72.4701 55.744 72.9117C56.7374 73.8683 58.0252 74.4202 59.4234 74.4202H60.3065C58.5771 72.7277 57.5469 70.4097 57.5469 67.8709V51.6078C57.5469 50.1728 56.4063 49.0322 54.9713 49.0322H34.7344C33.2995 49.0322 32.1588 50.1728 32.1588 51.6078V71.8446C32.1588 73.2796 33.2995 74.4202 34.7344 74.4202H50.5192C51.1447 74.4202 51.623 74.8986 51.623 75.5241C51.623 76.1496 51.1447 76.6279 50.5192 76.6279H34.7344C32.0852 76.6279 29.9512 74.4938 29.9512 71.8446V51.6078C29.9512 48.9586 32.0852 46.8245 34.7344 46.8245Z" fill="#14142B"/>
<path d="M65.3523 43.5133H54.682C54.0565 43.5133 53.5781 43.035 53.5781 42.4095C53.5781 41.784 54.0565 41.3057 54.682 41.3057H65.3523C65.9778 41.3057 66.4561 41.784 66.4561 42.4095C66.4561 43.035 65.9778 43.5133 65.3523 43.5133ZM65.3523 49.0325H62.0408C61.4153 49.0325 60.937 48.5541 60.937 47.9286C60.937 47.3031 61.4153 46.8248 62.0408 46.8248H65.3523C65.9778 46.8248 66.4561 47.3031 66.4561 47.9286C66.4561 48.5541 65.9778 49.0325 65.3523 49.0325Z" fill="white"/>
<path d="M69.0316 74.4199C68.7388 74.4199 68.458 74.5362 68.251 74.7432C68.044 74.9502 67.9277 75.231 67.9277 75.5238C67.9277 75.8165 68.044 76.0973 68.251 76.3043C68.458 76.5113 68.7388 76.6276 69.0316 76.6276C69.3243 76.6276 69.6051 76.5113 69.8121 76.3043C70.0191 76.0973 70.1354 75.8165 70.1354 75.5238C70.1354 75.231 70.0191 74.9502 69.8121 74.7432C69.6051 74.5362 69.3243 74.4199 69.0316 74.4199V74.4199Z" fill="#3F4A54"/>
<path d="M49.8992 60.0709H39.2288C38.6033 60.0709 38.125 59.5926 38.125 58.9671C38.125 58.3416 38.6033 57.8633 39.2288 57.8633H49.8992C50.5247 57.8633 51.003 58.3416 51.003 58.9671C51.003 59.5926 50.5247 60.0709 49.8992 60.0709ZM45.1159 65.5901H39.2288C38.6033 65.5901 38.125 65.1118 38.125 64.4863C38.125 63.8607 38.6033 63.3824 39.2288 63.3824H45.1159C45.7414 63.3824 46.2197 63.8607 46.2197 64.4863C46.2197 65.1118 45.7414 65.5901 45.1159 65.5901ZM49.8992 65.5901C49.6048 65.5901 49.3105 65.4797 49.1265 65.2589C49.0897 65.2221 49.0161 65.1485 48.9793 65.1118C48.9425 65.0382 48.9057 65.0014 48.8689 64.9278C48.8321 64.8542 48.8321 64.7806 48.7953 64.707C48.7953 64.6334 48.7585 64.5598 48.7585 64.4863C48.7585 64.1919 48.8689 63.8975 49.0897 63.7136C49.3473 63.456 49.7152 63.3456 50.0831 63.4192C50.1567 63.4192 50.2303 63.456 50.3039 63.4928C50.3775 63.5296 50.4511 63.5664 50.4879 63.6032C50.5615 63.64 50.5983 63.6768 50.6351 63.7504C50.8558 63.9711 50.9662 64.2287 50.9662 64.523C50.9662 64.5966 50.9662 64.6702 50.9294 64.7438C50.9294 64.8174 50.8926 64.891 50.8558 64.9646C50.819 65.0382 50.7822 65.1118 50.7454 65.1486C50.7086 65.2221 50.6719 65.2589 50.5983 65.2957C50.5615 65.3325 50.4879 65.4061 50.4511 65.4429C50.3775 65.4797 50.3407 65.5165 50.2671 65.5533C50.1935 65.5901 50.1199 65.5901 50.0463 65.6269C50.0463 65.5901 49.9728 65.5901 49.8992 65.5901Z" fill="#14142B"/>
</svg>
