<svg width="108" height="108" viewBox="0 0 108 108" fill="none" xmlns="http://www.w3.org/2000/svg">
<rect width="108" height="108" fill="#EFF0F7"/>
<path d="M80.5805 54.0007C80.5805 68.6921 68.6921 80.5805 54.0007 80.5805C39.3093 80.5805 27.4209 68.6921 27.4209 54.0007C27.4209 39.3093 39.3093 27.4209 54.0007 27.4209C57.1419 27.4209 60.1865 27.9525 62.9895 28.9674C73.2348 32.6402 80.5805 42.4506 80.5805 54.0007Z" fill="white"/>
<path d="M80.0497 48.6363C78.165 39.5025 71.5925 32.0602 62.9903 28.9673C62.942 28.9673 62.8937 28.9189 62.8937 28.9189L62.9903 34.0416C62.9903 35.3464 62.2171 36.5546 61.0089 37.0862C58.351 38.246 55.693 37.6178 54.5815 40.6624C53.6632 42.9337 56.0796 49.1679 59.0275 49.1679C62.7487 49.1679 64.5368 41.6772 65.6483 41.6772C66.3732 41.6772 67.4847 43.9486 68.7896 45.6401C69.6595 46.7999 71.0126 47.4282 72.4624 47.4282H74.9271L80.0497 48.6363Z" fill="#179EFF"/>
<path d="M58.7372 59.7996C57.3841 61.6844 64.4881 67.4353 66.8562 66.3237C70.8673 64.439 73.4769 60.5245 73.4769 59.0747C73.4769 57.6249 71.5922 54.8219 65.1647 59.1714C63.3766 60.4762 60.1387 57.8665 58.7372 59.7996Z" fill="#179EFF"/>
<path d="M47.9598 54.5324C49.3613 53.131 49.7963 50.9563 49.0714 49.6998C46.7517 45.4953 41.2424 47.7183 40.7108 52.1161C40.4208 54.7741 38.826 57.4804 37.4729 58.8819C36.1197 60.235 33.4618 59.5101 32.7369 57.5287C31.9153 55.3057 34.7666 54.4841 34.3316 51.6328C34.235 50.8596 33.4134 50.473 32.3986 50.328L27.6142 50.5213C27.5176 51.6328 27.4209 52.7927 27.4209 54.0008C27.4209 66.7108 36.313 77.3427 48.2498 79.9524V75.2164C48.2498 75.2164 48.2498 75.2164 47.0416 74.0082C45.8334 72.8 48.2981 70.7703 48.9747 68.209C50.8594 60.9599 44.5769 60.67 44.3836 59.0752C44.1903 57.2871 46.5584 55.9339 47.9598 54.5324Z" fill="#179EFF"/>
<path d="M54.0003 82.0299C38.5357 82.0299 25.9707 69.4649 25.9707 54.0003C25.9707 38.5357 38.5357 25.9707 54.0003 25.9707C57.2382 25.9707 60.4278 26.5023 63.4724 27.6138C74.5876 31.5766 82.0299 42.2085 82.0299 54.0003C82.0299 69.4649 69.4649 82.0299 54.0003 82.0299ZM54.0003 28.8703C40.1305 28.8703 28.8703 40.1305 28.8703 54.0003C28.8703 67.8701 40.1305 79.1303 54.0003 79.1303C67.8701 79.1303 79.1303 67.8701 79.1303 54.0003C79.1303 43.4167 72.4612 33.8963 62.5058 30.3201C59.7512 29.3536 56.8999 28.8703 54.0003 28.8703Z" fill="#14142B"/>
</svg>
