<svg width="108" height="108" viewBox="0 0 108 108" fill="none" xmlns="http://www.w3.org/2000/svg">
<rect width="108" height="108" fill="#EFF0F7"/>
<path d="M49.7775 69.5208L39.7503 76.5078C37.6169 78.0012 34.8434 75.9745 35.5901 73.4677L39.1103 61.7872C39.4303 60.7204 39.057 59.4937 38.1503 58.8003L28.3898 51.3867C26.3097 49.8399 27.3764 46.5331 29.9899 46.4798L42.2038 46.2131C43.3238 46.2131 44.3372 45.4664 44.7106 44.3997L48.7641 32.8791C49.6175 30.4257 53.0843 30.4257 53.9377 32.8791L57.9378 44.3997C58.3112 45.4664 59.3246 46.2131 60.4446 46.2131L72.6585 46.4798C75.272 46.5331 76.3387 49.8399 74.2586 51.3867L64.4981 58.8003C63.5914 59.4937 63.2181 60.6671 63.5381 61.7872L67.0583 73.4677C67.805 75.9211 65.0315 78.0012 62.8981 76.5078L52.8709 69.5208C51.9642 68.8275 50.6842 68.8275 49.7775 69.5208Z" fill="white"/>
<path d="M53.9005 69.4925L43.8734 76.4795C41.7399 77.9729 38.9665 75.9462 39.7132 73.4394L43.2333 61.7588C43.5534 60.6921 43.18 59.4654 42.2733 58.772L32.5129 51.3584C30.4328 49.8116 31.4995 46.5048 34.1129 46.4515L46.3268 46.1848C47.4469 46.1848 48.4603 45.4381 48.8336 44.3714L52.8871 32.8508C53.7405 30.3974 57.2073 30.3974 58.0607 32.8508L62.0609 44.3714C62.4342 45.4381 63.4476 46.1848 64.5677 46.1848L76.7816 46.4515C79.395 46.5048 80.4617 49.8116 78.3816 51.3584L68.6745 58.7187C67.7678 59.4121 67.3945 60.5854 67.7145 61.7055L71.2346 73.386C71.9813 75.8395 69.2079 77.9196 67.0745 76.4262L56.994 69.4925C56.0873 68.7992 54.8072 68.7992 53.9005 69.4925Z" fill="#FEDB01"/>
<path d="M38.2035 78.5877C37.2968 78.5877 36.4434 78.321 35.6434 77.7343C34.15 76.6143 33.51 74.7475 34.0433 72.9875L37.5635 61.3069C37.7235 60.8802 37.5635 60.3469 37.1901 60.0802L27.4297 52.6665C25.9363 51.5465 25.3496 49.6797 25.9363 47.8663C26.523 46.1062 28.0697 44.9328 29.9898 44.8795L42.2037 44.6128C42.6837 44.6128 43.1104 44.2928 43.2704 43.8661L47.2173 32.3456C47.8573 30.5855 49.4574 29.4121 51.3241 29.4121C53.1909 29.4121 54.7909 30.5322 55.431 32.3456L59.4312 43.8661C59.5912 44.2928 60.0179 44.6128 60.4979 44.6128L72.7118 44.8795C74.5785 44.9328 76.1786 46.1062 76.7653 47.8663C77.352 49.6264 76.7653 51.5465 75.2719 52.6665L65.4581 60.0802C65.0848 60.3469 64.9248 60.8802 65.0848 61.3069L68.6049 72.9875C69.1383 74.8009 68.4983 76.6676 67.0049 77.7343C65.5114 78.8544 63.538 78.8544 61.9913 77.7877L51.9641 70.8007C51.5908 70.534 51.0574 70.534 50.6841 70.8007L40.657 77.7877C39.9103 78.321 39.0569 78.5877 38.2035 78.5877ZM51.3241 32.6656C51.1108 32.6656 50.5241 32.7189 50.2574 33.4123L46.2572 44.9328C45.6705 46.6396 44.0705 47.813 42.257 47.8663L30.0431 48.133C29.2964 48.133 29.0298 48.7197 28.9764 48.933C28.9231 49.093 28.7631 49.7331 29.3498 50.1597L39.0569 57.5201C40.497 58.5868 41.0836 60.5069 40.6036 62.2136L37.0835 73.8942C36.8701 74.5875 37.3501 75.0142 37.5101 75.1209C37.6702 75.2276 38.2035 75.5476 38.8435 75.1209L48.8707 68.1339C50.3641 67.1205 52.3375 67.1205 53.8309 68.1339L63.858 75.1209C64.4447 75.5476 65.0314 75.2276 65.1914 75.1209C65.3514 75.0142 65.8315 74.5875 65.6181 73.8942L61.9913 62.2136C61.4579 60.5069 62.098 58.5868 63.538 57.5201L73.2451 50.1597C73.8318 49.7331 73.6718 49.093 73.6185 48.933C73.5652 48.773 73.2985 48.1863 72.5518 48.133L60.3912 47.8663C58.5778 47.813 56.9777 46.6396 56.391 44.9328L52.3908 33.4123C52.1242 32.7189 51.5375 32.6656 51.3241 32.6656Z" fill="#14142B"/>
</svg>
