<svg width="108" height="108" viewBox="0 0 108 108" fill="none" xmlns="http://www.w3.org/2000/svg">
<rect width="108" height="108" fill="#EFF0F7"/>
<path d="M54.0001 70.7181C46.0832 70.7181 39.6416 64.2764 39.6416 56.3596V55.5728C39.6416 54.7369 40.2808 54.0977 41.1168 54.0977C41.9527 54.0977 42.592 54.7369 42.592 55.5728V56.3596C42.592 62.6537 47.7059 67.7677 54.0001 67.7677C60.2942 67.7677 65.4082 62.6537 65.4082 56.3596V55.5728C65.4082 54.7369 66.0474 54.0977 66.8833 54.0977C67.7193 54.0977 68.3585 54.7369 68.3585 55.5728V56.3596C68.3585 64.2764 61.9169 70.7181 54.0001 70.7181Z" fill="#14142B"/>
<path d="M54.0001 63.3429C50.1646 63.3429 47.0176 60.1958 47.0176 56.3603V35.9044C47.0176 32.0689 50.1646 28.9219 54.0001 28.9219C57.8356 28.9219 60.9827 32.0689 60.9827 35.9044V56.3603C60.9827 60.1958 57.8356 63.3429 54.0001 63.3429Z" fill="white"/>
<path d="M54.0001 28.9219C53.3117 28.9219 52.6724 29.0202 52.0332 29.2169C54.9344 30.0529 57.0488 32.7574 57.0488 35.9044V56.3603C57.0488 59.5565 54.9344 62.2119 52.0332 63.0478C52.6724 63.2445 53.3117 63.3429 54.0001 63.3429C57.8356 63.3429 60.9827 60.1958 60.9827 56.3603V35.9044C60.9827 32.0689 57.8356 28.9219 54.0001 28.9219Z" fill="#C7D7E2"/>
<path d="M53.9997 64.8176C49.3283 64.8176 45.542 61.0313 45.542 56.3599V35.904C45.542 31.2326 49.3283 27.4463 53.9997 27.4463C58.6711 27.4463 62.4574 31.2326 62.4574 35.904V56.3599C62.4574 61.0313 58.6711 64.8176 53.9997 64.8176ZM53.9997 30.3967C50.951 30.3967 48.4924 32.8553 48.4924 35.904V56.3599C48.4924 59.4086 50.951 61.8673 53.9997 61.8673C57.0484 61.8673 59.5071 59.4086 59.5071 56.3599V35.904C59.5071 32.8553 57.0484 30.3967 53.9997 30.3967Z" fill="#14142B"/>
<path d="M56.5575 37.4289C55.7216 37.4289 55.0823 36.7896 55.0823 35.9537C55.0823 35.1178 55.7216 34.4785 56.5575 34.4785C57.3934 34.4785 58.0327 35.1178 58.0327 35.9537V36.0029C58.0327 36.7405 57.3934 37.4289 56.5575 37.4289ZM56.5575 44.2147C55.7216 44.2147 55.0823 43.5755 55.0823 42.7395V42.6904C55.0823 41.8544 55.7216 41.2152 56.5575 41.2152C57.3934 41.2152 58.0327 41.8544 58.0327 42.6904V42.7395C58.0327 43.5755 57.3934 44.2147 56.5575 44.2147ZM51.6402 37.4289C50.8043 37.4289 50.165 36.7896 50.165 35.9537C50.165 35.1178 50.8043 34.4785 51.6402 34.4785C52.4762 34.4785 53.1154 35.1178 53.1154 35.9537V36.0029C53.1154 36.7405 52.4762 37.4289 51.6402 37.4289ZM51.6402 44.2147C50.8043 44.2147 50.165 43.5755 50.165 42.7395V42.6904C50.165 41.8544 50.8043 41.2152 51.6402 41.2152C52.4762 41.2152 53.1154 41.8544 53.1154 42.6904V42.7395C53.1154 43.5755 52.4762 44.2147 51.6402 44.2147Z" fill="#C7D7E2"/>
<path d="M54.0006 80.5525C53.1646 80.5525 52.5254 79.9133 52.5254 79.0773V69.2428C52.5254 68.4068 53.1646 67.7676 54.0006 67.7676C54.8365 67.7676 55.4758 68.4068 55.4758 69.2428V79.0773C55.4758 79.9133 54.8365 80.5525 54.0006 80.5525Z" fill="#14142B"/>
<path d="M63.8347 80.5529H44.1656C43.3297 80.5529 42.6904 79.9137 42.6904 79.0777C42.6904 78.2418 43.3297 77.6025 44.1656 77.6025H63.8347C64.6707 77.6025 65.3099 78.2418 65.3099 79.0777C65.3099 79.9137 64.6707 80.5529 63.8347 80.5529Z" fill="#14142B"/>
<path d="M62.458 47.6076H45.5426C44.7066 47.6076 44.0674 46.9683 44.0674 46.1324C44.0674 45.2965 44.7066 44.6572 45.5426 44.6572H62.458C63.294 44.6572 63.9332 45.2965 63.9332 46.1324C63.9332 46.9683 63.294 47.6076 62.458 47.6076Z" fill="#14142B"/>
</svg>
