<svg width="108" height="108" viewBox="0 0 108 108" fill="none" xmlns="http://www.w3.org/2000/svg">
<rect width="108" height="108" fill="#EFF0F7"/>
<path d="M67.4966 35.5951C67.4966 33.3455 69.3372 31.5049 71.5868 31.5049H40.5013C38.2517 31.5049 36.4111 33.3455 36.4111 35.5951C36.4111 37.8447 38.2517 39.6853 40.5013 39.6853H45.0005L43.7735 77.7241H48.6817L47.4547 39.6853H71.5868" fill="white"/>
<path d="M47.4551 39.6846H71.5872V76.4963H47.4551V39.6846Z" fill="#179EFF"/>
<path d="M36.4111 35.5947V72.4065C36.4111 74.6561 38.2517 76.4967 40.5013 76.4967H45.0005V39.6849H40.5013C38.2517 39.6849 36.4111 37.8443 36.4111 35.5947Z" fill="#179EFF"/>
<path d="M71.5873 38.458H48.7641C48.1096 38.458 47.4961 38.9488 47.4552 39.6033C47.4143 40.2986 47.9869 40.9121 48.6822 40.9121H70.3603V75.2697H48.6822C47.9869 75.2697 47.4552 75.8015 47.4552 76.4968C47.4552 77.1921 47.9869 77.7239 48.6822 77.7239H71.5873C72.2827 77.7239 72.8144 77.1921 72.8144 76.4968V39.6851C72.8144 38.9897 72.2827 38.458 71.5873 38.458Z" fill="#14142B"/>
<path d="M40.5018 75.2695C38.9066 75.2695 37.6387 74.0015 37.6387 72.4063V40.0529C38.4567 40.5846 39.4384 40.9118 40.5018 40.9118H43.6922C44.3466 40.9118 44.9601 40.421 45.001 39.7666C45.0419 39.0713 44.4693 38.4577 43.774 38.4577H40.5836C39.1112 38.4577 37.8432 37.4352 37.6387 35.9627C37.4342 34.2448 38.7839 32.7315 40.5018 32.7315H67.0881C66.5972 33.5086 66.27 34.4493 66.27 35.4719C66.27 36.1672 66.7609 36.7808 67.4562 36.8217C68.1515 36.8626 68.7241 36.2899 68.7241 35.5946C68.7241 33.9994 69.9921 32.7315 71.5873 32.7315C72.2008 32.7315 72.7734 32.2406 72.8143 31.5862C72.8552 30.85 72.2826 30.2773 71.5873 30.2773H40.5018C37.5569 30.2773 35.1846 32.6497 35.1846 35.5946V72.4063C35.1846 75.3513 37.5569 77.7236 40.5018 77.7236H43.774C44.4693 77.7236 45.001 77.1919 45.001 76.4965C45.001 75.8012 44.4693 75.2695 43.774 75.2695H40.5018Z" fill="#14142B"/>
<path d="M53.5903 60.1364H63.4068C64.1021 60.1364 64.6339 59.6047 64.6339 58.9094V53.1831C64.6339 52.4878 64.1021 51.9561 63.4068 51.9561H53.5903C52.895 51.9561 52.3633 52.4878 52.3633 53.1831V58.9094C52.3633 59.6047 52.895 60.1364 53.5903 60.1364Z" fill="white"/>
</svg>
