<svg width="21" height="21" viewBox="0 0 21 21" fill="none" xmlns="http://www.w3.org/2000/svg">
<path d="M13.0655 19.3005L13.0756 19.3064C13.9724 19.8786 15.0372 20.1271 16.094 20.0109C17.1507 19.8948 18.1364 19.421 18.8881 18.6677L19.5417 18.0128C19.8335 17.7199 19.9975 17.323 19.9975 16.9091C19.9975 16.4952 19.8335 16.0982 19.5417 15.8054L16.7882 13.048C16.496 12.7555 16.0998 12.5912 15.6868 12.5912C15.2737 12.5912 14.8776 12.7555 14.5853 13.048C14.4408 13.193 14.2692 13.308 14.0803 13.3865C13.8913 13.465 13.6888 13.5054 13.4843 13.5054C13.2798 13.5054 13.0773 13.465 12.8884 13.3865C12.6994 13.308 12.5278 13.193 12.3833 13.048L7.97746 8.63234C7.68558 8.33949 7.52163 7.94252 7.52163 7.52863C7.52163 7.11474 7.68558 6.71777 7.97746 6.42493C8.12216 6.2801 8.23696 6.10812 8.31528 5.91881C8.39361 5.7295 8.43392 5.52658 8.43392 5.32164C8.43392 5.11671 8.39361 4.91378 8.31528 4.72447C8.23696 4.53516 8.12216 4.36318 7.97746 4.21836L5.22488 1.45676C4.93263 1.16428 4.53648 1 4.12343 1C3.71038 1 3.31423 1.16428 3.02198 1.45676L2.36845 2.11163C1.61683 2.86496 1.14399 3.85255 1.02794 4.91143C0.911888 5.97031 1.15957 7.03719 1.73012 7.93602L1.73688 7.94617C4.75408 12.4218 8.59972 16.2761 13.0655 19.3005Z" stroke="#14142B" stroke-linecap="round" stroke-linejoin="round"/>
</svg>
