<svg width="24" height="24" viewBox="0 0 24 24" fill="none" xmlns="http://www.w3.org/2000/svg">
<path d="M17.1328 12.022C17.1328 13.0394 16.8317 14.034 16.2676 14.88C15.7035 15.726 14.9017 16.3853 13.9636 16.7747C13.0256 17.164 11.9933 17.2659 10.9975 17.0674C10.0016 16.8689 9.08686 16.379 8.36889 15.6595C7.65092 14.9401 7.16197 14.0235 6.96388 13.0256C6.76579 12.0277 6.86746 10.9933 7.25602 10.0533C7.64459 9.11334 8.3026 8.30992 9.14685 7.74465C9.99109 7.17939 10.9837 6.87769 11.999 6.87769C13.3606 6.87769 14.6664 7.41967 15.6292 8.38441C16.5919 9.34915 17.1328 10.6576 17.1328 12.022Z" stroke="#8C8C95" stroke-linecap="round" stroke-linejoin="round"/>
<path d="M17.1328 12.022V14.2267C17.1328 15.0063 17.4419 15.754 17.992 16.3053C18.5422 16.8565 19.2884 17.1662 20.0664 17.1662C20.8444 17.1662 21.5906 16.8565 22.1408 16.3053C22.6909 15.754 23 15.0063 23 14.2267V12.022C22.9999 9.53899 22.1631 7.12878 20.6253 5.18183C19.0875 3.23487 16.9387 1.86523 14.527 1.29481C12.1154 0.724397 9.58219 0.986614 7.33784 2.03898C5.09349 3.09136 3.26947 4.87223 2.16131 7.09307C1.05315 9.31392 0.725768 11.8446 1.2322 14.2752C1.73863 16.7058 3.04921 18.8938 4.9516 20.4848C6.85399 22.0758 9.23675 22.9766 11.7138 23.0412C14.1909 23.1058 16.6172 22.3304 18.5996 20.8407" stroke="#8C8C95" stroke-linecap="round" stroke-linejoin="round"/>
</svg>
